<svg width="60" height="60" viewBox="0 0 60 60" fill="none" xmlns="http://www.w3.org/2000/svg">
<g clip-path="url(#clip0_9_4793)">
<path d="M46.4408 33.6322C44.7903 25.3259 52.6744 20.4544 52.6744 20.4544C52.6744 20.4544 49.6027 16.0102 44.4402 14.867C39.2803 13.7212 36.6978 15.1527 34.1203 16.2264C31.5404 17.3027 30.253 17.3027 30.253 17.3027C26.5299 17.3027 23.8082 13.3607 16.7147 15.1554C11.8277 16.3886 6.68317 22.0301 5.75367 28.7633C4.82417 35.499 6.82999 44.0937 10.6973 50.7547C14.5646 57.421 18.5042 59.9262 21.3003 59.9983C24.0966 60.0678 26.8877 57.9951 30.253 57.4904C33.6209 56.9909 35.6936 58.7109 38.997 59.6404C42.2876 60.5674 43.4411 59.7074 47.2312 56.4837C51.0316 53.26 54.4716 44.0139 54.4716 44.0139C54.4716 44.0139 48.0912 41.9436 46.4408 33.6322Z" fill="white"/>
<path d="M39.1335 9.49327C42.7896 5.76763 41.5512 0 41.5512 0C41.5512 0 36.4171 0.901211 32.9771 4.48015C29.5397 8.06172 30.1087 13.7186 30.1087 13.7186C30.1087 13.7186 35.4772 13.2165 39.1335 9.49327Z" fill="white"/>
</g>
<defs>
<clipPath id="clip0_9_4793">
<rect width="60" height="60" fill="white"/>
</clipPath>
</defs>
</svg>
