<svg width="315" height="24" viewBox="0 0 315 24" fill="none" xmlns="http://www.w3.org/2000/svg">
<path d="M293.764 12.6599C293.336 12.6799 292.903 12.6937 292.484 12.7238C292.211 12.7426 292.095 12.6875 291.913 12.6586C291.852 12.6486 291.787 12.6286 291.731 12.6311C291.307 12.6511 290.883 12.6737 290.459 12.6962C290.33 12.7451 290.247 12.8102 290.048 12.834C289.854 12.8566 289.625 12.8566 289.408 12.8679C289.123 12.8817 288.837 12.8955 288.552 12.908C288.409 12.9142 288.292 12.938 288.245 12.9832C288.236 12.9907 288.331 13.0095 288.383 13.0207C288.556 13.0583 288.725 13.1009 288.915 13.1297C289.097 13.1573 289.322 13.1122 289.516 13.1473C289.953 13.2262 289.958 13.225 290.291 13.2099C290.576 13.1961 290.862 13.1811 291.147 13.1711C291.203 13.1686 291.268 13.1874 291.329 13.1974C291.51 13.225 291.627 13.2876 291.896 13.2638C292.099 13.245 292.324 13.2413 292.536 13.2312C292.713 13.2676 292.877 13.3089 293.068 13.3377C293.245 13.3653 293.297 13.3866 293.202 13.4229C293.115 13.4568 292.994 13.4706 292.834 13.4731C292.691 13.4743 292.549 13.4856 292.406 13.4918C292.332 13.4956 292.263 13.4981 292.194 13.5019C291.921 13.5157 291.921 13.5157 291.424 13.4355C291.229 13.4041 291.009 13.448 290.823 13.4179C290.697 13.3979 290.589 13.3678 290.468 13.3465C290.416 13.3377 290.334 13.3365 290.269 13.339C290.053 13.3478 289.836 13.354 289.629 13.3703C289.482 13.3816 289.395 13.4167 289.413 13.4518C289.417 13.4655 289.521 13.4856 289.581 13.4868C289.72 13.4893 289.867 13.4718 290.001 13.4806C290.131 13.4893 290.265 13.5144 290.36 13.542C290.555 13.5996 290.775 13.5482 290.961 13.5633C291.156 13.5796 291.316 13.6297 291.502 13.6598C291.549 13.6673 291.64 13.6547 291.714 13.651C291.926 13.6422 292.138 13.6347 292.35 13.6259C292.527 13.6623 292.717 13.6948 292.877 13.7362C293.167 13.8114 293.479 13.8402 293.855 13.8038C294.067 13.7838 294.275 13.7913 294.443 13.8402C294.616 13.8903 294.815 13.8853 295.036 13.8753C295.239 13.8652 295.447 13.8377 295.654 13.8727C296.104 13.9504 296.109 13.9542 296.641 13.9241C296.801 13.9154 296.922 13.9128 297.043 13.9417C297.155 13.968 297.277 13.9905 297.393 14.0156C297.605 14.0068 297.822 13.998 298.034 13.988C298.306 13.9742 298.457 13.9918 298.522 14.0619C298.561 14.1045 298.579 14.1434 298.674 14.1722C298.786 14.2073 298.907 14.206 299.072 14.196C299.227 14.1872 299.34 14.1735 299.405 14.1284C299.431 14.1096 299.483 14.092 299.53 14.077C299.569 14.0657 299.63 14.0482 299.664 14.0507C299.729 14.0557 299.816 14.0695 299.837 14.0857C300.049 14.2374 300.049 14.2386 300.266 14.2825C300.504 14.3313 300.75 14.3752 300.966 14.4303C301.161 14.4792 301.356 14.4579 301.568 14.4579C301.728 14.4579 301.832 14.4905 301.819 14.523C301.81 14.5418 301.749 14.5694 301.697 14.5719C301.273 14.5969 300.845 14.6182 300.417 14.6358C300.365 14.6383 300.3 14.6157 300.24 14.6045C300.119 14.5819 300.01 14.5468 299.881 14.5393C299.751 14.5318 299.599 14.5506 299.457 14.5569C299.314 14.5631 299.163 14.5794 299.033 14.5694C298.903 14.5594 298.799 14.523 298.678 14.4992C298.622 14.4879 298.544 14.4717 298.496 14.4754C298.181 14.5055 297.947 14.4641 297.722 14.409C297.675 14.3977 297.592 14.3902 297.532 14.3927C297.03 14.414 296.533 14.4391 296.031 14.4629C295.828 14.4729 295.663 14.4291 295.62 14.3551C295.598 14.3138 295.555 14.2724 295.555 14.2311C295.555 14.1559 295.317 14.1146 295.144 14.1233C294.859 14.1359 294.569 14.1459 294.288 14.1647C294.058 14.1797 293.864 14.1647 293.708 14.1196C293.526 14.0682 293.319 14.0782 293.111 14.092C292.955 14.102 292.912 14.1434 292.921 14.2474C292.929 14.3313 292.856 14.3576 292.575 14.3714C292.22 14.389 291.861 14.4065 291.502 14.4203C291.446 14.4228 291.381 14.4015 291.324 14.3902C291.203 14.3677 291.095 14.3313 290.965 14.3238C290.836 14.315 290.684 14.3338 290.542 14.3414C290.399 14.3476 290.247 14.3652 290.118 14.3564C289.988 14.3476 289.88 14.31 289.763 14.2862C289.707 14.275 289.637 14.2587 289.581 14.2612C289.296 14.2712 289.01 14.2862 288.725 14.3C288.405 14.315 288.405 14.315 287.95 14.2374C287.743 14.2023 287.535 14.2298 287.332 14.2399C287.116 14.2499 286.912 14.2549 286.744 14.2048C286.631 14.1722 286.506 14.1522 286.372 14.1584C286.013 14.1735 285.658 14.1923 285.299 14.2073C285.238 14.2098 285.156 14.2035 285.109 14.1923C284.879 14.1396 284.654 14.0983 284.334 14.1246C284.057 14.1471 283.759 14.1484 283.482 14.1697C283.331 14.181 283.261 14.2211 283.292 14.2524C283.309 14.2687 283.4 14.2875 283.46 14.2875C283.599 14.2887 283.75 14.2699 283.88 14.2774C284.148 14.2925 284.282 14.3977 284.633 14.3689C284.84 14.3514 285.057 14.3451 285.273 14.3401C285.329 14.3388 285.39 14.3627 285.45 14.3752C285.623 14.409 285.775 14.4529 286.026 14.4303C286.233 14.4128 286.454 14.4078 286.666 14.3977C287.003 14.3815 287.003 14.3827 287.44 14.4591C287.648 14.4955 287.855 14.4667 288.059 14.4579C288.21 14.4516 288.353 14.4391 288.474 14.4566C288.66 14.4829 288.794 14.5431 289.023 14.5393C289.24 14.5356 289.451 14.518 289.668 14.5118C289.802 14.508 289.927 14.528 290.035 14.5619C290.148 14.5957 290.269 14.6107 290.416 14.6032C290.628 14.5932 290.844 14.5807 291.061 14.5744C291.121 14.5731 291.19 14.5844 291.247 14.5944C291.368 14.617 291.484 14.6433 291.601 14.6671C291.813 14.6596 292.03 14.6571 292.237 14.6421C292.397 14.6308 292.51 14.6358 292.639 14.6609C292.804 14.6947 292.938 14.7548 293.206 14.726C293.34 14.7122 293.496 14.716 293.63 14.7035C293.794 14.6872 293.907 14.6934 294.024 14.731C294.244 14.8024 294.521 14.8037 294.807 14.7761C295.118 14.7461 295.352 14.7811 295.585 14.8363C295.832 14.8939 295.832 14.8927 296.022 15.0317C296.078 15.0718 296.238 15.0906 296.372 15.0831C296.597 15.0706 296.792 15.0768 296.957 15.1244C297.13 15.1758 297.337 15.1696 297.549 15.1558C297.83 15.137 298.111 15.1207 298.341 15.1934C298.453 15.2284 298.574 15.2372 298.726 15.2284C299.154 15.2059 299.587 15.1921 300.006 15.1645C300.261 15.147 300.408 15.1871 300.581 15.2209C300.815 15.2673 301.07 15.3086 301.07 15.4076C301.07 15.4239 301.131 15.4427 301.183 15.4552C301.295 15.4815 301.416 15.5041 301.533 15.5291C301.706 15.5667 301.875 15.5981 302.113 15.578C302.32 15.5617 302.541 15.5567 302.753 15.5454C302.965 15.5342 303.16 15.5279 303.35 15.5755C303.57 15.6294 303.804 15.6808 304.055 15.7209C304.232 15.7497 304.466 15.7008 304.656 15.7396C304.773 15.7635 304.885 15.791 305.011 15.8111C305.063 15.8198 305.145 15.8136 305.214 15.8111C305.357 15.806 305.504 15.8023 305.642 15.7898C305.803 15.776 305.924 15.7785 306.045 15.8073C306.157 15.8336 306.27 15.87 306.399 15.8775C306.594 15.8887 306.81 15.8386 307.005 15.8963C307.104 15.9251 307.23 15.9527 307.36 15.9614C307.49 15.9702 307.641 15.9514 307.779 15.9526C307.84 15.9526 307.913 15.9727 307.948 15.989C307.97 15.9978 307.939 16.0216 307.909 16.0341C307.87 16.0491 307.814 16.0692 307.758 16.0717C307.329 16.0942 306.901 16.113 306.473 16.1343C306.218 16.1469 306.218 16.1469 305.703 16.0679C305.582 16.0491 305.448 16.0529 305.296 16.0617C305.093 16.0729 304.885 16.0942 304.674 16.0717C304.397 15.9865 304.055 15.979 303.692 16.0115C303.54 16.0253 303.402 16.0253 303.289 16.0015C303.051 15.9539 302.8 15.9101 302.589 15.8537C302.424 15.8098 302.346 15.8061 302.277 15.8662C302.255 15.885 302.234 15.905 302.238 15.9226C302.264 15.9852 302.312 16.0466 302.338 16.1093C302.346 16.1268 302.312 16.1469 302.29 16.1657C302.221 16.2183 302.13 16.2145 301.979 16.1707C301.827 16.1268 301.646 16.098 301.403 16.118C301.196 16.1356 300.971 16.1331 300.763 16.1519C300.443 16.1794 300.218 16.1393 299.989 16.0855C299.941 16.0742 299.859 16.0679 299.798 16.0704C299.154 16.0992 298.514 16.1318 297.869 16.1606C297.731 16.1669 297.605 16.1481 297.497 16.1143C297.385 16.0805 297.259 16.0629 297.121 16.0692C296.55 16.0955 295.979 16.1193 295.408 16.1519C295.174 16.1657 294.988 16.1494 294.828 16.1055C294.707 16.0729 294.595 16.0629 294.443 16.0667C294.279 16.0704 294.162 16.083 294.08 16.1193C294.002 16.1544 294.058 16.1757 294.231 16.2032C294.417 16.2333 294.59 16.2722 294.768 16.3072C294.91 16.3022 295.053 16.2922 295.192 16.2934C295.252 16.2934 295.308 16.316 295.369 16.3285C295.542 16.3649 295.702 16.4012 295.949 16.3812C296.156 16.3636 296.377 16.3599 296.589 16.3486C296.883 16.3348 296.883 16.3348 297.359 16.4137C297.48 16.4338 297.61 16.4325 297.765 16.4212C297.899 16.4125 298.038 16.43 298.133 16.4676C298.172 16.4826 298.159 16.5077 298.077 16.5904C298.077 16.6518 298.168 16.6242 298.198 16.5841C298.246 16.5265 298.155 16.5077 297.982 16.539C297.861 16.5616 297.8 16.5942 297.83 16.6205C297.848 16.6343 297.93 16.6518 298.077 16.5904C298.458 16.5152 298.747 16.5065 299.024 16.4864C299.189 16.4751 299.292 16.4801 299.422 16.5127C299.578 16.5516 299.734 16.5929 299.989 16.5729C300.266 16.5503 300.56 16.5478 300.841 16.529C301.1 16.5115 301.235 16.5666 301.399 16.5992C301.598 16.638 301.819 16.5942 302 16.6167C302.191 16.6393 302.325 16.6944 302.545 16.7044C302.865 16.6706 303.069 16.7332 303.311 16.7746C303.501 16.8059 303.726 16.7783 303.929 16.7646C304.159 16.7495 304.349 16.7633 304.509 16.8084C304.691 16.8598 304.894 16.8485 305.102 16.8372C305.586 16.8122 305.603 16.8084 305.885 16.8773C306.088 16.9274 306.283 16.9049 306.486 16.8986C306.663 16.9325 306.836 16.9688 307.022 16.9989C307.07 17.0064 307.161 16.9939 307.234 16.9901C307.446 16.9801 307.663 16.97 307.874 16.96C308.017 16.9538 308.169 16.935 308.298 16.9425C308.428 16.9513 308.536 16.9876 308.653 17.0114C308.77 17.0352 308.891 17.059 309.004 17.0841C309.177 17.1217 309.341 17.153 309.583 17.1342C309.791 17.1179 310.007 17.1129 310.223 17.1016C310.496 17.0878 310.487 17.0916 310.993 17.1668C311.266 17.2081 311.547 17.158 311.824 17.153C311.962 17.1505 312.096 17.1643 312.191 17.2006C312.23 17.2156 312.217 17.2407 312.23 17.262C311.517 17.2958 310.799 17.3246 310.093 17.366C309.821 17.3823 309.678 17.3372 309.531 17.2996C309.289 17.2394 308.969 17.3271 308.74 17.2494C308.601 17.2031 308.402 17.1768 308.164 17.1993C308.026 17.2119 307.879 17.2106 307.736 17.2219C307.373 17.2495 307.04 17.2507 306.75 17.1643C306.65 17.1342 306.508 17.1179 306.404 17.0891C306.283 17.0578 306.166 17.0402 306.023 17.0465C305.379 17.0765 304.738 17.1066 304.098 17.1392C304.042 17.1417 303.986 17.1605 303.938 17.1743C303.817 17.2094 303.856 17.2369 304.051 17.2595C304.115 17.267 304.167 17.2833 304.228 17.2958C304.345 17.3196 304.453 17.3572 304.583 17.366C304.712 17.3748 304.864 17.3572 305.007 17.3509C305.149 17.3447 305.301 17.3259 305.431 17.3334C305.56 17.3422 305.668 17.3785 305.789 17.4011C305.846 17.4123 305.915 17.4311 305.971 17.4299C306.257 17.4224 306.538 17.4086 306.823 17.3973C307.001 17.4311 307.152 17.48 307.364 17.4913C307.498 17.4988 307.641 17.485 307.779 17.4875C307.84 17.4888 307.918 17.5076 307.948 17.5239C307.965 17.5339 307.909 17.5589 307.866 17.5715C307.701 17.6191 307.477 17.6103 307.273 17.6253C307.053 17.6416 306.854 17.6366 306.685 17.5878C306.572 17.5552 306.447 17.5376 306.309 17.5439C305.949 17.5602 305.595 17.579 305.236 17.5928C305.175 17.5953 305.102 17.584 305.045 17.5752C304.591 17.4988 304.591 17.4963 304.271 17.5126C303.8 17.5364 303.8 17.5364 303.484 17.47C303.423 17.4574 303.358 17.4336 303.307 17.4349C302.805 17.4549 302.307 17.475 301.81 17.5038C301.646 17.5126 301.533 17.5126 301.412 17.48C301.308 17.4524 301.187 17.4211 301.057 17.4136C300.923 17.4061 300.776 17.4249 300.633 17.4311C300.491 17.4374 300.339 17.4537 300.214 17.4437C300.084 17.4336 299.971 17.3986 299.859 17.3735C299.742 17.3472 299.617 17.3484 299.457 17.3585C298.964 17.3873 298.959 17.3835 298.47 17.3058C298.414 17.2971 298.341 17.287 298.28 17.2896C297.921 17.3046 297.566 17.3234 297.207 17.3384C297.069 17.3447 296.935 17.3284 296.84 17.2921C296.801 17.277 296.814 17.252 296.788 17.2031C296.758 17.1918 296.792 17.2119 296.801 17.2307C296.866 17.2282 296.944 17.2307 296.991 17.2206C297.112 17.1968 297.173 17.1655 297.142 17.1392C297.125 17.1254 297.043 17.1079 296.991 17.1079C296.896 17.1079 296.814 17.1354 296.788 17.2031C296.515 17.2444 296.225 17.2532 295.944 17.2733C295.78 17.2858 295.676 17.2795 295.546 17.247C295.391 17.2069 295.231 17.168 294.975 17.1881C294.698 17.2106 294.404 17.2144 294.119 17.2319C293.79 17.252 293.647 17.1392 293.371 17.1417C293.085 17.1442 292.8 17.1655 292.514 17.1805C292.263 17.1931 292.263 17.1931 291.744 17.1116C291.554 17.0816 291.329 17.1254 291.143 17.0941C291.017 17.074 290.909 17.044 290.788 17.0227C290.736 17.0139 290.654 17.0139 290.589 17.0164C290.23 17.0314 289.867 17.0415 289.521 17.069C289.127 17.1016 288.829 17.0665 288.547 16.9926C288.193 17.0064 287.834 17.0139 287.483 17.0377C287.228 17.0552 287.081 17.0139 286.908 16.9801C286.847 16.9688 286.796 16.95 286.731 16.945C286.666 16.94 286.588 16.95 286.519 16.9538C286.233 16.9675 285.939 16.9738 285.662 16.9964C285.32 17.0252 285.191 16.9224 284.927 16.9099C284.749 16.9713 284.654 17.0552 284.304 17.0615C284.018 17.0665 283.733 17.0866 283.447 17.1004C283.305 17.1066 283.162 17.1141 283.019 17.1204C282.79 17.1317 282.682 17.1805 282.729 17.2557C282.755 17.2971 282.777 17.3384 282.799 17.3798C282.842 17.4537 282.734 17.5163 282.552 17.5251C282.05 17.5489 281.553 17.574 281.051 17.5953C280.917 17.6015 280.787 17.5802 280.679 17.5464C280.567 17.5126 280.441 17.4975 280.303 17.5038C279.801 17.5276 279.303 17.5527 278.802 17.574C278.745 17.5765 278.672 17.5639 278.616 17.5539C278.495 17.5314 278.378 17.5051 278.261 17.4813C277.976 17.4925 277.694 17.5 277.413 17.5151C276.959 17.5376 276.959 17.5389 276.626 17.47C276.565 17.4574 276.505 17.4336 276.449 17.4349C276.232 17.4399 276.02 17.4524 275.804 17.4637C275.168 17.4963 275.168 17.4963 274.982 17.4587C274.813 17.4236 274.662 17.381 274.407 17.4011C274.13 17.4236 273.836 17.4311 273.55 17.4437C273.338 17.4524 273.126 17.4625 272.914 17.465C272.858 17.4662 272.798 17.4424 272.737 17.4299C272.564 17.391 272.395 17.3597 272.157 17.381C272.019 17.3935 271.872 17.3961 271.729 17.4023C271.357 17.4199 271.357 17.4199 270.747 17.3447C270.687 17.3372 270.613 17.3284 270.553 17.3321C270.051 17.3547 269.553 17.3798 269.052 17.4011C268.991 17.4036 268.918 17.396 268.857 17.3898C268.174 17.3171 268.174 17.3171 267.447 17.3522C267.17 17.3647 267.161 17.3697 266.872 17.3033C266.742 17.2745 266.634 17.2607 266.482 17.2695C265.911 17.2996 265.336 17.3196 264.769 17.3547C264.514 17.3697 264.367 17.3321 264.194 17.2983C264.133 17.287 264.069 17.262 264.017 17.2632C263.446 17.2871 262.875 17.3159 262.304 17.3397C262.252 17.3422 262.187 17.3171 262.126 17.3058C262.009 17.2833 261.897 17.2495 261.767 17.2419C261.633 17.2344 261.486 17.2532 261.339 17.2595C260.98 17.2758 260.98 17.2745 260.565 17.2006C260.508 17.1906 260.435 17.1768 260.379 17.1793C259.808 17.2044 259.232 17.2257 258.666 17.262C258.341 17.282 258.121 17.2457 257.891 17.1931C257.844 17.1818 257.762 17.1768 257.701 17.1793C257.057 17.2081 256.416 17.2407 255.772 17.2695C255.638 17.2758 255.508 17.2545 255.4 17.2219C255.227 17.1705 255.024 17.1768 254.807 17.1881C254.31 17.2144 254.305 17.2131 254.011 17.153C253.951 17.1405 253.899 17.1242 253.834 17.1179C253.773 17.1116 253.696 17.1154 253.631 17.1179C253.345 17.1304 253.06 17.1442 252.774 17.158C252.489 17.1718 252.199 17.1793 251.918 17.2006C251.572 17.2269 251.407 17.1455 251.165 17.1079C250.81 17.1242 250.447 17.1342 250.097 17.1605C249.828 17.1805 249.703 17.1254 249.526 17.0966C249.465 17.0866 249.4 17.0653 249.344 17.0678C248.699 17.0953 248.055 17.1254 247.415 17.1592C247.259 17.1668 247.155 17.1567 247.025 17.1267C246.736 17.059 246.723 17.0615 246.238 17.0866C246.026 17.0979 245.823 17.1079 245.641 17.0565C245.481 17.0101 245.287 16.9989 245.057 17.0139C244.776 17.0327 244.486 17.0427 244.201 17.0553C243.915 17.069 243.63 17.0878 243.344 17.0941C243.115 17.1003 242.977 17.0415 242.795 17.0114C242.739 17.0026 242.661 17.0014 242.596 17.0039C242.31 17.0152 242.016 17.0239 241.74 17.0452C241.402 17.0715 241.216 17.0026 240.978 16.9625C240.926 16.9538 240.84 16.9588 240.775 16.9625C240.273 16.9851 239.776 17.0101 239.274 17.0339C239.096 17.0001 238.915 16.9675 238.737 16.9337C238.452 16.9462 238.166 16.96 237.881 16.9726C237.665 16.9826 237.444 16.9863 237.241 17.0051C236.977 17.0302 236.847 16.9713 236.67 16.9425C236.609 16.9325 236.544 16.9112 236.488 16.9137C236.129 16.9274 235.77 16.9425 235.415 16.9638C235.078 16.9851 234.944 16.8723 234.667 16.8736C234.382 16.8748 234.087 16.8911 233.811 16.9137C233.49 16.94 233.265 16.8999 233.036 16.846C232.989 16.8347 232.906 16.8285 232.846 16.831C232.487 16.846 232.132 16.8648 231.773 16.8798C231.713 16.8823 231.639 16.8761 231.579 16.8686C230.895 16.7946 230.895 16.7934 230.597 16.8084C230.385 16.8184 230.168 16.831 229.952 16.8372C229.892 16.8397 229.818 16.8285 229.762 16.8184C229.312 16.742 229.312 16.7408 228.987 16.7558C228.702 16.7696 228.416 16.7834 228.131 16.7971C227.954 16.7633 227.772 16.7307 227.595 16.6969C227.24 16.7132 226.876 16.7257 226.526 16.7483C226.362 16.7583 226.254 16.7545 226.128 16.7232C225.972 16.6856 225.817 16.6418 225.557 16.6631C225.28 16.6856 224.986 16.6881 224.705 16.7069C224.368 16.7295 224.229 16.6155 223.957 16.6167C223.671 16.618 223.377 16.6343 223.1 16.6568C222.78 16.6831 222.555 16.643 222.326 16.5892C222.278 16.5779 222.196 16.5716 222.136 16.5741C221.348 16.6105 220.565 16.6468 219.778 16.6856C219.294 16.7094 219.294 16.7107 218.372 16.6418C218.307 16.6368 218.238 16.6318 218.173 16.6343C217.888 16.6455 217.594 16.6543 217.317 16.6756C216.979 16.7019 216.793 16.6343 216.555 16.5929C216.504 16.5841 216.421 16.5891 216.352 16.5916C216.136 16.6004 215.924 16.6117 215.708 16.6217C215.422 16.6355 215.137 16.6493 214.851 16.6631C214.674 16.6305 214.492 16.5967 214.315 16.5641C213.96 16.5804 213.597 16.5892 213.246 16.6155C212.978 16.6355 212.853 16.5829 212.675 16.5528C212.615 16.5428 212.55 16.5215 212.494 16.5227C211.849 16.5503 211.205 16.5791 210.564 16.6142C210.301 16.6292 210.179 16.5729 210.002 16.544C209.942 16.5353 209.872 16.519 209.816 16.5215C209.388 16.539 208.96 16.5603 208.531 16.5816C208.289 16.5942 208.289 16.5942 207.761 16.5165C207.701 16.5077 207.632 16.4989 207.571 16.5014C206.213 16.5641 204.859 16.6305 203.501 16.6931C203.362 16.6994 203.237 16.6806 203.129 16.6468C203.016 16.613 202.891 16.5954 202.752 16.6017C202.181 16.628 201.606 16.6518 201.039 16.6844C200.806 16.6982 200.62 16.6819 200.46 16.638C200.339 16.6054 200.226 16.5929 200.075 16.6004C199.789 16.6155 199.504 16.628 199.218 16.6418C198.933 16.6556 198.647 16.6693 198.362 16.6831C198.076 16.6969 197.786 16.7044 197.505 16.7257C197.159 16.752 196.991 16.6744 196.753 16.6355C196.324 16.6543 195.896 16.6731 195.472 16.6931C194.901 16.7195 194.33 16.7483 193.759 16.7733C193.707 16.7758 193.642 16.7533 193.582 16.742C193.405 16.7107 193.275 16.6668 193.011 16.6806C191.73 16.747 190.441 16.8034 189.157 16.8686C188.889 16.8823 188.772 16.8285 188.59 16.7996C188.53 16.7909 188.46 16.7733 188.404 16.7758C187.69 16.8072 186.977 16.8422 186.263 16.8761C185.973 16.8899 185.973 16.8899 185.489 16.8122C185.432 16.8034 185.359 16.7921 185.298 16.7946C184.368 16.8372 183.443 16.8823 182.513 16.9262C182.374 16.9325 182.249 16.9149 182.136 16.8811C182.028 16.8473 181.898 16.8285 181.764 16.8347C180.908 16.8748 180.047 16.9137 179.195 16.9575C178.965 16.97 178.775 16.9588 178.611 16.9137C178.494 16.8811 178.377 16.8673 178.23 16.8748C176.945 16.9362 175.661 16.9951 174.376 17.0603C174.129 17.0728 173.956 17.049 173.801 17.0076C173.675 16.9751 173.567 16.9688 173.411 16.9738C173.247 16.9801 173.148 16.9938 173.057 17.0314C172.94 17.0803 172.866 17.1417 172.589 17.1455C172.304 17.1492 172.014 17.1643 171.733 17.1856C171.465 17.2069 171.339 17.1505 171.171 17.1166C171.045 17.0928 170.928 17.0891 170.768 17.1004C170.621 17.1104 170.53 17.1317 170.444 17.1718C170.254 17.257 170.236 17.257 170.003 17.2031C169.877 17.1743 169.765 17.1517 169.626 17.1567C169.055 17.1818 168.484 17.2094 167.913 17.2382C167.585 17.2545 167.58 17.257 167.334 17.1943C167.213 17.163 167.096 17.148 166.953 17.1555C165.383 17.2307 163.813 17.3033 162.243 17.3823C162 17.3948 161.836 17.3685 161.663 17.3309C161.607 17.3184 161.55 17.3008 161.486 17.2958C161.421 17.2908 161.347 17.2958 161.278 17.2983C160.136 17.3522 158.99 17.4036 157.852 17.4637C157.592 17.4775 157.454 17.4374 157.277 17.4048C157.216 17.3936 157.164 17.376 157.099 17.371C157.034 17.3672 156.957 17.376 156.887 17.3798C155.745 17.4336 154.599 17.485 153.461 17.5452C153.189 17.5589 153.072 17.5063 152.895 17.4787C152.834 17.4687 152.769 17.4499 152.713 17.4524C152.354 17.4662 151.999 17.485 151.64 17.5013C150.784 17.5426 149.927 17.5815 149.071 17.6241C148.742 17.6404 148.599 17.5289 148.322 17.5339C147.963 17.5401 147.609 17.5652 147.25 17.5827C146.964 17.5965 146.679 17.6091 146.393 17.6241C146.112 17.6379 146.112 17.6379 145.411 17.5652C145.351 17.5589 145.277 17.5502 145.217 17.5527C144.217 17.599 143.214 17.6454 142.219 17.6955C141.99 17.7068 141.799 17.7005 141.635 17.6542C141.518 17.6216 141.397 17.6053 141.254 17.6128C139.753 17.6842 138.257 17.7557 136.756 17.8258C136.699 17.8283 136.626 17.8158 136.57 17.8058C136.449 17.7832 136.332 17.7569 136.215 17.7331C136.128 17.7619 136.016 17.7882 135.96 17.8208C135.882 17.8647 135.778 17.8772 135.614 17.8847C135.449 17.8922 135.346 17.8897 135.216 17.8571C135.06 17.817 134.9 17.7857 134.645 17.7982C133.075 17.8772 131.504 17.9486 129.934 18.0263C129.675 18.0388 129.554 17.9837 129.372 17.9549C129.311 17.9461 129.242 17.9323 129.186 17.9348C128.541 17.9636 127.901 17.995 127.257 18.025C125.47 18.1102 123.684 18.1917 121.901 18.2819C121.577 18.2982 121.356 18.2669 121.127 18.213C121.08 18.2017 120.997 18.1954 120.937 18.1979C118.437 18.3157 115.936 18.4347 113.44 18.5538C113.306 18.56 113.177 18.54 113.068 18.5074C112.956 18.4736 112.831 18.4573 112.692 18.4636C111.55 18.5174 110.408 18.5713 109.266 18.6265C108.981 18.6402 108.976 18.6415 108.682 18.5813C108.622 18.5688 108.557 18.545 108.509 18.5475C108.41 18.5538 108.315 18.5851 108.245 18.6277C108.176 18.6728 108.068 18.6853 107.908 18.6941C107.744 18.7029 107.635 18.6991 107.51 18.6691C107.35 18.6315 107.203 18.5951 106.943 18.6077C103.66 18.768 100.377 18.9221 97.0937 19.0813C96.8299 19.0938 96.7087 19.0412 96.527 19.0124C96.4665 19.0036 96.406 18.9911 96.3411 18.9885C96.2719 18.986 96.1983 18.9936 96.1291 18.9973C90.7739 19.2517 85.4188 19.5073 80.0637 19.7616C79.7436 19.7767 79.7479 19.7767 79.3975 19.8919C79.3542 19.9057 79.298 19.9245 79.2374 19.927C77.598 20.0072 75.9543 20.0849 74.3105 20.1626C73.5968 20.1964 72.8831 20.2315 72.1693 20.2641C71.9141 20.2753 71.9141 20.2753 71.3042 20.4107C71.2523 20.4219 71.1917 20.437 71.1311 20.4395C68.2762 20.576 65.4212 20.7126 62.562 20.8467C62.337 20.8567 62.1554 20.8793 62.0516 20.9394C61.978 20.982 61.8829 21.0071 61.7401 21.0146C59.7417 21.1098 57.7433 21.2063 55.7405 21.299C55.5026 21.3103 55.3598 21.3454 55.243 21.398C55.204 21.4155 55.1694 21.4356 55.1132 21.4481C55.0613 21.4594 54.9834 21.4631 54.9186 21.4669C53.2056 21.5483 51.4927 21.6323 49.7754 21.71C49.5202 21.7213 49.4163 21.7676 49.2909 21.8165C49.2476 21.8328 49.2173 21.8553 49.1611 21.8666C49.1048 21.8766 49.0227 21.8766 48.9535 21.8791C47.526 21.9468 46.0986 22.0157 44.6711 22.0834C44.3942 22.0771 44.3337 22.1498 44.1996 22.1936C44.152 22.2086 44.1174 22.2287 44.0612 22.2387C44.0007 22.2487 43.9227 22.2475 43.8492 22.25C42.7072 22.3039 41.5652 22.3615 40.4189 22.4116C40.1551 22.4229 40.1031 22.4868 39.9604 22.5306C39.9128 22.5444 39.8653 22.5657 39.8091 22.5695C39.0953 22.6058 38.3816 22.6397 37.6679 22.6722C37.43 22.6835 37.43 22.6823 37.0104 22.8063C36.9628 22.8201 36.9065 22.8351 36.8459 22.8389C35.7775 22.8915 34.7048 22.9416 33.632 22.993C33.4936 22.9993 33.3984 23.0293 33.3292 23.0719C33.26 23.1145 33.1605 23.1421 33.0221 23.1484C32.1656 23.1897 31.3091 23.2323 30.4526 23.2699C30.2147 23.2799 30.059 23.3112 29.9552 23.3676C29.8773 23.4102 29.7822 23.4315 29.6308 23.439C28.7743 23.4791 27.9178 23.523 27.057 23.5581C26.8061 23.5681 26.6763 23.6107 26.5725 23.6633C26.4903 23.7059 26.3951 23.721 26.2351 23.7285C24.6649 23.8011 23.0904 23.8738 21.5245 23.954C21.2606 23.9678 21.1265 23.9239 20.9535 23.8926C20.7069 23.8488 20.4777 23.8011 20.4777 23.7034C20.4777 23.6884 20.4042 23.6708 20.3522 23.6583C19.9673 23.5643 19.9673 23.5643 19.9067 23.4641C19.8721 23.4027 19.8332 23.3401 19.8029 23.2774C19.7466 23.1747 19.6082 23.1484 19.2102 23.1672C19.0675 23.1734 18.9247 23.1822 18.782 23.1872C18.57 23.196 18.41 23.1546 18.3711 23.0794C18.3494 23.0381 18.3235 22.9967 18.3019 22.9554C18.5182 22.9454 18.5138 22.9441 18.8944 22.7925C19.0545 22.7286 19.0546 22.7286 18.7474 22.6647C18.6307 22.6409 18.5182 22.6146 18.3927 22.592C18.3365 22.582 18.263 22.5758 18.2024 22.5783C17.8434 22.5933 17.4887 22.6108 17.134 22.6284C16.563 22.6559 16.5629 22.6559 15.9833 22.5281C15.9357 22.5181 15.8622 22.4993 15.8708 22.4893C15.9184 22.4429 16.0352 22.4229 16.1823 22.4179C16.3985 22.4104 16.6105 22.3978 16.8224 22.3878C16.9652 22.3815 17.1079 22.374 17.2507 22.3678C17.3848 22.3202 17.5233 22.2738 17.6487 22.2249C17.8477 22.1498 17.8476 22.1472 17.5751 22.0946C17.4021 22.0595 17.2161 22.0282 17.0387 21.9956C16.8268 22.0057 16.6105 22.0169 16.3985 22.0257C16.1303 22.037 16.0222 22.0132 15.953 21.9317C15.8924 21.8603 15.966 21.7989 16.1736 21.7839C16.3856 21.7689 16.5846 21.7588 16.6928 21.6949C16.7966 21.6335 16.9782 21.6097 17.2032 21.6047C17.3459 21.601 17.4886 21.5922 17.6314 21.5847C17.8174 21.5747 17.9169 21.5107 17.878 21.4393C17.8564 21.393 17.8131 21.3541 17.6444 21.3441C16.896 21.3003 16.8873 21.3015 16.5153 21.2163C16.4807 21.2088 16.4548 21.1862 16.4678 21.175C16.4894 21.1562 16.537 21.1286 16.5889 21.1248C17.0864 21.0973 17.5838 21.0722 18.0813 21.0534C18.2457 21.0472 18.3668 21.0384 18.423 20.992C18.5009 20.9281 18.4663 20.8692 18.3149 20.8254C18.2673 20.8116 18.1894 20.7941 18.1375 20.7953C17.5665 20.8179 16.9998 20.8467 16.4288 20.8692C16.3769 20.8717 16.2818 20.8504 16.2602 20.8342C16.2169 20.8041 16.2818 20.764 16.4332 20.7502C16.6322 20.7314 16.8355 20.7302 16.9696 20.6675C17.1556 20.5785 17.3848 20.4971 17.5924 20.4119C17.627 20.3969 17.6833 20.368 17.6704 20.3655C17.5622 20.338 17.4368 20.3167 17.3243 20.2904C17.134 20.2465 17.1339 20.1851 17.1772 20.1262C17.2118 20.0786 17.3416 20.0598 17.5016 20.0598C17.5708 20.0598 17.6573 20.0598 17.7136 20.0486C17.8606 20.021 17.9082 19.9859 17.8347 19.9596C17.7914 19.9446 17.7136 19.9233 17.6617 19.9258C16.736 19.9671 15.8059 20.0072 14.8846 20.0586C14.612 20.0736 14.4867 20.026 14.3223 19.9922C14.1969 19.9659 14.08 19.9558 13.9243 19.9746C13.7772 19.9922 13.6345 19.9822 13.5437 19.9408C13.4701 19.907 13.5999 19.8782 13.9503 19.8456C14.0151 19.8393 14.0886 19.8355 14.1362 19.823C14.638 19.6877 14.638 19.6864 14.984 19.6689C15.3214 19.6526 15.3215 19.6514 15.4989 19.5787C15.5811 19.5449 15.6718 19.511 15.7497 19.4759C15.78 19.4622 15.8319 19.4371 15.8146 19.4296C15.7195 19.3907 15.5897 19.382 15.4383 19.3908C15.1009 19.4121 14.7029 19.3945 14.5256 19.5135C14.4564 19.5586 14.3482 19.5712 14.1925 19.5787C12.6266 19.6514 11.0607 19.7291 9.49047 19.7992C9.23526 19.8105 9.11853 19.8569 9.01904 19.9082C8.93253 19.9508 8.83734 19.9634 8.67297 19.9709C8.50859 19.9784 8.37876 19.9822 8.2836 19.9408C8.22736 19.9157 8.27496 19.8807 8.40473 19.8456C8.59073 19.7955 8.55611 19.7328 8.49555 19.6739C8.45229 19.6351 8.3182 19.6075 8.17545 19.61C7.9635 19.615 7.76025 19.6288 7.58289 19.5787C7.47908 19.5499 7.34928 19.5298 7.23249 19.5048C7.00756 19.4534 6.78261 19.4008 6.46684 19.4346C6.25056 19.4221 6.09916 19.377 5.92613 19.3419C5.63631 19.2843 5.61036 19.2755 5.81799 19.2141C6.05158 19.1452 5.86986 19.055 5.99963 18.9873C6.13806 18.9146 6.32845 18.8507 6.49715 18.7831C6.54041 18.7655 6.57935 18.7492 6.62261 18.7317C6.52312 18.7066 6.4323 18.6753 6.3155 18.6578C6.16411 18.6352 6.08624 18.6077 6.09489 18.53C6.06461 18.5187 6.0775 18.5475 6.11211 18.555C6.15104 18.5625 6.24627 18.5563 6.29386 18.5475C6.41497 18.5237 6.47547 18.4924 6.44519 18.4661C6.42789 18.4523 6.34576 18.4348 6.29386 18.4348C6.19869 18.4348 6.11652 18.4623 6.09056 18.53C5.60609 18.5814 5.10423 18.6064 4.60246 18.6265C4.55055 18.629 4.4857 18.6039 4.42514 18.5914C4.22616 18.5488 4.22614 18.55 3.64217 18.5375C3.58161 18.5362 3.49947 18.5187 3.46919 18.5012C3.34374 18.4247 3.3481 18.3408 3.28754 18.2593C3.40001 18.2067 3.51239 18.1553 3.62918 18.104C3.86277 18 4.16563 17.9085 4.34731 17.7945C4.30838 17.7331 4.25646 17.6717 4.44679 17.6216C4.9875 17.5589 4.98321 17.5589 5.13028 17.4988C5.54987 17.3284 5.96511 17.1567 6.402 16.9888C6.51879 16.945 6.51881 16.9212 6.31117 16.9024C6.24629 16.8974 6.17699 16.8961 6.10778 16.8986C5.89149 16.9074 5.67521 16.93 5.46326 16.9249C5.2513 16.9212 5.09558 16.8661 4.92255 16.8322C4.7452 16.7971 4.56785 16.7608 4.3905 16.7245C4.1872 16.7282 3.98393 16.7633 3.78062 16.7069C3.6249 16.6631 3.43026 16.6317 3.2529 16.5954C3.387 16.5002 3.63793 16.4275 3.83258 16.3436C4.00993 16.2671 4.01416 16.2684 4.48998 16.2095C4.71492 16.1819 4.79278 16.0404 4.60246 15.999C4.3732 15.9489 4.13101 15.9025 3.89742 15.8549C3.69412 15.8587 3.48653 15.8925 3.29187 15.8361C3.14048 15.7935 2.96741 15.7647 2.71653 15.781C2.29261 15.8086 1.86006 15.8223 1.43182 15.8449C1.28475 15.8524 1.12465 15.8474 1.05977 15.8048C1.01651 15.7747 1.14196 15.7334 1.28471 15.7246C1.50099 15.7121 1.69562 15.6971 1.80377 15.6344C1.90758 15.5718 2.09789 15.553 2.32282 15.5442C2.38338 15.5417 2.45264 15.5266 2.48292 15.5116C2.63865 15.4389 2.81169 15.3763 3.14476 15.3788C3.28318 15.3537 3.35667 15.3224 3.31342 15.2923C3.28746 15.276 3.19667 15.2548 3.14476 15.2573C2.78573 15.2698 2.42672 15.2823 2.07634 15.3049C1.91196 15.3149 1.78645 15.3174 1.68263 15.2798C1.6091 15.2548 1.64803 15.2209 1.78645 15.1846C1.90756 15.1533 1.94221 15.1169 1.93356 15.0743C1.91193 14.9753 1.78213 14.9465 1.36687 14.9528C1.0684 14.9578 0.994859 14.9415 0.929974 14.8563C0.912672 14.8363 0.869491 14.8087 0.899771 14.7949C1.08577 14.7097 1.2069 14.6045 1.55728 14.5644C1.6957 14.5493 1.84271 14.5493 1.92923 14.5168C2.01574 14.4842 2.09364 14.4466 2.18448 14.4153C2.29695 14.3777 2.37473 14.3426 2.32282 14.3188C2.23631 14.2762 2.09794 14.2724 1.93789 14.2875C1.79947 14.3 1.6524 14.3013 1.50965 14.3088C1.25444 14.3226 1.04685 14.29 1.01657 14.2349C0.934385 14.0895 0.847846 13.9454 0.77431 13.8001C0.765659 13.7825 0.787228 13.76 0.821833 13.7449C0.942952 13.6923 1.07277 13.6422 1.19822 13.5908C1.34529 13.5319 1.57891 13.5432 1.77789 13.5319C2.05906 13.5157 2.05896 13.5169 2.4353 13.3966C2.58237 13.349 2.83759 13.3678 2.98899 13.3252C3.03657 13.3114 3.11011 13.2889 3.09713 13.2763C3.07983 13.2601 2.99336 13.2475 2.92848 13.24C2.86792 13.2325 2.7944 13.2287 2.72952 13.2325C1.94225 13.2688 1.15932 13.3077 0.372053 13.3428C0.237958 13.349 0.0908811 13.3215 0.0432988 13.2826C-0.00428342 13.2463 0.00865132 13.2024 0 13.1611C0.125444 13.1097 0.268136 13.0621 0.376277 13.007C0.458465 12.9644 0.553646 12.9456 0.718021 12.9431C0.934304 12.9393 1.14628 12.9243 1.38852 12.913C1.83839 12.7301 2.27958 12.5384 2.76405 12.3554C2.9587 12.2815 2.9112 12.2063 2.95013 12.1274C2.98906 12.0547 3.27886 12.066 3.47352 12.0447C3.62924 12.0272 3.68108 11.9871 3.62052 11.9595C3.58592 11.9432 3.5081 11.9244 3.44754 11.9244C3.30479 11.9244 3.16205 11.9357 3.0193 11.9419C2.87655 11.9482 2.71219 11.9445 2.5954 11.9658C2.48293 11.9858 2.40935 12.0284 2.33581 12.0647C2.25363 12.1048 2.14556 12.1186 1.98119 12.1211C1.76923 12.1236 1.55728 12.1349 1.34533 12.1437C1.11174 12.0948 0.869453 12.0472 0.644519 11.9958C0.601262 11.9858 0.592565 11.957 0.59689 11.9382C0.605542 11.8893 0.540674 11.8593 0.397927 11.8354C0.276808 11.8154 0.17731 11.7866 0.0648426 11.7615C0.151356 11.7277 0.246554 11.6951 0.315765 11.6588C0.467163 11.5823 0.657513 11.5272 0.986263 11.5297C1.11603 11.4809 1.21982 11.4207 1.38852 11.3869C1.54857 11.3543 1.8211 11.3869 1.94222 11.313C2.00278 11.2766 2.09367 11.2353 2.21046 11.2202C2.39646 11.1964 2.63869 11.209 2.74684 11.1388C2.81172 11.0987 2.90685 11.0624 3.03229 11.0523C3.17504 11.0411 3.32207 11.0386 3.42589 11.0148C3.48212 11.0022 3.54269 10.9822 3.54269 10.9646C3.54269 10.9534 3.45624 10.9358 3.39568 10.9283C3.33945 10.9195 3.26583 10.9133 3.20095 10.9158C2.98466 10.9233 2.77271 10.9371 2.55643 10.9446C2.49587 10.9471 2.42668 10.9383 2.36179 10.9308C2.17146 10.9108 2.18442 10.8857 2.33581 10.8406C2.48721 10.7968 2.59541 10.7404 2.72086 10.689C2.85928 10.6802 3.03228 10.684 3.12744 10.6602C3.28749 10.6213 3.39993 10.5649 3.5297 10.5161C3.67245 10.5086 3.81951 10.5061 3.95361 10.4923C4.00984 10.4873 4.03581 10.4597 4.0834 10.4434C4.16991 10.4121 4.24351 10.367 4.3603 10.352C4.55063 10.3294 4.78421 10.3382 4.89668 10.2693C4.96156 10.2292 5.06101 10.1866 5.18213 10.1841C5.51953 10.179 5.66228 10.1101 5.83531 10.045C5.96508 9.99611 6.24193 10.0212 6.38468 9.9723C6.47984 9.94098 6.54909 9.90213 6.64426 9.87206C6.68319 9.85953 6.76535 9.85328 6.83023 9.84952C7.18494 9.83072 7.54395 9.81694 7.89866 9.79689C7.95489 9.79313 8.00684 9.77434 8.0501 9.75931C8.14094 9.72673 8.19711 9.68162 8.30957 9.66032C8.42204 9.63902 8.58207 9.63902 8.72049 9.63276C9.16603 9.61397 9.20067 9.61897 9.40398 9.51247C9.56835 9.42601 9.97069 9.48741 10.1048 9.39219C10.1826 9.33706 10.3253 9.29195 10.5805 9.28569C10.9396 9.27692 11.2943 9.25311 11.6533 9.23682C11.9734 9.22179 11.9691 9.22178 12.3151 9.10526C12.4709 9.05263 12.7002 9.06016 12.9035 9.05013C13.1198 9.04011 13.3187 9.02508 13.4225 8.96243C13.5263 8.90104 13.7167 8.88098 13.9373 8.87221C14.1406 8.86344 14.3699 8.86971 14.5299 8.81959C14.9192 8.69931 14.9149 8.69805 15.1874 8.68552C15.6157 8.66547 16.0439 8.64543 16.4721 8.62413C16.7576 8.61034 17.0561 8.60784 17.3243 8.58028C17.5189 8.56023 17.6054 8.49006 17.7309 8.4412C18.0856 8.42241 18.4403 8.4036 18.795 8.38606C19.2924 8.361 19.7942 8.33846 20.296 8.31465C20.5122 8.26704 20.5426 8.16179 20.9059 8.15678C21.1222 8.15427 21.3342 8.13799 21.5505 8.12796C21.9095 8.11042 22.2642 8.08786 22.6232 8.07909C22.8957 8.07283 22.9432 8.00516 23.086 7.96256C23.1336 7.94753 23.1769 7.92623 23.2331 7.92248C23.7954 7.88739 24.375 7.87988 24.9244 7.8285C24.9806 7.82349 25.0325 7.79718 25.0455 7.77838C25.0542 7.76836 24.9806 7.74957 24.9331 7.7408C24.8768 7.73078 24.8033 7.72076 24.7428 7.72326C22.9563 7.80721 21.1698 7.89241 19.3833 7.97636C19.1324 7.98889 19.1324 7.98763 18.5225 8.12545C18.4706 8.13673 18.41 8.14926 18.3451 8.15301C18.0596 8.16805 17.7698 8.17683 17.4886 8.19563C17.2594 8.21066 17.0691 8.19561 16.9047 8.15051C16.7879 8.11793 16.6667 8.10791 16.5197 8.11042C16.3553 8.11418 16.2472 8.12796 16.1521 8.16179C16.0266 8.20815 15.9617 8.26829 15.6978 8.28082C14.4823 8.33469 13.2667 8.39484 12.0556 8.45247C11.8869 8.43493 11.8047 8.40862 11.8479 8.3773C11.8739 8.3585 11.9258 8.33345 11.9777 8.33094C12.4752 8.30463 12.9769 8.28208 13.4744 8.25702C13.5436 8.25326 13.6387 8.25575 13.6777 8.24322C13.868 8.18684 13.9373 8.09538 14.2963 8.08911C14.504 8.08535 14.7159 8.06657 14.9149 8.04902C14.9711 8.04401 15.023 8.0177 15.036 7.9989C15.0403 7.98888 14.9711 7.97008 14.9192 7.96131C14.7289 7.92497 14.5083 7.96884 14.318 7.94378C14.2531 7.93501 14.1622 7.92248 14.1492 7.90744C14.1406 7.89366 14.2141 7.8711 14.266 7.85732C14.3136 7.84479 14.3784 7.83352 14.4433 7.82976C15.0143 7.80094 15.5854 7.77087 16.1564 7.74831C16.39 7.73954 16.5543 7.70822 16.6581 7.65058C16.736 7.60798 16.8311 7.58543 16.9782 7.57917C17.9774 7.53281 18.9766 7.48144 19.9802 7.43884C20.2311 7.42881 20.3609 7.38747 20.4647 7.33359C20.5469 7.29099 20.6421 7.27596 20.8021 7.26844C22.2339 7.20328 23.657 7.13062 25.0888 7.06797C25.3527 7.05669 25.4306 7.00281 25.5647 6.95645C25.6123 6.94017 25.6425 6.92012 25.703 6.9101C25.7636 6.90007 25.8414 6.90131 25.915 6.89881C27.057 6.84493 28.199 6.78731 29.3453 6.73719C29.6135 6.72591 29.6653 6.66326 29.8038 6.6194C29.8513 6.60562 29.8946 6.58307 29.9509 6.57931C30.8073 6.53671 31.6638 6.49662 32.5203 6.45527C33.0913 6.42771 33.6622 6.40014 34.2332 6.37383C34.5144 6.3613 34.5144 6.36004 34.8951 6.24101C34.9383 6.22723 34.9989 6.21093 35.0552 6.20718C36.6989 6.12699 38.3383 6.05057 39.982 5.97164C40.1205 5.96537 40.2199 5.93654 40.2891 5.89394C40.3584 5.85134 40.4579 5.82252 40.592 5.81626C41.8767 5.75361 43.1614 5.69222 44.4505 5.63333C44.6841 5.62331 44.8484 5.59323 44.9522 5.53685C45.0301 5.49425 45.1252 5.4717 45.2723 5.46544C46.557 5.4053 47.8418 5.34139 49.1309 5.28375C49.3774 5.27247 49.4985 5.22988 49.6196 5.17976C49.6629 5.16222 49.6975 5.1334 49.7494 5.13089C50.3896 5.09581 51.0255 5.05947 51.67 5.03567C51.9382 5.02564 52.029 4.97302 52.1372 4.9229C52.2237 4.8828 52.3232 4.86903 52.4876 4.86401C52.8466 4.85274 53.2013 4.83145 53.5517 4.81015C53.6036 4.80639 53.6685 4.77882 53.6728 4.76128C53.6815 4.7287 53.5819 4.70614 53.4176 4.69487C51.7046 4.77631 49.9874 4.85775 48.2744 4.93919C47.9932 4.95297 47.9932 4.95298 47.6126 5.07201C47.5693 5.08579 47.5087 5.10208 47.4481 5.10584C45.8044 5.18478 44.165 5.26246 42.5213 5.3414C42.3828 5.34766 42.2834 5.37648 42.2141 5.41908C42.1449 5.46168 42.0454 5.4905 41.9113 5.49676C40.3411 5.57194 38.7709 5.64837 37.1963 5.71979C36.9628 5.72981 36.7984 5.75862 36.6946 5.81626C36.6167 5.85886 36.5216 5.88142 36.3745 5.88768C34.8735 5.95785 33.3768 6.03176 31.8714 6.09942C31.72 6.10569 31.6076 6.06935 31.6163 6.03552C31.6206 6.01798 31.6854 5.98918 31.7373 5.98667C32.5203 5.94532 33.2989 5.90272 34.0862 5.87139C34.3501 5.86137 34.4279 5.80624 34.562 5.75988C34.6052 5.74359 34.6399 5.72229 34.6961 5.71352C34.7567 5.7035 34.8345 5.70475 34.9081 5.70225C36.7638 5.61329 38.6195 5.52308 40.4796 5.43913C40.7477 5.4266 40.7996 5.3652 40.938 5.32134C40.9856 5.30631 41.0289 5.28376 41.0851 5.28126C41.6561 5.25119 42.2271 5.22487 42.798 5.19856C43.7973 5.15095 44.7965 5.10333 45.8 5.05572C46.0898 5.04194 46.0899 5.04193 46.4619 4.92415C46.5051 4.91037 46.5657 4.89284 46.622 4.89034C49.2649 4.76379 51.908 4.63724 54.5509 4.51194C54.6894 4.50568 54.7888 4.47686 54.858 4.43426C54.9272 4.39291 55.0267 4.36284 55.1608 4.35532C58.7338 4.18492 62.3025 4.01451 65.8755 3.84662C66.1091 3.83534 66.2734 3.80903 66.3772 3.75014C66.4508 3.70754 66.5502 3.68499 66.6973 3.67747C70.625 3.49078 74.5527 3.30409 78.4847 3.11615C81.1277 2.99086 83.7707 2.86305 86.4137 2.74027C86.6559 2.72899 86.7857 2.69014 86.9068 2.63877C86.9457 2.62123 86.9847 2.59241 87.0366 2.5899C87.6032 2.55858 88.1699 2.52976 88.7365 2.50095C88.9139 2.53478 89.0912 2.56736 89.2686 2.60119C89.4027 2.55358 89.5325 2.50471 89.6666 2.4571C90.5231 2.42076 91.3666 2.36438 92.2317 2.34684C92.2879 2.34558 92.3484 2.36939 92.409 2.38192C92.8113 2.46086 93.0406 2.45459 93.2958 2.34934C93.3866 2.31176 93.4645 2.27793 93.6029 2.27166C94.0311 2.24911 94.4638 2.23407 94.8877 2.20776C95.117 2.19398 95.3072 2.2065 95.4716 2.25161C95.5884 2.28419 95.7096 2.29798 95.8523 2.29046C96.6396 2.25287 97.4225 2.21653 98.2098 2.17644C98.266 2.17393 98.3179 2.15262 98.3611 2.13759C98.452 2.10501 98.5299 2.06994 98.6164 2.03611C98.7332 2.05741 98.863 2.0737 98.9581 2.10126C99.0792 2.13384 99.1917 2.13383 99.356 2.12506C102.496 1.97345 105.641 1.82561 108.782 1.67275C109.05 1.66022 109.167 1.71285 109.348 1.74041C109.409 1.75043 109.469 1.76296 109.534 1.76546C109.604 1.76797 109.677 1.76046 109.746 1.7567C112.104 1.64393 114.461 1.53241 116.819 1.41965C117.13 1.40461 117.13 1.40461 117.593 1.4823C117.649 1.49232 117.723 1.5036 117.783 1.49984C118.856 1.45097 119.929 1.39835 120.997 1.34824C121.136 1.34197 121.253 1.36201 121.378 1.39083C121.625 1.44722 121.642 1.44722 121.823 1.36453C121.91 1.32568 122.001 1.30187 122.144 1.29059C122.299 1.27806 122.425 1.28183 122.546 1.30439C122.719 1.33571 122.844 1.38833 123.108 1.37454C124.25 1.31565 125.397 1.26679 126.534 1.20665C126.794 1.19287 126.932 1.23547 127.105 1.26679C127.166 1.27807 127.222 1.29561 127.287 1.29937C127.352 1.30313 127.43 1.29435 127.499 1.29059C128.926 1.22293 130.358 1.15654 131.781 1.08387C132.049 1.07008 132.166 1.12395 132.348 1.15151C132.408 1.16154 132.478 1.17909 132.534 1.17658C133.39 1.13774 134.251 1.09638 135.108 1.05503C135.415 1.04 135.415 1.04125 135.882 1.11768C135.938 1.12771 136.012 1.13773 136.072 1.13523C137.072 1.08887 138.075 1.04125 139.074 0.993641C139.381 0.978605 139.381 0.978608 140.268 1.04376C140.333 1.04877 140.402 1.0563 140.467 1.0538C141.609 0.999918 142.755 0.947287 143.897 0.889651C144.127 0.878375 144.317 0.888395 144.481 0.933502C144.598 0.966078 144.719 0.979868 144.862 0.97235C146.147 0.910956 147.436 0.852069 148.716 0.786916C148.963 0.774386 149.123 0.80194 149.296 0.838276C149.352 0.850805 149.408 0.86835 149.473 0.873362C149.538 0.878374 149.612 0.873359 149.681 0.8696C150.966 0.808205 152.255 0.750572 153.535 0.684165C153.794 0.670383 153.933 0.712981 154.106 0.744304C154.167 0.755581 154.231 0.778135 154.283 0.776882C154.785 0.755582 155.287 0.736795 155.784 0.705471C156.052 0.68793 156.169 0.745555 156.351 0.77312C156.411 0.781891 156.481 0.800694 156.537 0.798188C157.61 0.749323 158.683 0.697956 159.751 0.645332C159.902 0.637814 160.015 0.64908 160.136 0.681657C160.296 0.72551 160.482 0.743052 160.716 0.72927C161.213 0.700452 161.715 0.68041 162.217 0.656604C162.511 0.642821 162.511 0.642826 163.41 0.707979C163.475 0.712991 163.545 0.720503 163.609 0.717997C164.466 0.677903 165.327 0.639064 166.179 0.59521C166.408 0.582681 166.598 0.593954 166.763 0.639061C166.88 0.671637 166.996 0.685427 167.143 0.67791C167.931 0.640321 168.714 0.602729 169.501 0.565141C169.786 0.551358 170.072 0.527546 170.357 0.527546C170.565 0.528799 170.717 0.588938 170.903 0.619009C170.954 0.62778 171.041 0.617768 171.11 0.615262C172.109 0.56765 173.113 0.523792 174.108 0.469915C174.367 0.456133 174.506 0.498731 174.679 0.530054C174.739 0.541331 174.804 0.563885 174.856 0.562632C175.215 0.54885 175.57 0.530054 175.929 0.513765C176.357 0.493718 176.79 0.478683 177.214 0.451118C177.56 0.428565 177.689 0.537568 177.966 0.541327C178.178 0.545086 178.394 0.523789 178.606 0.513765C179.035 0.493718 179.463 0.471167 179.891 0.453626C180.043 0.447361 180.159 0.427306 180.207 0.382199C180.216 0.373429 180.142 0.354642 180.095 0.343366C179.519 0.215564 179.519 0.215558 178.94 0.243123C178.58 0.260665 178.226 0.278209 177.867 0.293244C177.806 0.29575 177.737 0.285727 177.676 0.27821C177.503 0.256909 177.521 0.231853 177.668 0.186747C177.815 0.14164 177.927 0.0865152 178.053 0.0351442C178.23 0.0677209 178.403 0.100286 178.581 0.132863C178.723 0.126598 178.866 0.119091 179.009 0.112827C179.723 0.0802499 180.436 0.0464177 181.15 0.0163468C181.202 0.0138409 181.267 0.0389036 181.327 0.0514332C181.5 0.0877688 181.656 0.119084 181.907 0.105302C182.547 0.0689659 183.192 0.0426539 183.832 0.0113301C184.113 -0.00245238 184.113 -0.00245115 184.606 0.0752319C184.662 0.0840026 184.736 0.0940268 184.796 0.0915209C185.441 0.062703 186.081 0.0313829 186.726 0.00131198C186.864 -0.00495278 186.998 0.011335 187.098 0.0476706C187.137 0.0627061 187.128 0.0877602 187.292 0.293244C187.803 0.459887 188.153 0.442354 188.508 0.427319C188.659 0.421054 188.793 0.414783 188.893 0.389724C188.945 0.375942 189.01 0.355891 189.01 0.339603C189.01 0.327074 188.915 0.307023 188.854 0.304517C188.426 0.279458 188.019 0.332089 187.599 0.343366C187.405 0.348377 187.236 0.304523 187.202 0.233105C187.193 0.213058 187.18 0.191759 187.167 0.171712C187.154 0.151664 187.145 0.130366 187.132 0.110318C186.964 0.104054 186.864 0.126603 186.791 0.169203C186.73 0.204286 186.644 0.244381 186.527 0.263175C186.41 0.283222 186.25 0.27947 186.107 0.285735C185.969 0.291999 185.817 0.308286 185.688 0.299515C185.558 0.289492 185.454 0.25315 185.333 0.230597C185.277 0.21932 185.207 0.203038 185.151 0.205544C184.654 0.226844 184.161 0.248136 183.668 0.275701C183.408 0.290737 183.278 0.238121 183.114 0.205544C182.984 0.180485 182.854 0.186742 182.833 0.244377C182.776 0.382202 182.975 0.439835 183.417 0.413523C183.78 0.39097 184.109 0.387223 184.394 0.472423C184.433 0.4837 184.524 0.48871 184.58 0.486204C184.935 0.471169 185.285 0.452373 185.64 0.437337C185.705 0.434831 185.774 0.439835 185.835 0.444847C186.717 0.512506 186.717 0.513766 187.016 0.498731C187.158 0.491213 187.297 0.484947 187.284 0.294499C187.556 0.0902673 187.989 0.0764873 188.408 0.0464165C188.681 0.0276222 188.798 0.0827545 188.975 0.111572C189.036 0.121596 189.101 0.14164 189.157 0.139134C190.087 0.0977863 191.012 0.0539268 191.938 0.00756757C192.094 4.98548e-05 192.206 0.0075688 192.327 0.0401456C192.483 0.081493 192.656 0.107811 192.903 0.0927751C193.396 0.0627042 193.898 0.0439142 194.399 0.0188552C194.655 0.00632563 194.655 0.00631279 195.169 0.0839959C195.226 0.0927665 195.299 0.102791 195.36 0.100285C195.861 0.0789847 196.359 0.0526806 196.856 0.0301275C196.995 0.0238627 197.12 0.0414022 197.228 0.0752319C197.337 0.109062 197.466 0.126601 197.6 0.120336C198.102 0.0977832 198.6 0.0727321 199.097 0.050179C199.158 0.0476731 199.231 0.0564431 199.287 0.0652138C199.815 0.142897 199.815 0.142884 200.057 0.130354C200.412 0.11156 200.775 0.102799 201.126 0.0777403C201.468 0.0526812 201.645 0.125346 201.878 0.165441C202.519 0.136623 203.163 0.112823 203.799 0.0777403C204.059 0.0627048 204.197 0.104049 204.37 0.136625C204.431 0.147902 204.491 0.171711 204.547 0.170458C204.764 0.165446 204.976 0.151666 205.188 0.141642C205.4 0.131618 205.616 0.121596 205.828 0.111572C206.07 0.147908 206.23 0.233108 206.576 0.20429C206.784 0.186748 207.004 0.18299 207.216 0.172966C207.428 0.162942 207.645 0.15292 207.857 0.142896C207.999 0.136631 208.146 0.132867 208.285 0.121591C208.54 0.102796 208.665 0.164198 208.847 0.191763C208.908 0.200534 208.977 0.21556 209.033 0.213054C209.461 0.195512 209.894 0.180478 210.314 0.15166C210.638 0.129107 210.859 0.166701 211.088 0.219325C211.135 0.230601 211.218 0.236865 211.278 0.234359C211.78 0.213059 212.277 0.18674 212.775 0.164187C212.909 0.157922 213.039 0.177969 213.147 0.210545C213.259 0.244375 213.385 0.260676 213.523 0.254411C214.021 0.231858 214.522 0.206791 215.02 0.184238C215.08 0.181732 215.154 0.191758 215.21 0.201781C215.695 0.279464 215.695 0.280719 215.98 0.265683C216.049 0.261924 216.123 0.259409 216.192 0.25565C216.547 0.238108 216.915 0.231852 217.261 0.201781C217.659 0.167952 217.948 0.210554 218.23 0.281972C218.584 0.266937 218.948 0.258164 219.294 0.233105C219.553 0.214311 219.692 0.261921 219.865 0.293244C219.925 0.304521 219.99 0.327074 220.042 0.324568C220.544 0.303268 221.045 0.284481 221.539 0.253157C221.807 0.235615 221.924 0.291988 222.105 0.320806C222.166 0.330829 222.231 0.34838 222.287 0.345874C222.572 0.33585 222.858 0.320808 223.144 0.307025C223.477 0.290737 223.476 0.291988 223.918 0.368419C224.125 0.404754 224.333 0.375935 224.536 0.367164C224.753 0.357141 224.956 0.349626 225.129 0.400997C225.237 0.433573 225.367 0.453621 225.501 0.448609C225.786 0.437333 226.076 0.426062 226.357 0.407267C226.582 0.392232 226.777 0.40225 226.941 0.448609C227.058 0.481186 227.179 0.497484 227.322 0.489967C227.962 0.459896 228.607 0.42856 229.247 0.399742C229.303 0.397236 229.381 0.408517 229.433 0.419794C229.554 0.442347 229.671 0.467401 229.788 0.49246C230.069 0.481183 230.359 0.476184 230.635 0.458643C230.93 0.441101 231.198 0.434835 231.427 0.503747C231.475 0.518783 231.544 0.540071 231.6 0.538818C231.816 0.533807 232.028 0.521281 232.24 0.511257C232.452 0.501233 232.669 0.491211 232.88 0.481187C233.127 0.512511 233.283 0.602723 233.629 0.573905C233.837 0.556363 234.057 0.552604 234.269 0.542581C234.481 0.532557 234.697 0.521282 234.909 0.512511C234.978 0.510005 235.056 0.503737 235.117 0.508749C235.182 0.513761 235.238 0.531306 235.294 0.543835C235.467 0.580171 235.627 0.616511 235.874 0.59521C236.082 0.577669 236.302 0.573909 236.514 0.562632C236.804 0.54885 236.804 0.548852 237.284 0.627788C237.479 0.660365 237.699 0.617767 237.885 0.645332C238.011 0.664126 238.119 0.695443 238.24 0.716743C238.292 0.725514 238.374 0.729267 238.435 0.726761C238.72 0.715485 239.01 0.704214 239.291 0.685419C239.52 0.670384 239.711 0.685418 239.871 0.730524C239.988 0.763101 240.104 0.77689 240.251 0.769373C240.965 0.73429 241.679 0.704209 242.388 0.665368C242.631 0.651585 242.825 0.672891 242.959 0.717997C243.189 0.79568 243.513 0.704217 243.751 0.766864C243.898 0.805706 244.045 0.850815 244.313 0.83202C244.806 0.799444 245.308 0.781892 245.806 0.759339C245.983 0.793169 246.16 0.827006 246.342 0.860836C246.627 0.847053 246.913 0.833262 247.198 0.820733C247.41 0.810709 247.627 0.799434 247.839 0.790663C247.908 0.788157 247.981 0.783144 248.046 0.789409C248.111 0.795674 248.163 0.811966 248.224 0.824495C248.522 0.88589 248.522 0.887149 249.015 0.86209C249.227 0.850813 249.431 0.843296 249.608 0.893414C249.772 0.939773 249.967 0.948538 250.192 0.934756C250.616 0.909697 251.044 0.890904 251.477 0.873362C251.611 0.867097 251.736 0.888398 251.849 0.920975C252.017 0.972346 252.225 0.967336 252.437 0.953553C252.718 0.936012 252.995 0.918474 253.233 0.988639C253.28 1.00367 253.354 1.02496 253.406 1.02371C253.76 1.01369 254.12 1.00617 254.466 0.982369C254.812 0.958562 254.98 1.03624 255.218 1.07383C255.573 1.05754 255.932 1.04125 256.287 1.02496C256.356 1.02121 256.438 1.00994 256.499 1.0162C256.754 1.04251 256.901 1.13648 257.251 1.10766C257.455 1.09138 257.675 1.08637 257.887 1.08261C257.943 1.08136 258.017 1.10265 258.056 1.11894C258.078 1.12771 258.056 1.15151 258.03 1.16404C257.952 1.19912 257.857 1.23171 257.788 1.26805C257.779 1.27306 257.861 1.2956 257.909 1.30562C258.026 1.32818 258.16 1.32443 258.315 1.3144C258.449 1.30563 258.588 1.32317 258.683 1.36076C258.722 1.3758 258.709 1.40085 258.627 1.48355C258.627 1.54494 258.718 1.51737 258.748 1.47728C258.796 1.41964 258.705 1.40085 258.532 1.43217C258.411 1.45473 258.35 1.48731 258.38 1.51362C258.398 1.5274 258.48 1.54494 258.627 1.48355C259.007 1.40837 259.293 1.3946 259.579 1.38081C259.652 1.37706 259.739 1.36452 259.79 1.37204C259.976 1.40211 260.15 1.43845 260.331 1.47228C260.539 1.46476 260.733 1.44596 260.937 1.49482C261.222 1.56373 261.235 1.55747 261.512 1.54369C261.655 1.53617 261.798 1.52992 261.94 1.52365C262.083 1.51739 262.195 1.53618 262.321 1.56499C262.576 1.62388 262.598 1.62388 262.766 1.54369C262.866 1.49482 262.935 1.47854 263.061 1.50109C263.476 1.57752 263.48 1.58253 263.835 1.55998C264.129 1.54118 264.406 1.53617 264.622 1.60759C264.769 1.65771 264.817 1.64643 264.934 1.59381C265.245 1.45473 265.388 1.45723 265.972 1.55747C266.244 1.60508 266.526 1.55372 266.802 1.54745C267.036 1.54244 267.2 1.5725 267.218 1.65144C267.231 1.70031 267.27 1.7354 267.425 1.75168C267.486 1.75795 267.559 1.76672 267.62 1.76421C267.979 1.74917 268.334 1.73163 268.693 1.71409C268.874 1.70532 268.974 1.64644 268.939 1.56876C268.9 1.48606 268.969 1.45598 269.229 1.43217C269.385 1.41839 269.51 1.42091 269.636 1.44346C269.774 1.46852 269.735 1.49107 269.614 1.53618C269.324 1.64644 269.359 1.71409 269.731 1.79052C269.861 1.81683 269.964 1.84065 269.995 1.87949C270.012 1.89953 269.995 1.92585 270.034 1.94088C270.246 2.02483 270.54 2.07871 270.868 2.11881C271.184 2.08498 271.401 2.14135 271.643 2.18645C271.833 2.22154 272.058 2.19147 272.261 2.17894C272.491 2.16516 272.681 2.17518 272.845 2.22154C272.962 2.25412 273.083 2.26915 273.226 2.26288C273.511 2.2491 273.801 2.24033 274.082 2.22029C274.325 2.20275 274.506 2.22781 274.658 2.27041C274.848 2.32428 275.06 2.28794 275.259 2.29546C275.527 2.30423 275.661 2.41574 276.012 2.38567C276.219 2.36813 276.436 2.36187 276.652 2.35685C276.708 2.3556 276.777 2.3769 276.825 2.39194C277.054 2.46085 277.322 2.45709 277.617 2.43704C277.82 2.42326 278.019 2.41074 278.218 2.45835C278.546 2.53854 278.91 2.60871 279.256 2.68263C279.304 2.74027 279.269 2.80792 279.515 2.84175C279.645 2.85929 279.766 2.88561 279.866 2.91443C279.987 2.94826 280.099 2.95703 280.255 2.94826C280.536 2.93072 280.831 2.92695 281.107 2.90439C281.363 2.88435 281.523 2.92571 281.678 2.96455C281.804 2.99587 281.921 3.0109 282.072 2.98835C282.228 2.96705 282.34 2.98082 282.466 3.01465C282.643 3.06101 282.656 3.05601 283.244 3.06979C283.305 3.07105 283.378 3.08983 283.413 3.10612C283.43 3.11489 283.391 3.13996 283.361 3.15249C283.322 3.16753 283.261 3.18506 283.205 3.18882C282.565 3.22139 281.921 3.25021 281.28 3.28279C281.215 3.28655 281.146 3.29533 281.099 3.30786C281.047 3.32164 280.982 3.34042 280.982 3.35796C280.982 3.37049 281.068 3.38553 281.129 3.3943C281.319 3.42312 281.544 3.37927 281.73 3.41185C281.856 3.43315 281.959 3.46321 282.085 3.48326C282.137 3.49203 282.219 3.49078 282.284 3.48827C282.5 3.4795 282.712 3.46698 282.928 3.45946C282.989 3.45821 283.058 3.47074 283.114 3.48076C283.53 3.55594 283.53 3.55594 283.889 3.53965C284.031 3.53338 284.183 3.51459 284.317 3.52211C284.447 3.52962 284.559 3.56345 284.676 3.58475C284.918 3.62986 285.147 3.67371 285.165 3.77144C285.173 3.80903 285.316 3.8416 285.459 3.84411C285.597 3.84661 285.744 3.83284 285.887 3.82533C286.225 3.81029 286.225 3.81029 286.661 3.88672C286.783 3.90802 286.912 3.91052 287.068 3.89799C287.129 3.89298 287.202 3.898 287.267 3.90426C287.479 3.92306 287.479 3.94686 287.341 3.99196C287.146 4.05837 287.163 4.06464 287.708 4.12102C287.916 4.14232 288.076 4.18242 288.249 4.2175C288.53 4.27388 288.526 4.27387 288.34 4.3478C288.297 4.36409 288.258 4.38163 288.214 4.39917C288.089 4.44804 287.989 4.50066 287.73 4.50567C287.444 4.51068 287.159 4.53074 286.873 4.54452C286.597 4.5583 286.523 4.58836 286.549 4.67356C286.579 4.7763 286.635 4.78758 287.133 4.78633C287.276 4.78633 287.401 4.79635 287.509 4.83018C287.457 4.87028 287.362 4.9016 287.224 4.90912C286.869 4.92791 286.51 4.94421 286.155 4.96049C285.87 4.97428 285.584 4.98805 285.299 5.00184C285.122 5.01061 285.009 5.07577 285.057 5.14844C285.083 5.18978 285.104 5.23113 285.126 5.27248C285.173 5.35517 285.264 5.37648 285.554 5.37272C285.628 5.37147 285.697 5.36143 285.766 5.36394C286.047 5.37271 286.181 5.4767 286.519 5.4554C286.8 5.43786 287.094 5.43411 287.371 5.41155C287.626 5.39151 287.769 5.43662 287.946 5.47045C288.007 5.48173 288.072 5.50552 288.124 5.50427C288.483 5.49049 288.842 5.47672 289.192 5.45291C289.356 5.44289 289.456 5.4504 289.586 5.48047C289.897 5.55314 289.906 5.54938 290.369 5.52683C290.706 5.50929 290.71 5.51179 291.143 5.58822C291.264 5.60952 291.394 5.60952 291.549 5.5995C291.753 5.58697 291.965 5.56692 292.177 5.58572C292.242 5.59073 292.324 5.60577 292.345 5.62206C292.358 5.63333 292.298 5.6609 292.246 5.66967C291.865 5.73482 291.42 5.72355 291.004 5.74986C290.875 5.75738 290.745 5.73357 290.637 5.69974C290.524 5.66591 290.403 5.65213 290.256 5.6584C289.971 5.67218 289.681 5.68095 289.4 5.70099C289.157 5.71853 288.989 5.68971 288.82 5.65087C288.764 5.63834 288.699 5.61453 288.643 5.61579C288.002 5.64084 287.358 5.66591 286.722 5.70099C286.467 5.71603 286.32 5.67594 286.147 5.64211C286.086 5.63083 286.026 5.60702 285.969 5.60828C285.753 5.61329 285.541 5.62707 285.325 5.63709C284.538 5.67468 283.755 5.71227 282.967 5.74735C282.915 5.74986 282.851 5.72354 282.79 5.71227C282.673 5.68971 282.552 5.66841 282.431 5.64711C282.215 5.65713 282.003 5.66966 281.786 5.67718C281.631 5.68219 281.492 5.69974 281.471 5.74735C281.458 5.77868 281.6 5.80749 281.752 5.80498C281.899 5.80248 282.046 5.78744 282.167 5.80373C282.768 5.88392 282.768 5.88517 283.145 5.86888C283.473 5.85385 283.439 5.84131 283.729 5.91023C283.854 5.9403 283.967 5.95785 284.109 5.95033C284.464 5.93279 284.823 5.91524 285.182 5.90021C285.238 5.8977 285.312 5.91024 285.368 5.92026C285.792 5.99544 285.792 5.99794 286.142 5.97915C286.601 5.95659 286.618 5.95033 286.925 6.02676C287.137 6.07938 287.332 6.04304 287.535 6.04054C287.769 6.0894 288.024 6.13326 288.236 6.18839C288.487 6.25355 288.751 6.24226 289.036 6.22346C289.248 6.20968 289.456 6.20467 289.629 6.25604C289.793 6.30365 289.992 6.30868 290.217 6.29615C290.42 6.28487 290.628 6.26106 290.84 6.28862C290.896 6.29614 290.983 6.31494 290.978 6.32622C290.974 6.34376 290.918 6.36882 290.862 6.37634C290.464 6.42771 290.027 6.42645 289.607 6.45026C289.551 6.45402 289.477 6.44023 289.421 6.4302C289.3 6.40765 289.183 6.38135 289.066 6.35754C288.855 6.36506 288.638 6.36756 288.431 6.38259C288.271 6.39387 288.149 6.39263 288.033 6.36256C287.924 6.33499 287.808 6.30115 287.678 6.29238C287.548 6.28361 287.397 6.30241 287.254 6.30993C287.111 6.31744 286.947 6.31368 286.835 6.33372C286.722 6.35377 286.653 6.39763 286.579 6.43271C286.497 6.47155 286.385 6.48409 286.22 6.48785C286.069 6.49161 285.948 6.48659 285.835 6.45151C285.788 6.43648 285.723 6.42519 285.658 6.41517C285.597 6.4064 285.528 6.39261 285.472 6.39512C284.827 6.42394 284.187 6.45527 283.543 6.48534C283.223 6.50038 283.227 6.50037 282.561 6.42644C282.5 6.42018 282.427 6.41141 282.366 6.41392C282.007 6.42895 281.652 6.4465 281.293 6.46404C280.93 6.48158 280.934 6.47907 280.316 6.40014C280.203 6.3851 280.039 6.40515 279.905 6.40264C279.624 6.39638 279.485 6.29113 279.156 6.31118C278.875 6.32872 278.581 6.33248 278.3 6.35503C278.045 6.37508 277.898 6.33123 277.725 6.2974C277.664 6.28612 277.599 6.26106 277.547 6.26357C276.903 6.29113 276.263 6.32246 275.406 6.32622C275.194 6.32622 275.289 6.35253 275.428 6.3613C275.627 6.37508 275.692 6.34877 275.583 6.29865C275.506 6.26357 275.393 6.24602 275.302 6.25479C275.255 6.2598 275.194 6.28362 275.406 6.32622C275.631 6.37383 275.618 6.40013 275.657 6.41517C275.752 6.45151 275.886 6.46654 276.025 6.46153C276.241 6.45276 276.453 6.44023 276.669 6.43271C276.73 6.43021 276.803 6.43898 276.86 6.449C277.335 6.52669 277.34 6.5317 277.846 6.50163C278.006 6.49286 278.123 6.49286 278.248 6.51667C278.421 6.54924 278.547 6.60437 278.81 6.58682C279.161 6.56302 279.52 6.54925 279.879 6.53546C279.935 6.53296 279.996 6.55551 280.06 6.56553C280.238 6.5956 280.368 6.65199 280.631 6.62818C280.835 6.60939 281.055 6.60436 281.272 6.6006C281.328 6.59935 281.414 6.6194 281.44 6.63569C281.492 6.66451 281.427 6.69835 281.28 6.72215C281.22 6.73218 281.138 6.72967 281.068 6.73343C280.783 6.74721 280.497 6.76224 280.212 6.77351C280.06 6.77978 279.918 6.79858 279.9 6.84494C279.887 6.87626 280.043 6.90382 280.19 6.90132C280.407 6.89756 280.623 6.88754 280.83 6.87125C281.198 6.84368 281.518 6.8512 281.817 6.93013C282.029 6.98526 282.016 6.96522 282.241 7.12811C282.297 7.16946 282.466 7.17321 282.613 7.1707C282.967 7.16444 283.132 7.18324 283.101 7.22208C283.062 7.26969 282.937 7.28472 282.777 7.29098C282.491 7.30101 282.206 7.3173 281.921 7.33109C281.851 7.33485 281.773 7.34236 281.709 7.33985C281.644 7.33734 281.583 7.32231 281.527 7.31103C281.406 7.28723 281.302 7.25089 281.172 7.24212C281.042 7.23335 280.891 7.25214 280.748 7.25966C280.606 7.26592 280.454 7.28472 280.324 7.27595C280.195 7.26718 280.086 7.2296 279.97 7.20705C279.913 7.19577 279.844 7.17822 279.788 7.17947C279.503 7.18949 279.217 7.20579 278.932 7.21832C278.581 7.23461 278.581 7.23461 278.157 7.15692C278.036 7.13437 277.911 7.13563 277.751 7.14565C277.405 7.1657 277.4 7.16193 276.769 7.08926C276.708 7.08174 276.635 7.07297 276.574 7.07673C275.929 7.10555 275.289 7.13687 274.649 7.16694C274.1 7.19325 274.1 7.19326 273.797 7.31856C273.572 7.41128 273.568 7.41127 273.788 7.45387C273.966 7.48896 274.126 7.54032 274.32 7.55912C274.502 7.57666 274.727 7.52028 274.926 7.57791C275.025 7.60673 275.155 7.63806 275.281 7.64307C275.48 7.64933 275.692 7.61299 275.882 7.66812C275.977 7.69569 276.12 7.72452 276.241 7.72577C276.453 7.72828 276.669 7.70822 276.881 7.69945C276.946 7.69694 277.02 7.69694 277.08 7.70321C277.145 7.71073 277.201 7.72577 277.257 7.7383C277.43 7.7809 277.617 7.80094 277.841 7.77964C278.209 7.74455 278.538 7.7621 278.823 7.84229C278.862 7.85356 278.957 7.85482 279.018 7.84981C279.174 7.83728 279.308 7.83602 279.425 7.85983C279.472 7.86985 279.541 7.88739 279.533 7.89866C279.52 7.91746 279.468 7.94252 279.412 7.94878C279.005 7.99138 278.568 7.9964 278.149 8.01896C278.092 8.02146 278.023 8.00516 277.967 7.99389C277.846 7.97133 277.742 7.93375 277.612 7.92498C277.482 7.91621 277.331 7.9325 277.188 7.93877C277.046 7.94503 276.894 7.96383 276.764 7.95631C276.635 7.94754 276.513 7.91621 276.41 7.88864C276.289 7.85732 276.172 7.85357 276.012 7.8661C275.804 7.88239 275.588 7.88489 275.376 7.89366C275.259 7.86985 275.142 7.84353 275.021 7.82098C274.965 7.8097 274.896 7.79593 274.835 7.79718C274.55 7.8072 274.264 7.82223 273.979 7.83601C273.693 7.8498 273.693 7.84981 273.209 7.77213C273.152 7.76336 273.079 7.75333 273.018 7.75584C272.659 7.77087 272.305 7.78966 271.946 7.80469C271.807 7.81096 271.682 7.79342 271.569 7.75959C271.461 7.72576 271.331 7.70696 271.197 7.71323C270.626 7.73954 270.055 7.7646 269.484 7.79593C269.255 7.80846 269.06 7.79718 268.905 7.75208C268.723 7.70071 268.52 7.71324 268.308 7.72326C267.828 7.74832 267.823 7.74706 267.516 7.68316C267.455 7.67063 267.395 7.64682 267.339 7.64807C266.841 7.66687 266.34 7.68441 265.846 7.71448C265.587 7.73077 265.448 7.68692 265.275 7.65434C265.215 7.64307 265.15 7.61926 265.098 7.62176C264.739 7.63555 264.38 7.64808 264.03 7.67314C263.679 7.6982 263.545 7.58168 263.281 7.58293C262.922 7.58418 262.567 7.613 262.213 7.63054C261.927 7.64433 261.642 7.6581 261.356 7.67189C261.071 7.68567 260.785 7.69694 260.5 7.71323C260.348 7.722 260.236 7.71072 260.111 7.6794C259.951 7.63805 259.76 7.60548 259.587 7.5679C259.323 7.51402 259.323 7.51401 259.003 7.52905C258.934 7.53281 258.86 7.53531 258.791 7.53907C258.268 7.56663 258.268 7.56413 257.602 7.4852C257.571 7.48144 257.493 7.49522 257.463 7.50525C257.372 7.53783 257.29 7.5729 257.208 7.60673C257.091 7.58668 256.949 7.57541 256.871 7.54659C256.65 7.46515 256.304 7.57666 256.079 7.49647C255.997 7.4664 255.854 7.44008 255.724 7.43257C255.59 7.42505 255.439 7.44259 255.3 7.45011C254.941 7.4689 254.941 7.46766 254.634 7.57917C254.479 7.6343 254.254 7.62427 254.05 7.6368C253.838 7.65058 253.635 7.6581 253.458 7.60673C253.298 7.56037 253.103 7.5491 252.874 7.56413C252.593 7.58293 252.303 7.5942 252.017 7.60548C251.957 7.60798 251.883 7.60172 251.823 7.5942C251.161 7.52028 251.161 7.51903 250.841 7.53532C250.698 7.54284 250.551 7.54533 250.412 7.55661C250.179 7.57666 250.002 7.55034 249.833 7.51025C249.777 7.49772 249.712 7.47393 249.655 7.47518C249.37 7.48144 249.089 7.49272 248.808 7.50399C248.591 7.51276 248.375 7.51778 248.167 7.53532C247.821 7.56414 247.653 7.48268 247.415 7.44509C247.06 7.46138 246.701 7.47266 246.346 7.49521C246.182 7.50524 246.074 7.50149 245.948 7.47142C245.788 7.43383 245.641 7.39123 245.382 7.41002C245.036 7.43508 244.672 7.44385 244.318 7.45889C244.08 7.42005 243.907 7.3411 243.565 7.36992C243.357 7.38746 243.137 7.39122 242.925 7.40124C242.639 7.41503 242.354 7.42757 242.068 7.4426C241.761 7.45764 241.765 7.45388 241.294 7.37995C241.021 7.3361 240.74 7.38496 240.463 7.39248C240.247 7.39874 240.139 7.45638 240.191 7.5303C240.243 7.60423 240.126 7.66186 239.927 7.67189C239.43 7.69569 238.928 7.72074 238.43 7.74204C238.37 7.74455 238.296 7.73578 238.24 7.72701C237.708 7.64807 237.708 7.64934 237.47 7.66061C237.115 7.67941 236.752 7.68942 236.402 7.71323C236.159 7.72952 235.982 7.70321 235.826 7.66061C235.705 7.62804 235.593 7.62052 235.437 7.62804C233.724 7.71198 232.011 7.78966 230.302 7.87612C230.047 7.88865 229.9 7.85232 229.727 7.81849C229.667 7.80721 229.61 7.7834 229.55 7.7834C229.407 7.7834 229.264 7.79468 229.121 7.8022C228.481 7.83227 227.841 7.8686 227.197 7.89115C226.924 7.90118 226.851 7.95882 226.734 8.00643C226.643 8.04276 226.539 8.05779 226.379 8.06281C226.223 8.06782 226.111 8.06155 225.99 8.02897C225.834 7.98637 225.657 7.96006 225.414 7.9776C225.133 7.99765 224.848 8.00643 224.558 8.02021C224.411 8.02647 224.298 8.04902 224.251 8.09413C224.242 8.10165 224.333 8.12045 224.385 8.13172C224.558 8.16931 224.722 8.21316 224.917 8.23948C225.116 8.26579 225.332 8.23571 225.54 8.22819C225.613 8.22568 225.683 8.21817 225.752 8.21943C225.817 8.22068 225.895 8.22695 225.942 8.23822C226.167 8.29461 226.405 8.33345 226.716 8.29962C226.985 8.3159 227.123 8.4199 227.465 8.39233C227.672 8.37604 227.889 8.36853 228.105 8.36226C228.161 8.36101 228.222 8.38356 228.282 8.39484C228.455 8.42616 228.594 8.47628 228.853 8.45498C229.13 8.43243 229.424 8.42867 229.705 8.41113C229.861 8.40111 229.974 8.40988 230.095 8.44245C230.25 8.4838 230.428 8.51512 230.67 8.49507C230.878 8.47753 231.098 8.47377 231.31 8.46249C231.587 8.44871 231.587 8.44996 232.08 8.52765C232.137 8.53642 232.21 8.54644 232.271 8.54393C232.63 8.5289 232.984 8.5101 233.343 8.49507C233.482 8.4888 233.616 8.50509 233.711 8.54143C233.75 8.55646 233.737 8.58154 233.75 8.60284C233.036 8.63667 232.322 8.66548 231.613 8.70683C231.345 8.72311 231.224 8.67174 231.046 8.64292C230.986 8.6329 230.921 8.6116 230.865 8.61411C230.363 8.63541 229.866 8.65795 229.368 8.68552C229.212 8.69429 229.096 8.68928 228.979 8.65294C228.68 8.55646 228.317 8.60909 227.98 8.62287C227.72 8.6329 227.638 8.67174 227.668 8.75444C227.707 8.85217 227.863 8.88224 228.261 8.8647C228.403 8.85843 228.546 8.84966 228.689 8.84465C228.827 8.83963 228.953 8.85592 229.065 8.88975C229.173 8.92358 229.303 8.94112 229.437 8.93611C229.723 8.92483 230.013 8.91356 230.289 8.89477C230.519 8.87973 230.709 8.89226 230.869 8.93862C231.046 8.98999 231.254 8.97871 231.462 8.96743C231.946 8.94238 231.95 8.94363 232.253 9.00628C232.314 9.01881 232.374 9.04262 232.431 9.04137C232.928 9.02257 233.43 9.00628 233.919 8.97621C234.174 8.96118 234.321 9.00127 234.49 9.03384C234.55 9.04512 234.611 9.07018 234.667 9.06768C235.026 9.05389 235.385 9.04011 235.735 9.0163C235.9 9.00502 235.999 9.01254 236.133 9.04261C236.453 9.11653 236.462 9.11403 236.916 9.09022C237.055 9.0827 237.206 9.06892 237.336 9.07895C237.466 9.08897 237.57 9.12531 237.691 9.14787C237.747 9.15789 237.816 9.17166 237.877 9.16916C238.162 9.15913 238.448 9.14411 238.733 9.13032C239.001 9.11654 239.001 9.1178 239.503 9.19548C239.706 9.22806 239.918 9.20049 240.122 9.19046C240.342 9.17919 240.541 9.17919 240.71 9.22806C240.879 9.27692 241.082 9.27441 241.298 9.26438C241.502 9.25436 241.709 9.22681 241.917 9.26064C242.393 9.33832 242.393 9.33956 242.687 9.32452C243.115 9.30322 243.539 9.28318 243.972 9.26438C244.028 9.26188 244.101 9.27692 244.157 9.28694C244.279 9.3095 244.382 9.34708 244.512 9.35585C244.642 9.36587 244.793 9.35084 244.932 9.34332C245.377 9.31951 245.408 9.31075 245.706 9.39344C245.957 9.4611 246.268 9.36337 246.502 9.44105C246.636 9.48491 246.818 9.51999 247.069 9.49868C247.276 9.48114 247.493 9.47613 247.709 9.46611C248.051 9.44982 248.051 9.45108 248.483 9.52626C248.539 9.53628 248.613 9.5488 248.669 9.5463C248.955 9.53627 249.245 9.52751 249.521 9.50496C249.846 9.47864 250.053 9.52626 250.296 9.57262C250.486 9.60896 250.711 9.57888 250.914 9.56635C251.135 9.55382 251.334 9.55757 251.498 9.60644C251.671 9.65656 251.874 9.65029 252.091 9.64027C252.294 9.6315 252.502 9.60268 252.709 9.63776C253.155 9.71544 253.155 9.71544 253.479 9.70041C253.765 9.68663 254.05 9.6716 254.336 9.66157C254.392 9.65907 254.461 9.67535 254.517 9.68663C254.639 9.70918 254.742 9.74678 254.872 9.75555C255.002 9.76432 255.153 9.74803 255.296 9.74177C255.439 9.7355 255.59 9.7167 255.72 9.72422C255.85 9.73174 255.971 9.76307 256.075 9.79063C256.196 9.82321 256.308 9.82696 256.473 9.81443C256.68 9.79814 256.897 9.79439 257.108 9.78562C257.225 9.80942 257.346 9.83322 257.459 9.85954C257.576 9.8871 257.701 9.88459 257.861 9.87582C258.393 9.84575 258.398 9.84952 258.843 9.9272C259.046 9.96228 259.258 9.93346 259.462 9.92469C259.678 9.91467 259.881 9.90966 260.05 9.95978C260.214 10.0074 260.418 10.0136 260.634 9.99861C260.772 9.98859 260.919 9.98233 261.062 9.97858C261.127 9.97732 261.205 9.98233 261.253 9.99236C261.482 10.045 261.707 10.0926 262.022 10.0588C262.299 10.0688 262.438 10.1715 262.771 10.1515C263.052 10.1339 263.346 10.1302 263.623 10.1076C263.878 10.0876 264.06 10.1227 264.19 10.1665C264.423 10.2442 264.752 10.139 264.986 10.2154C265.12 10.2592 265.293 10.2943 265.552 10.2755C265.838 10.2555 265.929 10.2818 266.011 10.3607C266.058 10.4058 266.05 10.4422 265.963 10.4772C265.877 10.5136 265.782 10.5073 265.643 10.466C265.483 10.4196 265.293 10.4108 265.063 10.4209C264.839 10.4309 264.7 10.3657 264.514 10.3407C264.328 10.3144 264.108 10.3582 263.913 10.3244C263.454 10.2455 263.454 10.2455 263.143 10.2605C262.931 10.2705 262.71 10.2755 262.503 10.2931C262.256 10.3144 262.096 10.2755 261.927 10.2404C261.867 10.2279 261.806 10.2041 261.754 10.2054C261.257 10.2241 260.755 10.2417 260.262 10.273C260.002 10.2893 259.864 10.2442 259.691 10.2129C259.63 10.2016 259.565 10.179 259.514 10.1816C259.085 10.1991 258.661 10.2216 258.233 10.2429C258.151 10.2768 258.06 10.3093 257.982 10.3457C257.9 10.3833 257.788 10.3996 257.623 10.3983C257.351 10.3983 257.083 10.4509 256.81 10.3845C256.529 10.3169 256.507 10.3206 256.235 10.3369C255.889 10.3582 255.521 10.3532 255.197 10.4021C255.14 10.4108 255.08 10.4346 255.08 10.4522C255.075 10.4635 255.166 10.4798 255.223 10.4898C255.413 10.5198 255.633 10.476 255.824 10.5073C255.949 10.5274 256.053 10.5574 256.178 10.5787C256.23 10.5875 256.308 10.5863 256.377 10.585C256.451 10.5837 256.52 10.575 256.589 10.5762C256.654 10.5775 256.724 10.585 256.776 10.5963C257.013 10.6439 257.264 10.6877 257.476 10.7441C257.684 10.7993 257.878 10.7617 258.086 10.7592C258.917 10.8469 258.917 10.8481 259.475 10.8206C259.613 10.8143 259.756 10.8068 259.899 10.808C259.959 10.808 260.015 10.8306 260.076 10.8431C260.249 10.8807 260.413 10.9145 260.656 10.8945C260.863 10.8769 261.084 10.8732 261.296 10.8619C261.581 10.8481 261.581 10.8481 262.066 10.9271C262.187 10.9471 262.317 10.9446 262.472 10.9346C262.606 10.9258 262.745 10.9446 262.84 10.9809C262.879 10.996 262.866 11.021 262.879 11.0423C262.451 11.0624 262.018 11.0762 261.603 11.1062C261.335 11.125 261.214 11.0711 261.036 11.0423C260.976 11.0323 260.911 11.011 260.855 11.0135C260.431 11.0323 260.007 11.0536 259.583 11.0787C259.531 11.0812 259.466 11.11 259.462 11.1275C259.453 11.1601 259.561 11.1914 259.717 11.1902C259.924 11.1889 260.128 11.1676 260.314 11.219C260.47 11.2641 260.664 11.2842 260.893 11.2641C261.032 11.2528 261.179 11.2528 261.317 11.2428C261.685 11.2127 262.018 11.219 262.295 11.3042C262.507 11.3267 262.715 11.3055 262.918 11.2942C263.069 11.2854 263.216 11.2766 263.324 11.3004C263.554 11.3505 263.779 11.4007 264.094 11.3668C264.436 11.4019 264.696 11.4758 264.981 11.536C265.115 11.5648 265.219 11.5811 265.375 11.5623C265.44 11.5548 265.518 11.5548 265.587 11.551C265.73 11.5448 265.881 11.526 266.011 11.5335C266.141 11.5422 266.249 11.5786 266.365 11.6011C266.422 11.6124 266.487 11.6312 266.543 11.63C266.759 11.6237 266.971 11.6112 267.183 11.6011C267.395 11.5924 267.607 11.5836 267.819 11.5748C267.996 11.6074 268.178 11.64 268.355 11.6726C268.641 11.6588 268.926 11.645 269.207 11.6325C269.523 11.6174 269.523 11.6187 269.977 11.6964C270.181 11.7315 270.397 11.7089 270.592 11.6926C270.916 11.6663 271.132 11.7139 271.362 11.764C271.409 11.7741 271.496 11.7803 271.552 11.7753C271.777 11.7578 271.971 11.7715 272.136 11.8179C272.253 11.8505 272.369 11.8655 272.512 11.8593C273.01 11.8355 273.507 11.8104 274.005 11.7891C274.065 11.7866 274.134 11.7979 274.191 11.8079C274.632 11.8843 274.636 11.8881 274.96 11.868C275.25 11.8505 275.519 11.843 275.748 11.9119C275.795 11.9269 275.869 11.9482 275.921 11.947C276.275 11.9344 276.635 11.9206 276.985 11.8993C277.145 11.8893 277.257 11.8931 277.383 11.9219C277.543 11.9582 277.686 12.0021 277.95 11.9858C278.681 11.9394 278.685 11.947 279.55 12.0334C279.611 12.0397 279.693 12.0297 279.762 12.0246C279.909 12.0121 280.017 12.0297 280.147 12.0585C280.437 12.1236 280.445 12.1199 280.722 12.1061C280.934 12.0948 281.155 12.0923 281.362 12.0735C281.683 12.0459 281.895 12.0948 282.132 12.1412C282.323 12.1775 282.543 12.1474 282.747 12.1362C282.967 12.1236 283.166 12.1274 283.331 12.175C283.443 12.2076 283.564 12.2251 283.707 12.2189C284.204 12.1963 284.702 12.1712 285.199 12.1487C285.26 12.1462 285.333 12.1562 285.39 12.165C285.883 12.2427 285.883 12.2464 286.372 12.2176C286.527 12.2088 286.657 12.2063 286.774 12.2326C286.886 12.2577 287.008 12.2815 287.124 12.3053C287.336 12.2965 287.553 12.294 287.76 12.279C287.92 12.2677 288.033 12.2727 288.158 12.299C288.322 12.3329 288.461 12.3918 288.72 12.3629C288.855 12.3492 289.01 12.3529 289.144 12.3404C289.304 12.3241 289.413 12.3341 289.538 12.3667C289.694 12.4055 289.854 12.4456 290.105 12.4256C290.381 12.403 290.676 12.3993 290.957 12.3817C291.112 12.3717 291.221 12.3817 291.346 12.4143C291.502 12.4557 291.679 12.482 291.921 12.4657C292.415 12.4344 292.419 12.4406 292.899 12.5196C293.02 12.5396 293.15 12.5371 293.306 12.5271C293.44 12.5183 293.578 12.5371 293.673 12.5734C293.764 12.6135 293.755 12.6386 293.764 12.6599ZM255.218 1.35951C255.075 1.36577 254.933 1.37329 254.725 1.26428C254.712 1.24549 254.721 1.22294 254.691 1.20665C254.621 1.17282 254.513 1.14902 254.383 1.14526C254.15 1.14025 253.869 1.18284 253.873 1.21542C253.877 1.24298 253.951 1.26678 254.094 1.28934C254.154 1.29811 254.202 1.31314 254.258 1.32317C254.422 1.35199 254.552 1.40838 254.79 1.37956C254.747 1.30188 254.768 1.34072 254.79 1.37956C254.768 1.42717 254.833 1.461 254.989 1.47479C255.032 1.47854 255.097 1.47603 255.132 1.46851C255.266 1.44095 255.287 1.40337 255.188 1.30439C255.171 1.32067 255.184 1.34948 255.223 1.357C255.261 1.36452 255.357 1.35826 255.404 1.34949C255.525 1.32568 255.586 1.29436 255.556 1.26805C255.538 1.25426 255.456 1.23672 255.404 1.23672C255.313 1.23672 255.231 1.26428 255.218 1.35951ZM290.195 15.89C289.88 15.9138 289.516 15.905 289.201 15.9539C289.144 15.9627 289.088 15.9852 289.084 16.0028C289.079 16.014 289.166 16.0303 289.218 16.0391C289.335 16.0592 289.464 16.0529 289.616 16.0466C289.845 16.0378 289.979 16.0955 290.157 16.1243C290.213 16.1331 290.286 16.1393 290.347 16.1368C290.697 16.1218 291.043 16.1055 291.394 16.088C291.454 16.0842 291.519 16.0754 291.571 16.0642C291.744 16.0278 291.727 16.004 291.558 15.9765C291.372 15.9464 291.225 15.8963 291.035 15.8725C290.762 15.8386 290.485 15.8837 290.195 15.89ZM265.63 16.8047C265.418 16.8147 265.21 16.8247 264.998 16.8347C264.929 16.8385 264.856 16.8397 264.791 16.8447C264.657 16.8535 264.557 16.8798 264.492 16.9212C264.592 16.9538 264.713 16.9725 264.847 16.9688C265.059 16.9613 265.267 16.945 265.479 16.9412C265.708 16.9362 265.842 16.9926 266.019 17.0214C266.076 17.0302 266.145 17.0314 266.21 17.0327C266.53 17.0377 266.724 16.9726 266.664 16.8811C266.621 16.8097 266.456 16.7671 266.257 16.7758C266.05 16.7846 265.838 16.7946 265.63 16.8047ZM291.675 14.0381C291.727 14.0168 291.783 14.0018 291.809 13.983C291.887 13.9191 291.857 13.8715 291.714 13.8214C291.541 13.76 291.329 13.8013 291.134 13.8076C291.087 13.8088 291.035 13.8352 291.009 13.8514C290.991 13.8627 290.991 13.8865 291.017 13.8928C291.229 13.9429 291.454 13.9893 291.675 14.0381ZM254.15 10.3369C253.942 10.3469 253.73 10.3545 253.523 10.3682C253.471 10.372 253.423 10.3958 253.393 10.4121C253.337 10.4422 253.397 10.4835 253.574 10.4873C253.778 10.4923 253.99 10.471 254.202 10.461C254.47 10.4484 254.63 10.4021 254.53 10.362C254.435 10.3231 254.306 10.3156 254.15 10.3369ZM26.4514 7.65936C26.5898 7.65309 26.7325 7.64808 26.8709 7.63931C27.0007 7.63054 27.1003 7.60297 27.1652 7.56163C27.057 7.52905 26.9359 7.51151 26.8018 7.51527C26.5898 7.52278 26.3822 7.53281 26.1746 7.54534C26.0448 7.55285 25.9194 7.58042 25.8891 7.62302C25.8588 7.6556 26.1486 7.67439 26.4514 7.65936ZM235.857 7.4664C235.913 7.47768 235.969 7.50023 236.025 7.50023C236.164 7.50023 236.306 7.49271 236.436 7.48018C236.492 7.47517 236.536 7.45262 236.562 7.43508C236.579 7.4238 236.575 7.40376 236.549 7.39373C236.423 7.33359 235.921 7.35489 235.839 7.4238C235.831 7.43633 235.852 7.45262 235.857 7.4664ZM222.209 0.605229C222.222 0.625276 222.226 0.645321 222.244 0.665368C222.278 0.702956 222.373 0.730527 222.512 0.749321C222.62 0.717997 222.676 0.68292 222.672 0.645332C222.668 0.625284 222.655 0.605224 222.637 0.585177C222.603 0.547588 222.508 0.520033 222.369 0.501239C222.261 0.53131 222.209 0.566387 222.209 0.605229ZM301.671 17.0227C301.633 17.039 301.594 17.0553 301.55 17.0703C301.667 17.1066 301.775 17.1179 301.858 17.0978C301.909 17.0853 301.94 17.0665 301.979 17.0502C301.862 17.0139 301.758 17.0039 301.671 17.0227ZM298.981 17.1931C299.037 17.2043 299.089 17.2194 299.15 17.2269C299.249 17.2394 299.34 17.2181 299.409 17.173C299.353 17.1617 299.301 17.1467 299.24 17.1392C299.141 17.1267 299.05 17.148 298.981 17.1931ZM300.685 16.9638C300.655 16.9939 300.716 17.0189 300.876 17.0402C300.915 17.0239 300.966 17.0089 300.992 16.9913C301.036 16.9625 300.962 16.9362 300.806 16.9162C300.763 16.9312 300.724 16.9475 300.685 16.9638ZM291.554 15.6131C291.523 15.6432 291.584 15.6682 291.744 15.6895C291.783 15.6732 291.835 15.6582 291.861 15.6407C291.904 15.6118 291.831 15.5855 291.675 15.5655C291.632 15.5805 291.593 15.5968 291.554 15.6131ZM279.113 6.74721C279.074 6.76349 279.035 6.77978 278.992 6.79482C279.109 6.83115 279.217 6.84243 279.299 6.82238C279.351 6.80985 279.381 6.79106 279.42 6.77477C279.303 6.73843 279.2 6.72841 279.113 6.74721ZM267.196 2.04362C267.3 2.05239 267.386 2.03485 267.46 1.98849C267.404 1.97722 267.352 1.96218 267.291 1.95466C267.192 1.94213 267.101 1.96344 267.032 2.00854C267.088 2.02107 267.144 2.03234 267.196 2.04362ZM260.868 1.74918C260.829 1.76546 260.79 1.78175 260.746 1.79679C260.863 1.83312 260.971 1.8444 261.054 1.82435C261.105 1.81182 261.136 1.79302 261.175 1.77674C261.058 1.7404 260.954 1.73163 260.868 1.74918ZM217.953 0.603974C217.914 0.620263 217.875 0.636552 217.832 0.651587C217.948 0.687923 218.057 0.699196 218.139 0.679148C218.191 0.666619 218.221 0.647824 218.26 0.631536C218.143 0.5952 218.039 0.586433 217.953 0.603974ZM4.26937 10.798C4.21314 10.7867 4.15695 10.7755 4.10505 10.7629C3.9796 10.7968 3.94068 10.8281 4.00989 10.8519C4.05315 10.8669 4.11799 10.8757 4.17422 10.887C4.30399 10.8531 4.33426 10.8231 4.26937 10.798Z" fill="#4F9CF9"/>
<path d="M29.3578 6.3736C28.8603 6.3974 28.3672 6.42747 27.8698 6.4425C27.6059 6.45002 27.5108 6.5039 27.4027 6.55402C27.3162 6.59411 27.2167 6.60664 27.0566 6.61416C25.707 6.67555 24.3617 6.74071 23.0164 6.80461C22.8477 6.78832 22.7655 6.76201 22.8045 6.73069C22.8261 6.71189 22.878 6.68558 22.9299 6.68307C23.8513 6.63671 24.7683 6.5891 25.694 6.55276C25.9578 6.54274 26.0314 6.48761 26.1655 6.4425C26.2088 6.42747 26.2434 6.40491 26.2996 6.39614C26.3559 6.38612 26.438 6.38738 26.5116 6.38487C27.9996 6.31345 29.4877 6.24329 30.9757 6.17188C31.1444 6.18816 31.2266 6.21447 31.1876 6.24579C31.166 6.26459 31.1141 6.2909 31.0622 6.29341C30.4912 6.31972 29.9244 6.34603 29.3578 6.3736Z" fill="#4F9CF9"/>
<path d="M301.728 13.0458C301.503 13.0609 301.218 13.0822 300.984 13.0095C300.872 12.9744 300.751 12.9631 300.604 12.9707C300.392 12.9832 300.175 12.9932 299.959 13.0007C299.903 13.002 299.829 12.9882 299.773 12.9769C299.652 12.9544 299.548 12.9168 299.418 12.9068C299.289 12.8967 299.133 12.9243 298.999 12.918C298.821 12.9093 298.748 12.8754 298.795 12.8441C298.821 12.8266 298.873 12.8015 298.93 12.7977C299.73 12.7514 299.734 12.7514 299.959 12.7965C300.132 12.8316 300.292 12.8704 300.539 12.8491C300.746 12.8316 300.967 12.8278 301.179 12.8165C301.473 12.8015 301.473 12.8027 301.949 12.8817C302.07 12.9017 302.2 12.9005 302.355 12.8892C302.49 12.8804 302.619 12.9005 302.727 12.9343C302.658 12.9769 302.559 13.0045 302.425 13.012C302.208 13.0245 301.996 13.0333 301.728 13.0458Z" fill="#4F9CF9"/>
<path d="M293.766 12.6598C294.311 12.6335 294.86 12.6109 295.405 12.5809C295.63 12.5683 295.807 12.5821 295.963 12.6247C296.132 12.6711 296.322 12.6673 296.53 12.6585C296.66 12.6535 296.785 12.6736 296.872 12.7086C296.906 12.7224 296.897 12.7475 296.91 12.7675C296.435 12.7901 295.954 12.8139 295.474 12.8339C295.418 12.8364 295.349 12.8239 295.297 12.8139C295.18 12.7926 295.081 12.755 294.955 12.7475C294.687 12.73 294.419 12.7638 294.146 12.77C294.017 12.7725 293.891 12.7538 293.805 12.7199C293.77 12.7036 293.779 12.6798 293.766 12.6598Z" fill="#4F9CF9"/>
<path d="M96.7959 1.88685C97.3626 1.85928 97.9292 1.83298 98.4959 1.80542C98.6646 1.82296 98.7425 1.84802 98.7079 1.87934C98.6862 1.89813 98.6343 1.92445 98.5824 1.92695C97.4491 1.98334 96.3158 2.0372 95.1868 2.09108C95.0181 2.07354 94.9403 2.04849 94.9749 2.01716C94.9965 1.99837 95.0484 1.97205 95.1003 1.96955C95.6627 1.94073 96.2293 1.91441 96.7959 1.88685Z" fill="#4F9CF9"/>
<path d="M9.47787 8.84996C9.22266 8.85246 8.95452 8.89882 8.66903 8.86374C8.61279 8.85747 8.53491 8.83742 8.53924 8.82614C8.54789 8.80735 8.5998 8.78354 8.65604 8.77602C8.9026 8.7447 9.20975 8.74094 9.33519 8.65324C9.39575 8.60813 9.50822 8.5931 9.65962 8.58433C9.81967 8.57431 9.9321 8.57806 10.0575 8.60437C10.2219 8.6382 10.3604 8.70085 10.6199 8.66827C10.6329 8.68832 10.6631 8.71087 10.6501 8.72966C10.6371 8.74846 10.581 8.766 10.5291 8.77978C10.4815 8.79231 10.4166 8.80359 10.356 8.80735C10.0705 8.82238 9.78499 8.83492 9.47787 8.84996Z" fill="#4F9CF9"/>
<path d="M234.447 8.59789C234.659 8.58787 234.88 8.58286 235.087 8.56531C235.252 8.55153 235.356 8.5603 235.485 8.59037C235.706 8.64299 235.719 8.63799 236.26 8.64551C236.32 8.64676 236.394 8.66554 236.428 8.68183C236.45 8.6906 236.42 8.71442 236.394 8.72695C236.355 8.74324 236.299 8.76453 236.247 8.76453C235.905 8.76829 235.559 8.84222 235.226 8.75702C235.057 8.71442 234.871 8.69436 234.642 8.71315C234.503 8.72443 234.356 8.72945 234.214 8.73446C234.075 8.73947 233.933 8.72569 233.846 8.6881C233.721 8.63297 233.794 8.61168 234.019 8.61544C234.162 8.61794 234.305 8.60416 234.447 8.59789Z" fill="#4F9CF9"/>
<path d="M312.843 17.2347C313.116 17.2221 313.388 17.2071 313.665 17.1971C313.722 17.1946 313.791 17.2084 313.843 17.2171C314.05 17.2547 314.02 17.3186 314.029 17.375C314.033 17.4339 313.553 17.4815 313.35 17.4414C313.125 17.3963 312.921 17.3449 312.61 17.3725C312.489 17.3825 312.346 17.36 312.268 17.3236C312.151 17.271 312.216 17.2497 312.437 17.2535C312.567 17.256 312.705 17.2422 312.843 17.2347Z" fill="#4F9CF9"/>
<path d="M175.514 0.180518C175.795 0.166736 176.076 0.145446 176.357 0.144193C176.522 0.14294 176.604 0.184279 176.565 0.21435C176.543 0.233145 176.491 0.259457 176.439 0.261963C175.877 0.292034 175.315 0.317097 174.752 0.344662C174.588 0.327121 174.506 0.300813 174.545 0.270742C174.566 0.251948 174.618 0.226888 174.67 0.223129C174.951 0.205588 175.232 0.194301 175.514 0.180518Z" fill="#4F9CF9"/>
<path d="M307.45 13.1562C307.722 13.1436 307.999 13.1248 308.272 13.1186C308.414 13.1161 308.527 13.1449 308.544 13.1774C308.553 13.1925 308.484 13.2188 308.427 13.2251C308.038 13.2677 307.618 13.2727 307.212 13.294C307.082 13.3002 306.944 13.2802 306.866 13.2451C306.749 13.1912 306.814 13.1712 307.035 13.175C307.173 13.1762 307.311 13.1624 307.45 13.1562Z" fill="#4F9CF9"/>
<path d="M241.592 8.76702C241.731 8.76076 241.873 8.74447 242.007 8.74948C242.15 8.75574 242.241 8.79208 242.284 8.82842C242.332 8.86976 242.327 8.90861 242.284 8.94369C242.215 9.00383 242.146 9.00133 241.986 8.96124C241.739 8.89859 241.722 8.9061 241.233 8.90861C241.177 8.90861 241.108 8.88981 241.064 8.87352C240.999 8.84846 241.034 8.80963 241.185 8.78707C241.298 8.77078 241.454 8.77329 241.592 8.76702Z" fill="#4F9CF9"/>
<path d="M297.315 12.7453C297.518 12.7353 297.721 12.719 297.925 12.719C298.067 12.7178 298.18 12.7466 298.193 12.7779C298.197 12.793 298.132 12.818 298.08 12.8255C297.834 12.8594 297.557 12.8619 297.289 12.8731C297.163 12.8782 297.025 12.8581 296.947 12.823C296.83 12.7704 296.9 12.7466 297.111 12.7541C297.176 12.7566 297.246 12.7491 297.315 12.7453Z" fill="#4F9CF9"/>
<path d="M265.318 11.2079C265.015 11.2229 264.73 11.2041 264.751 11.1716C264.781 11.129 264.907 11.1014 265.037 11.0939C265.244 11.0813 265.452 11.0713 265.664 11.0638C265.798 11.0588 265.919 11.0776 266.027 11.1102C265.962 11.1502 265.863 11.1791 265.733 11.1878C265.599 11.1966 265.456 11.2016 265.318 11.2079Z" fill="#4F9CF9"/>
<path d="M263.334 11.0475C263.538 11.0374 263.741 11.0212 263.944 11.0212C264.087 11.0199 264.199 11.0487 264.212 11.08C264.217 11.0951 264.152 11.1201 264.1 11.1277C263.853 11.1615 263.576 11.164 263.308 11.1753C263.183 11.1803 263.044 11.1602 262.967 11.1251C262.85 11.0725 262.919 11.0487 263.131 11.0562C263.196 11.0587 263.265 11.0512 263.334 11.0475Z" fill="#4F9CF9"/>
<path d="M239.139 8.75711C239.342 8.74708 239.546 8.73078 239.749 8.72953C239.892 8.72828 240.004 8.75711 240.017 8.78843C240.021 8.80347 239.957 8.82727 239.905 8.83604C239.658 8.86987 239.381 8.87238 239.113 8.88366C238.988 8.88867 238.849 8.86862 238.771 8.83354C238.654 8.78091 238.724 8.7571 238.936 8.76462C239 8.76712 239.07 8.75961 239.139 8.75711Z" fill="#4F9CF9"/>
<path d="M238.002 8.68316C238.219 8.67314 238.288 8.66687 238.357 8.66687C238.487 8.66687 238.621 8.68191 238.699 8.71825C238.816 8.77087 238.746 8.78591 238.534 8.78842C238.262 8.79092 237.994 8.81724 237.721 8.82225C237.578 8.82476 237.466 8.79467 237.457 8.76335C237.453 8.74831 237.518 8.722 237.57 8.71699C237.751 8.6982 237.95 8.68692 238.002 8.68316Z" fill="#4F9CF9"/>
<path d="M261.572 1.31182C261.434 1.31808 261.287 1.33563 261.157 1.32936C260.984 1.32059 260.915 1.28676 260.958 1.25544C260.984 1.2379 261.031 1.21284 261.083 1.20908C261.36 1.19154 261.641 1.18025 261.918 1.16772C262.083 1.18652 262.156 1.21283 262.113 1.24415C262.087 1.26169 262.039 1.2855 261.987 1.29051C261.853 1.30304 261.71 1.30555 261.572 1.31182Z" fill="#4F9CF9"/>
<path d="M93.6928 2.03461C93.8269 2.03336 93.948 2.04965 94.0518 2.08097C93.9869 2.12107 93.8918 2.14738 93.762 2.15865C93.6971 2.16367 93.6236 2.16742 93.5544 2.16867C93.4203 2.17118 93.2991 2.15364 93.1953 2.12231C93.2602 2.08222 93.3597 2.05591 93.4851 2.04463C93.55 2.03962 93.6236 2.03837 93.6928 2.03461Z" fill="#4F9CF9"/>
<path d="M305.973 13.1513C305.968 13.1149 306.232 13.0736 306.47 13.0749C306.596 13.0761 306.725 13.0937 306.799 13.1275C306.911 13.1789 306.846 13.1989 306.634 13.1951C306.505 13.1926 306.366 13.2139 306.237 13.2102C306.089 13.2089 306.003 13.1814 305.973 13.1513Z" fill="#4F9CF9"/>
<path d="M242.845 8.9187C242.841 8.90492 242.819 8.88864 242.832 8.87611C242.914 8.80719 243.412 8.78589 243.542 8.84604C243.563 8.85731 243.572 8.8761 243.555 8.88738C243.529 8.90492 243.481 8.92747 243.429 8.93248C243.295 8.94501 243.157 8.95128 243.018 8.95253C242.958 8.95253 242.901 8.93123 242.845 8.9187Z" fill="#4F9CF9"/>
<path d="M11.0173 8.64934C10.5068 8.67565 10.4982 8.67314 10.589 8.61049C10.6712 8.5541 10.8226 8.52028 11.0433 8.52028C11.1081 8.52028 11.1773 8.51778 11.2336 8.52279C11.2941 8.52905 11.3807 8.54157 11.3937 8.5566C11.4196 8.58542 11.346 8.61675 11.2162 8.63805C11.16 8.64807 11.0865 8.64558 11.0173 8.64934Z" fill="#4F9CF9"/>
<path d="M100.083 1.85831C99.9312 1.87961 99.8015 1.8721 99.7063 1.832C99.6112 1.79191 99.7626 1.74429 100.026 1.73302C100.096 1.73051 100.169 1.72049 100.234 1.72551C100.299 1.72926 100.364 1.74429 100.403 1.75932C100.472 1.78438 100.429 1.81822 100.29 1.84704C100.234 1.85832 100.152 1.85581 100.083 1.85831Z" fill="#4F9CF9"/>
<path d="M305.072 13.057C305.11 13.0407 305.149 13.0244 305.193 13.0094C305.353 13.0307 305.422 13.0558 305.379 13.0846C305.353 13.1021 305.301 13.1172 305.262 13.1334C305.102 13.1121 305.037 13.0858 305.072 13.057Z" fill="#4F9CF9"/>
<path d="M17.8691 22.9127C17.8691 22.8976 17.9297 22.8738 17.9773 22.8688C18.0681 22.86 18.1805 22.8776 18.2584 22.9127C18.3665 22.9628 18.3017 22.9891 18.1027 22.9753C17.9643 22.9653 17.8691 22.9402 17.8691 22.9127Z" fill="#4F9CF9"/>
<path d="M244.608 7.75218C244.664 7.76346 244.72 7.77474 244.772 7.78727C244.699 7.83363 244.608 7.85367 244.513 7.84114C244.452 7.83362 244.4 7.81858 244.344 7.8073C244.417 7.76095 244.504 7.74341 244.608 7.75218Z" fill="#4F9CF9"/>
<path d="M243.111 7.69544C243.197 7.67664 243.301 7.68668 243.422 7.72301C243.383 7.7393 243.349 7.7581 243.301 7.77063C243.219 7.79067 243.111 7.78064 242.994 7.74305C243.029 7.72801 243.068 7.71172 243.111 7.69544Z" fill="#4F9CF9"/>
<path d="M241.963 7.75067C242.019 7.76195 242.076 7.77323 242.127 7.78576C242.054 7.83211 241.967 7.85215 241.868 7.83962C241.807 7.83211 241.755 7.81707 241.699 7.80579C241.773 7.75943 241.859 7.74065 241.963 7.75067Z" fill="#4F9CF9"/>
<path d="M241.121 7.6845C241.185 7.70956 241.151 7.73963 241.025 7.77346C240.969 7.76218 240.904 7.75342 240.861 7.73838C240.792 7.71458 240.826 7.68324 240.956 7.64941C241.008 7.66194 241.064 7.67322 241.121 7.6845Z" fill="#4F9CF9"/>
</svg>
