<svg width="9" height="17" viewBox="0 0 9 17" fill="none" xmlns="http://www.w3.org/2000/svg">
<path d="M2.5058 9.41763C2.44316 9.41763 1.06497 9.41763 0.438515 9.41763C0.104408 9.41763 0 9.29234 0 8.97912C0 8.14385 0 7.2877 0 6.45244C0 6.11833 0.12529 6.01392 0.438515 6.01392H2.5058C2.5058 5.95128 2.5058 4.74014 2.5058 4.17633C2.5058 3.34107 2.65197 2.54756 3.06961 1.81671C3.50812 1.06497 4.13457 0.563805 4.92807 0.271462C5.45012 0.0835265 5.97216 0 6.53596 0H8.58237C8.87471 0 9 0.12529 9 0.417633V2.79814C9 3.09049 8.87471 3.21578 8.58237 3.21578C8.01856 3.21578 7.45476 3.21578 6.89095 3.23666C6.32715 3.23666 6.0348 3.50812 6.0348 4.09281C6.01392 4.71926 6.0348 5.32483 6.0348 5.97216H8.45708C8.79118 5.97216 8.91647 6.09745 8.91647 6.43156V8.95824C8.91647 9.29234 8.81207 9.39675 8.45708 9.39675C7.70534 9.39675 6.09745 9.39675 6.0348 9.39675V16.2042C6.0348 16.5592 5.93039 16.6845 5.55452 16.6845C4.67749 16.6845 3.82135 16.6845 2.94432 16.6845C2.63109 16.6845 2.5058 16.5592 2.5058 16.2459C2.5058 14.0534 2.5058 9.48028 2.5058 9.41763Z" fill="#F7F7EE"/>
</svg>
