<svg width="211" height="70" viewBox="0 0 211 70" fill="none" xmlns="http://www.w3.org/2000/svg">
<path d="M90.294 36.7398C90.294 46.784 82.4767 54.1853 72.8831 54.1853C63.2896 54.1853 55.4723 46.784 55.4723 36.7398C55.4723 26.6248 63.2896 19.2942 72.8831 19.2942C82.4767 19.2942 90.294 26.6248 90.294 36.7398ZM82.6723 36.7398C82.6723 30.4631 78.1416 26.1686 72.8831 26.1686C67.6247 26.1686 63.0939 30.4631 63.0939 36.7398C63.0939 42.9535 67.6247 47.3109 72.8831 47.3109C78.1416 47.3109 82.6723 42.9456 82.6723 36.7398Z" fill="#EA4335"/>
<path d="M127.854 36.7398C127.854 46.784 120.037 54.1853 110.443 54.1853C100.85 54.1853 93.0326 46.784 93.0326 36.7398C93.0326 26.6327 100.85 19.2942 110.443 19.2942C120.037 19.2942 127.854 26.6248 127.854 36.7398ZM120.233 36.7398C120.233 30.4631 115.702 26.1686 110.443 26.1686C105.185 26.1686 100.654 30.4631 100.654 36.7398C100.654 42.9535 105.185 47.3109 110.443 47.3109C115.702 47.3109 120.233 42.9456 120.233 36.7398Z" fill="#FBBC05"/>
<path d="M163.85 20.3482V51.6684C163.85 64.552 156.291 69.814 147.355 69.814C138.943 69.814 133.88 64.1587 131.97 59.5338L138.606 56.7573C139.788 59.5968 142.683 62.9474 147.347 62.9474C153.067 62.9474 156.612 59.4001 156.612 52.7224V50.2133H156.346C154.64 52.3291 151.353 54.1775 147.206 54.1775C138.528 54.1775 130.578 46.5794 130.578 36.8027C130.578 26.9551 138.528 19.2942 147.206 19.2942C151.345 19.2942 154.632 21.1426 156.346 23.1955H156.612V20.356H163.85V20.3482ZM157.152 36.8027C157.152 30.6598 153.075 26.1686 147.887 26.1686C142.628 26.1686 138.223 30.6598 138.223 36.8027C138.223 42.8827 142.628 47.3109 147.887 47.3109C153.075 47.3109 157.152 42.8827 157.152 36.8027Z" fill="#4285F4"/>
<path d="M175.783 1.98975V53.1152H168.35V1.98975H175.783Z" fill="#34A853"/>
<path d="M204.752 42.4813L210.668 46.4455C208.758 49.285 204.157 54.1773 196.207 54.1773C186.347 54.1773 178.984 46.5163 178.984 36.7317C178.984 26.3572 186.41 19.2861 195.354 19.2861C204.361 19.2861 208.766 26.4909 210.206 30.3843L210.996 32.3664L187.795 42.0251C189.571 45.5253 192.333 47.3107 196.207 47.3107C200.088 47.3107 202.78 45.3916 204.752 42.4813ZM186.543 36.2047L202.052 29.7314C201.199 27.5527 198.633 26.0347 195.612 26.0347C191.739 26.0347 186.347 29.4719 186.543 36.2047Z" fill="#EA4335"/>
<path d="M27.3331 32.2012V24.7998H52.1465C52.3891 26.0897 52.5143 27.6156 52.5143 29.2673C52.5143 34.8203 51.0041 41.6869 46.1368 46.5792C41.4027 51.5344 35.3538 54.1772 27.3409 54.1772C12.4889 54.1772 0 42.0172 0 27.0886C0 12.16 12.4889 0 27.3409 0C35.5573 0 41.4105 3.24057 45.8082 7.46431L40.6123 12.687C37.4588 9.71383 33.1863 7.40139 27.3331 7.40139C16.4875 7.40139 8.00509 16.1871 8.00509 27.0886C8.00509 37.9901 16.4875 46.7758 27.3331 46.7758C34.3679 46.7758 38.3743 43.9364 40.941 41.3565C43.0225 39.2643 44.3918 36.2755 44.9318 32.1933L27.3331 32.2012Z" fill="#4285F4"/>
</svg>
