<svg width="582" height="471" viewBox="0 0 582 471" fill="none" xmlns="http://www.w3.org/2000/svg">
<circle cx="284.764" cy="179.796" r="144.5" stroke="#4F9CF9" stroke-width="2" stroke-dasharray="15 15"/>
<circle cx="181.875" cy="325.296" r="144.5" stroke="#4F9CF9" stroke-width="2" stroke-dasharray="15 15"/>
<circle cx="400.125" cy="325.296" r="144.5" stroke="#4F9CF9" stroke-width="2" stroke-dasharray="15 15"/>
<circle cx="429.225" cy="182.914" r="36.375" fill="white"/>
<g clip-path="url(#clip0_9_2589)">
<path d="M423.379 184.193C420.861 184.193 418.812 186.242 418.812 188.76V200.172C418.812 202.691 420.861 204.739 423.379 204.739C425.898 204.739 427.946 202.691 427.946 200.172V188.76C427.946 186.242 425.898 184.193 423.379 184.193Z" fill="#FF4340"/>
<path d="M416.257 184.193H411.835C409.397 184.193 407.414 186.177 407.414 188.614C407.414 191.052 409.397 193.036 411.835 193.036C414.273 193.036 416.257 191.052 416.257 188.614V184.193Z" fill="#FF4340"/>
<path d="M407.4 177.069C407.4 179.587 409.449 181.635 411.967 181.635H423.38C425.898 181.635 427.947 179.587 427.947 177.069C427.947 174.55 425.898 172.502 423.38 172.502H411.967C409.449 172.502 407.4 174.55 407.4 177.069V177.069Z" fill="#36C6FF"/>
<path d="M423.527 169.944H427.948V165.523C427.948 163.085 425.965 161.101 423.527 161.101C421.089 161.101 419.105 163.085 419.105 165.523C419.105 167.96 421.089 169.944 423.527 169.944Z" fill="#36C6FF"/>
<path d="M435.071 181.635C437.589 181.635 439.638 179.587 439.638 177.068V165.656C439.638 163.138 437.589 161.089 435.071 161.089C432.552 161.089 430.504 163.138 430.504 165.656V177.068C430.504 179.587 432.552 181.635 435.071 181.635Z" fill="#0DC46E"/>
<path d="M442.195 181.636H446.617C449.054 181.636 451.038 179.652 451.038 177.214C451.038 174.777 449.054 172.793 446.617 172.793C444.179 172.793 442.195 174.777 442.195 177.214V181.636Z" fill="#0DC46E"/>
<path d="M451.05 188.76C451.05 186.242 449.001 184.193 446.483 184.193H435.071C432.552 184.193 430.504 186.242 430.504 188.76C430.504 191.278 432.552 193.327 435.071 193.327H446.483C449.001 193.327 451.05 191.278 451.05 188.76Z" fill="#FDCB02"/>
<path d="M434.925 195.884H430.504V200.306C430.504 202.743 432.487 204.727 434.925 204.727C437.363 204.727 439.346 202.743 439.346 200.306C439.346 197.868 437.363 195.884 434.925 195.884Z" fill="#FDCB02"/>
</g>
<circle cx="36.375" cy="313.864" r="36.375" fill="white"/>
<g clip-path="url(#clip1_9_2589)">
<path d="M56.8351 301.588H37.7383C36.9853 301.588 36.3742 302.199 36.3742 302.952C36.3742 303.705 36.9853 304.316 37.7383 304.316H52.8603L44.4795 310.834L38.4694 307.012L37.0071 309.314L43.8274 313.652C44.0484 313.794 44.3049 313.865 44.5586 313.865C44.8532 313.865 45.1506 313.769 45.3961 313.578L55.4711 305.74V323.413H37.7383C36.9853 323.413 36.3742 324.024 36.3742 324.777C36.3742 325.53 36.9853 326.141 37.7383 326.141H56.8351C57.5881 326.141 58.1992 325.53 58.1992 324.777V302.952C58.1992 302.199 57.5881 301.588 56.8351 301.588Z" fill="#1976D2"/>
<path d="M38.6093 293.718C38.2983 293.459 37.8809 293.347 37.4881 293.428L15.6631 297.521C15.0165 297.641 14.55 298.203 14.55 298.86V328.87C14.55 329.524 15.0165 330.089 15.6631 330.209L37.4881 334.301C37.5699 334.318 37.6545 334.326 37.7391 334.326C38.0555 334.326 38.3638 334.217 38.6093 334.012C38.9231 333.753 39.1031 333.366 39.1031 332.962V294.768C39.1031 294.362 38.9231 293.977 38.6093 293.718Z" fill="#2196F3"/>
<path d="M26.8273 323.413C23.068 323.413 20.007 319.741 20.007 315.229C20.007 310.716 23.068 307.044 26.8273 307.044C30.5867 307.044 33.6476 310.716 33.6476 315.229C33.6476 319.741 30.5867 323.413 26.8273 323.413ZM26.8273 309.772C24.5712 309.772 22.7351 312.219 22.7351 315.229C22.7351 318.238 24.5712 320.685 26.8273 320.685C29.0835 320.685 30.9195 318.238 30.9195 315.229C30.9195 312.219 29.0835 309.772 26.8273 309.772Z" fill="#FAFAFA"/>
</g>
<circle cx="545.625" cy="313.864" r="36.375" fill="white"/>
<g clip-path="url(#clip2_9_2589)">
<path d="M545.586 305.828L536.527 321.541H536.502L541.748 327.939L529.976 332.878C529.745 332.75 529.566 332.571 529.464 332.392L523.936 322.155C523.655 321.592 523.885 321.157 523.962 320.901L538.779 295.31C538.882 295.156 539.035 295.003 539.24 294.875H539.265L546.866 297.229L545.586 305.828Z" fill="#59C36A"/>
<path d="M567.45 321.541L557.187 327.939L554.756 321.541L545.586 305.828L539.265 294.875C539.444 294.747 539.674 294.67 539.879 294.67H551.378C551.634 294.747 552.146 294.721 552.479 295.31L567.296 320.901C567.398 321.081 567.45 321.311 567.45 321.541Z" fill="#FFDA2D"/>
<path d="M552.48 295.311C552.147 294.722 551.635 294.748 551.379 294.671H545.587V305.829L554.757 321.542L557.189 327.94L567.451 321.542C567.451 321.312 567.399 321.081 567.297 320.902L552.48 295.311Z" fill="#FDBF00"/>
<path d="M567.45 321.541C567.45 321.771 567.399 322.002 567.322 322.155L561.794 332.392C561.589 332.725 561.103 333.057 560.668 333.057H530.59C530.385 333.057 530.155 332.981 529.976 332.878L536.502 321.541H567.45Z" fill="#4086F4"/>
<path d="M545.587 333.057H560.669C561.104 333.057 561.59 332.725 561.795 332.392L567.323 322.155C567.4 322.002 567.451 321.771 567.451 321.541H545.587V333.057H545.587Z" fill="#4175DF"/>
</g>
<circle cx="139.264" cy="182.914" r="36.375" fill="white"/>
<g clip-path="url(#clip3_9_2589)">
<path d="M126.013 193.748V190.241L131.937 193.67L139.264 186.811V202.4L126.013 193.748Z" fill="#0093EB"/>
<path d="M118.921 184.473L126.638 177.458L139.265 185.253L131.938 192.112L118.921 184.473Z" fill="#0093EB"/>
<path d="M126.637 177.458L117.439 170.442L130.69 163.427L140.043 169.663L126.637 177.458Z" fill="#0093EB"/>
<path d="M152.514 193.826L139.263 202.4V186.811L146.824 193.359L152.514 189.773V193.826Z" fill="#0093EB"/>
<path d="M146.824 191.799L139.263 185.252L151.968 177.146L159.607 183.693L146.824 191.799Z" fill="#0093EB"/>
<path d="M151.968 177.146L140.042 169.663L149.396 163.427L161.088 170.442L151.968 177.146Z" fill="#0093EB"/>
</g>
<circle cx="291" cy="416.753" r="36.375" fill="white"/>
<g clip-path="url(#clip4_9_2589)">
<path d="M308.938 407.887H273.132C272.425 407.887 271.853 407.315 271.853 406.608V398.765C271.853 396.649 273.574 394.928 275.689 394.928H306.381C308.496 394.928 310.217 396.649 310.217 398.765V406.608C310.217 407.315 309.645 407.887 308.938 407.887Z" fill="#E3E7EA"/>
<path d="M306.38 394.928H291.035V407.887H308.938C309.645 407.887 310.217 407.315 310.217 406.608V398.765C310.217 396.649 308.496 394.928 306.38 394.928Z" fill="#BABAC0"/>
<path d="M271.804 421.953C271.804 421.952 271.804 421.951 271.804 421.951L269.26 409.831C269.081 408.68 269.388 407.529 270.104 406.685C270.846 405.815 271.92 405.329 273.045 405.329H308.955C310.08 405.329 311.154 405.815 311.896 406.685C312.612 407.529 312.919 408.68 312.74 409.779L310.196 421.957L312.74 434.077C312.919 435.228 312.612 436.379 311.896 437.223C311.154 438.092 310.08 438.578 308.955 438.578H273.045C271.92 438.578 270.846 438.092 270.104 437.223C269.388 436.379 269.081 435.228 269.26 434.128C269.26 434.128 271.76 422.165 271.804 421.953Z" fill="#4086F4"/>
<path d="M271.804 421.951C271.804 421.951 271.804 421.952 271.804 421.953H310.196L312.74 409.779C312.919 408.68 312.612 407.529 311.896 406.685C311.154 405.815 310.08 405.329 308.955 405.329H273.045C271.92 405.329 270.846 405.815 270.104 406.685C269.388 407.529 269.081 408.68 269.26 409.831L271.804 421.951Z" fill="#4175DF"/>
<path d="M278.212 402.601C278.918 402.601 279.491 402.029 279.491 401.322C279.491 400.616 278.918 400.043 278.212 400.043C277.506 400.043 276.933 400.616 276.933 401.322C276.933 402.029 277.506 402.601 278.212 402.601Z" fill="#FFF5F5"/>
<path d="M303.788 402.601C304.494 402.601 305.067 402.029 305.067 401.322C305.067 400.616 304.494 400.043 303.788 400.043C303.082 400.043 302.509 400.616 302.509 401.322C302.509 402.029 303.082 402.601 303.788 402.601Z" fill="#E3E7EA"/>
<path d="M285.885 430.905C283.722 430.905 281.782 429.535 281.062 427.495C280.826 426.829 281.174 426.098 281.841 425.864C282.504 425.626 283.237 425.977 283.472 426.643C283.833 427.662 284.803 428.348 285.885 428.348C287.294 428.348 288.442 427.2 288.442 425.79C288.442 424.38 287.294 423.232 285.885 423.232H284.295C283.589 423.232 283.016 422.66 283.016 421.954C283.016 421.247 283.589 420.675 284.295 420.675H285.885C287.294 420.675 288.442 419.527 288.442 418.117C288.442 416.707 287.294 415.56 285.885 415.56C284.803 415.56 283.833 416.245 283.472 417.264C283.237 417.931 282.503 418.281 281.841 418.044C281.174 417.809 280.826 417.078 281.061 416.413C281.782 414.372 283.722 413.002 285.885 413.002C288.706 413.002 291 415.296 291 418.117C291 419.643 290.328 421.016 289.264 421.954C290.328 422.891 291 424.264 291 425.79C291 428.611 288.706 430.905 285.885 430.905Z" fill="#FFF5F5"/>
<path d="M281.841 418.044C282.503 418.281 283.237 417.931 283.472 417.264C283.833 416.245 284.803 415.56 285.885 415.56C287.294 415.56 288.442 416.707 288.442 418.117C288.442 419.527 287.294 420.675 285.885 420.675H284.295C283.589 420.675 283.016 421.247 283.016 421.953H289.264C290.328 421.016 291 419.643 291 418.117C291 415.296 288.706 413.002 285.885 413.002C283.722 413.002 281.782 414.372 281.062 416.413C280.825 417.078 281.174 417.809 281.841 418.044Z" fill="#E3E7EA"/>
<path d="M298.674 430.905C297.967 430.905 297.395 430.333 297.395 429.626V416.67L295.547 417.902C294.957 418.292 294.164 418.135 293.773 417.548C293.381 416.959 293.54 416.166 294.128 415.774L297.964 413.217C298.356 412.956 298.862 412.931 299.277 413.153C299.693 413.375 299.953 413.809 299.953 414.281V429.626C299.953 430.333 299.381 430.905 298.674 430.905Z" fill="#FFF5F5"/>
<path d="M295.547 417.903L297.395 416.67V421.954H299.953V414.281C299.953 413.809 299.693 413.376 299.277 413.153C298.862 412.931 298.356 412.956 297.964 413.217L294.128 415.775C293.54 416.167 293.381 416.96 293.773 417.548C294.164 418.135 294.957 418.292 295.547 417.903Z" fill="#E3E7EA"/>
</g>
<circle cx="287.882" cy="36.375" r="36.375" fill="white"/>
<g clip-path="url(#clip5_9_2589)">
<path d="M304.252 20.0061H271.514V52.7436H304.252V20.0061Z" fill="#ECEFF1"/>
<path d="M287.882 39.8179L304.25 52.7437V27.2249L287.882 39.8179Z" fill="#CFD8DC"/>
<path d="M305.615 20.0063H304.251L287.882 32.9322L271.514 20.0063H270.149C267.891 20.0063 266.057 21.8396 266.057 24.0985V48.6517C266.057 50.9106 267.891 52.7439 270.149 52.7439H271.514V27.225L287.882 39.8153L304.251 27.2222V52.7439H305.615C307.874 52.7439 309.707 50.9106 309.707 48.6517V24.0985C309.707 21.8396 307.874 20.0063 305.615 20.0063Z" fill="#F44336"/>
</g>
<circle cx="289.961" cy="278.528" r="51.9643" fill="white"/>
<path d="M265 266.181V275.262C265 278.028 268.454 279.504 270.565 277.567L280.641 268.486C282.848 266.504 281.408 263 278.386 263H268.31C266.487 263 265 264.429 265 266.181Z" fill="#5986EF"/>
<path d="M312.69 263H302.614C299.64 263 298.152 266.504 300.359 268.486L310.435 277.567C312.546 279.457 316 278.028 316 275.262V266.181C316 264.429 314.513 263 312.69 263Z" fill="#5986EF"/>
<path d="M292.779 285.174L310.435 301.124C312.546 303.014 316 301.585 316 298.819V289.645C316 288.769 315.616 287.94 314.944 287.34L292.779 267.287C291.484 266.135 289.516 266.135 288.221 267.287L266.056 287.34C265.384 287.94 265 288.769 265 289.645V298.819C265 301.585 268.454 303.06 270.565 301.124L288.221 285.174C289.516 284.021 291.484 284.021 292.779 285.174Z" fill="#5986EF"/>
<defs>
<clipPath id="clip0_9_2589">
<rect width="43.65" height="43.65" fill="white" transform="translate(407.4 161.089)"/>
</clipPath>
<clipPath id="clip1_9_2589">
<rect width="43.65" height="43.65" fill="white" transform="translate(14.55 292.039)"/>
</clipPath>
<clipPath id="clip2_9_2589">
<rect width="43.65" height="43.65" fill="white" transform="translate(523.8 292.039)"/>
</clipPath>
<clipPath id="clip3_9_2589">
<rect width="43.65" height="43.65" fill="white" transform="translate(117.439 161.089)"/>
</clipPath>
<clipPath id="clip4_9_2589">
<rect width="43.65" height="43.65" fill="white" transform="translate(269.175 394.928)"/>
</clipPath>
<clipPath id="clip5_9_2589">
<rect width="43.65" height="43.65" fill="white" transform="translate(266.057 14.55)"/>
</clipPath>
</defs>
</svg>
