<svg width="258" height="48" viewBox="0 0 258 48" fill="none" xmlns="http://www.w3.org/2000/svg">
<path d="M241.322 25.1903C240.97 25.2302 240.615 25.2576 240.27 25.3175C240.046 25.3549 239.95 25.2452 239.801 25.1878C239.751 25.1679 239.698 25.128 239.652 25.133C239.304 25.1729 238.955 25.2177 238.607 25.2626C238.501 25.3599 238.433 25.4895 238.27 25.5369C238.11 25.5817 237.921 25.5817 237.744 25.6042C237.509 25.6316 237.275 25.659 237.04 25.684C236.923 25.6964 236.827 25.7438 236.788 25.8335C236.781 25.8485 236.859 25.8859 236.902 25.9083C237.044 25.9831 237.182 26.0679 237.339 26.1252C237.488 26.1801 237.673 26.0903 237.833 26.1601C238.192 26.3172 238.195 26.3147 238.469 26.2848C238.703 26.2574 238.938 26.2275 239.172 26.2075C239.218 26.2025 239.272 26.2399 239.321 26.2599C239.471 26.3147 239.567 26.4394 239.787 26.392C239.954 26.3546 240.139 26.3471 240.313 26.3272C240.459 26.3995 240.594 26.4817 240.75 26.5391C240.896 26.5939 240.938 26.6363 240.86 26.7086C240.789 26.7759 240.69 26.8034 240.558 26.8084C240.441 26.8109 240.324 26.8333 240.206 26.8457C240.146 26.8532 240.089 26.8582 240.032 26.8657C239.808 26.8931 239.808 26.8931 239.4 26.7336C239.24 26.6712 239.059 26.7585 238.906 26.6986C238.803 26.6588 238.714 26.5989 238.614 26.5566C238.572 26.5391 238.504 26.5366 238.451 26.5416C238.273 26.559 238.096 26.5715 237.925 26.6039C237.804 26.6263 237.733 26.6962 237.747 26.766C237.751 26.7934 237.836 26.8333 237.886 26.8358C238 26.8408 238.12 26.8058 238.231 26.8233C238.337 26.8408 238.447 26.8906 238.526 26.9455C238.685 27.0601 238.867 26.9579 239.019 26.9879C239.179 27.0203 239.311 27.12 239.464 27.1798C239.503 27.1948 239.577 27.1698 239.638 27.1624C239.812 27.1449 239.986 27.13 240.16 27.1125C240.306 27.1848 240.462 27.2496 240.594 27.3319C240.832 27.4815 241.088 27.5388 241.397 27.4665C241.571 27.4266 241.741 27.4416 241.88 27.5388C242.022 27.6385 242.186 27.6286 242.367 27.6086C242.534 27.5887 242.704 27.5338 242.875 27.6036C243.245 27.7582 243.248 27.7657 243.685 27.7059C243.817 27.6884 243.916 27.6834 244.016 27.7408C244.108 27.7931 244.207 27.838 244.303 27.8879C244.478 27.8704 244.655 27.853 244.829 27.833C245.053 27.8056 245.178 27.8405 245.231 27.9801C245.263 28.0649 245.277 28.1422 245.355 28.1995C245.448 28.2693 245.547 28.2668 245.682 28.2468C245.81 28.2294 245.902 28.202 245.956 28.1122C245.977 28.0748 246.02 28.0399 246.059 28.01C246.091 27.9876 246.141 27.9527 246.169 27.9577C246.222 27.9676 246.293 27.995 246.311 28.0275C246.485 28.3291 246.485 28.3316 246.663 28.4189C246.858 28.5161 247.061 28.6034 247.239 28.7131C247.398 28.8103 247.558 28.7679 247.732 28.7679C247.864 28.7679 247.949 28.8328 247.939 28.8976C247.932 28.935 247.882 28.9898 247.839 28.9948C247.491 29.0446 247.139 29.087 246.787 29.1219C246.745 29.1269 246.691 29.082 246.642 29.0596C246.542 29.0147 246.453 28.9449 246.347 28.93C246.24 28.915 246.116 28.9524 245.998 28.9649C245.881 28.9773 245.757 29.0098 245.65 28.9898C245.544 28.9699 245.458 28.8976 245.359 28.8502C245.313 28.8277 245.249 28.7954 245.21 28.8028C244.95 28.8627 244.758 28.7804 244.574 28.6707C244.534 28.6483 244.467 28.6333 244.417 28.6383C244.005 28.6807 243.596 28.7305 243.184 28.7779C243.017 28.7978 242.882 28.7106 242.846 28.5635C242.829 28.4812 242.793 28.3989 242.793 28.3167C242.793 28.1671 242.598 28.0848 242.456 28.1023C242.221 28.1272 241.983 28.1471 241.752 28.1845C241.564 28.2144 241.404 28.1845 241.276 28.0948C241.127 27.9926 240.956 28.0125 240.786 28.0399C240.658 28.0599 240.622 28.1421 240.629 28.3491C240.636 28.5161 240.576 28.5685 240.345 28.5959C240.053 28.6308 239.759 28.6657 239.464 28.6931C239.417 28.6981 239.364 28.6557 239.318 28.6333C239.218 28.5884 239.13 28.5161 239.023 28.5011C238.916 28.4837 238.792 28.5211 238.675 28.5361C238.557 28.5485 238.433 28.5834 238.327 28.566C238.22 28.5485 238.131 28.4737 238.035 28.4264C237.989 28.4039 237.932 28.3715 237.886 28.3765C237.651 28.3964 237.417 28.4264 237.182 28.4538C236.919 28.4837 236.919 28.4837 236.546 28.3291C236.376 28.2593 236.205 28.3142 236.038 28.3341C235.86 28.3541 235.693 28.364 235.555 28.2643C235.462 28.1995 235.359 28.1596 235.249 28.1721C234.954 28.202 234.663 28.2394 234.368 28.2693C234.318 28.2743 234.251 28.2618 234.212 28.2394C234.023 28.1347 233.839 28.0524 233.576 28.1048C233.348 28.1496 233.103 28.1521 232.876 28.1945C232.751 28.2169 232.694 28.2967 232.719 28.3591C232.733 28.3915 232.808 28.4289 232.858 28.4289C232.971 28.4314 233.096 28.3939 233.202 28.4089C233.423 28.4388 233.533 28.6482 233.821 28.5909C233.991 28.556 234.169 28.5435 234.347 28.5336C234.393 28.5311 234.443 28.5784 234.492 28.6034C234.634 28.6707 234.759 28.7579 234.965 28.7131C235.136 28.6782 235.317 28.6682 235.491 28.6483C235.768 28.6159 235.768 28.6183 236.127 28.7704C236.298 28.8427 236.468 28.7854 236.635 28.7679C236.759 28.7555 236.877 28.7305 236.976 28.7654C237.129 28.8178 237.239 28.9374 237.427 28.93C237.605 28.9225 237.779 28.8876 237.957 28.8751C238.067 28.8676 238.17 28.9075 238.259 28.9748C238.351 29.0422 238.451 29.0721 238.572 29.0571C238.746 29.0372 238.923 29.0122 239.101 28.9998C239.151 28.9973 239.208 29.0197 239.254 29.0397C239.353 29.0845 239.449 29.1369 239.545 29.1843C239.719 29.1693 239.897 29.1643 240.068 29.1344C240.199 29.112 240.292 29.1219 240.398 29.1718C240.533 29.2391 240.643 29.3588 240.864 29.3015C240.974 29.274 241.102 29.2815 241.212 29.2566C241.347 29.2242 241.439 29.2366 241.535 29.3114C241.717 29.4535 241.944 29.456 242.178 29.4012C242.434 29.3413 242.626 29.4111 242.818 29.5208C243.021 29.6355 243.021 29.633 243.177 29.9098C243.223 29.9895 243.355 30.0269 243.465 30.012C243.65 29.987 243.81 29.9995 243.945 30.0942C244.087 30.1965 244.257 30.184 244.431 30.1566C244.662 30.1192 244.893 30.0868 245.082 30.2314C245.174 30.3012 245.274 30.3186 245.398 30.3012C245.75 30.2563 246.105 30.2289 246.45 30.174C246.659 30.1391 246.78 30.2189 246.922 30.2862C247.114 30.3785 247.324 30.4607 247.324 30.6577C247.324 30.6901 247.374 30.7275 247.416 30.7524C247.509 30.8048 247.608 30.8496 247.704 30.8995C247.846 30.9743 247.985 31.0366 248.18 30.9967C248.351 30.9643 248.532 30.9544 248.706 30.9319C248.88 30.9095 249.04 30.897 249.197 30.9917C249.378 31.0989 249.57 31.2012 249.776 31.281C249.921 31.3383 250.113 31.2411 250.27 31.3184C250.366 31.3657 250.458 31.4206 250.561 31.4604C250.604 31.4779 250.671 31.4654 250.728 31.4604C250.845 31.4505 250.966 31.443 251.08 31.4181C251.211 31.3907 251.311 31.3957 251.41 31.453C251.503 31.5053 251.595 31.5776 251.702 31.5926C251.862 31.615 252.039 31.5153 252.199 31.63C252.281 31.6873 252.384 31.7422 252.491 31.7596C252.597 31.7771 252.722 31.7397 252.835 31.7422C252.885 31.7422 252.945 31.7821 252.974 31.8145C252.992 31.8319 252.967 31.8793 252.942 31.9042C252.91 31.9341 252.864 31.974 252.817 31.979C252.466 32.0239 252.114 32.0613 251.762 32.1037C251.552 32.1286 251.552 32.1286 251.13 31.9715C251.03 31.9341 250.92 31.9416 250.796 31.9591C250.629 31.9815 250.458 32.0239 250.284 31.979C250.057 31.8095 249.776 31.7945 249.477 31.8593C249.353 31.8868 249.239 31.8868 249.147 31.8394C248.951 31.7447 248.745 31.6574 248.571 31.5452C248.436 31.458 248.372 31.4505 248.315 31.5702C248.298 31.6076 248.28 31.6474 248.283 31.6823C248.305 31.807 248.344 31.9292 248.365 32.0538C248.372 32.0887 248.344 32.1286 248.326 32.166C248.269 32.2707 248.195 32.2632 248.07 32.176C247.946 32.0887 247.796 32.0314 247.597 32.0713C247.427 32.1062 247.242 32.1012 247.072 32.1386C246.809 32.1934 246.624 32.1137 246.436 32.0065C246.396 31.984 246.329 31.9715 246.279 31.9765C245.75 32.0339 245.224 32.0987 244.694 32.156C244.581 32.1685 244.478 32.1311 244.389 32.0638C244.296 31.9965 244.193 31.9616 244.08 31.974C243.61 32.0264 243.141 32.0738 242.672 32.1386C242.48 32.166 242.328 32.1336 242.196 32.0463C242.097 31.9815 242.004 31.9616 241.88 31.9691C241.745 31.9765 241.649 32.0015 241.582 32.0738C241.518 32.1436 241.564 32.1859 241.706 32.2408C241.859 32.3006 242.001 32.3779 242.146 32.4477C242.264 32.4378 242.381 32.4178 242.495 32.4203C242.544 32.4203 242.591 32.4652 242.64 32.4901C242.783 32.5624 242.914 32.6347 243.117 32.5948C243.287 32.5599 243.468 32.5524 243.642 32.53C243.884 32.5026 243.884 32.5026 244.275 32.6596C244.374 32.6995 244.481 32.697 244.609 32.6746C244.719 32.6571 244.833 32.692 244.911 32.7668C244.943 32.7967 244.932 32.8466 244.865 33.0112C244.865 33.1333 244.939 33.0785 244.964 32.9987C245.003 32.884 244.929 32.8466 244.787 32.909C244.687 32.9538 244.637 33.0187 244.662 33.071C244.677 33.0984 244.744 33.1333 244.865 33.0112C245.178 32.8616 245.416 32.8441 245.643 32.8042C245.778 32.7818 245.863 32.7918 245.97 32.8566C246.098 32.9339 246.226 33.0162 246.436 32.9763C246.663 32.9314 246.905 32.9264 247.136 32.889C247.349 32.8541 247.459 32.9638 247.594 33.0286C247.757 33.1059 247.939 33.0186 248.088 33.0635C248.244 33.1084 248.354 33.2181 248.536 33.238C248.799 33.1707 248.966 33.2954 249.165 33.3777C249.321 33.44 249.506 33.3851 249.673 33.3577C249.861 33.3278 250.017 33.3552 250.149 33.445C250.298 33.5472 250.465 33.5247 250.636 33.5023C251.034 33.4524 251.048 33.445 251.279 33.5821C251.446 33.6818 251.606 33.6369 251.773 33.6245C251.918 33.6918 252.061 33.7641 252.213 33.8239C252.253 33.8389 252.327 33.8139 252.388 33.8065C252.562 33.7865 252.739 33.7666 252.913 33.7466C253.031 33.7342 253.155 33.6968 253.262 33.7117C253.368 33.7292 253.457 33.8015 253.553 33.8489C253.649 33.8962 253.749 33.9436 253.841 33.9934C253.983 34.0682 254.118 34.1306 254.317 34.0932C254.488 34.0608 254.665 34.0508 254.843 34.0283C255.067 34.0009 255.06 34.0084 255.475 34.158C255.699 34.2403 255.93 34.1405 256.158 34.1306C256.271 34.1256 256.382 34.153 256.46 34.2253C256.492 34.2552 256.481 34.3051 256.492 34.3475C255.905 34.4148 255.316 34.4721 254.736 34.5544C254.512 34.5868 254.395 34.497 254.274 34.4222C254.075 34.3026 253.812 34.4771 253.624 34.3225C253.51 34.2303 253.347 34.1779 253.152 34.2228C253.038 34.2477 252.917 34.2452 252.8 34.2677C252.501 34.3225 252.228 34.325 251.99 34.153C251.908 34.0932 251.791 34.0608 251.705 34.0034C251.606 33.9411 251.51 33.9062 251.393 33.9186C250.863 33.9785 250.337 34.0383 249.811 34.1031C249.765 34.1081 249.719 34.1455 249.68 34.1729C249.58 34.2427 249.612 34.2976 249.772 34.3425C249.825 34.3574 249.868 34.3898 249.918 34.4148C250.014 34.4621 250.103 34.5369 250.209 34.5544C250.316 34.5718 250.44 34.5369 250.558 34.5245C250.675 34.512 250.799 34.4746 250.906 34.4896C251.012 34.507 251.101 34.5793 251.201 34.6242C251.247 34.6466 251.304 34.684 251.35 34.6815C251.584 34.6666 251.815 34.6392 252.05 34.6167C252.196 34.684 252.32 34.7813 252.494 34.8037C252.604 34.8187 252.722 34.7912 252.835 34.7962C252.885 34.7987 252.949 34.8361 252.974 34.8685C252.988 34.8885 252.942 34.9383 252.906 34.9633C252.771 35.058 252.587 35.0405 252.42 35.0704C252.238 35.1029 252.075 35.0929 251.936 34.9957C251.844 34.9309 251.741 34.896 251.627 34.9084C251.332 34.9408 251.041 34.9782 250.746 35.0057C250.696 35.0106 250.636 34.9882 250.589 34.9707C250.216 34.8187 250.216 34.8137 249.953 34.8461C249.566 34.8935 249.566 34.8934 249.307 34.7613C249.257 34.7364 249.204 34.689 249.161 34.6915C248.749 34.7314 248.34 34.7713 247.932 34.8286C247.796 34.8461 247.704 34.8461 247.605 34.7813C247.519 34.7264 247.42 34.6641 247.313 34.6491C247.203 34.6342 247.082 34.6716 246.965 34.684C246.848 34.6965 246.723 34.7289 246.62 34.709C246.514 34.689 246.421 34.6192 246.329 34.5694C246.233 34.517 246.13 34.5195 245.998 34.5394C245.593 34.5968 245.59 34.5893 245.188 34.4347C245.142 34.4173 245.082 34.3973 245.032 34.4023C244.737 34.4322 244.446 34.4696 244.151 34.4995C244.037 34.512 243.927 34.4796 243.849 34.4073C243.817 34.3774 243.827 34.3275 243.806 34.2303C243.781 34.2078 243.809 34.2477 243.817 34.2851C243.87 34.2802 243.934 34.2851 243.973 34.2652C244.072 34.2178 244.122 34.1555 244.097 34.1031C244.083 34.0757 244.016 34.0408 243.973 34.0408C243.895 34.0408 243.827 34.0956 243.806 34.2303C243.582 34.3125 243.344 34.33 243.113 34.3699C242.978 34.3948 242.893 34.3824 242.786 34.3176C242.658 34.2378 242.527 34.1605 242.317 34.2004C242.09 34.2452 241.848 34.2527 241.613 34.2876C241.343 34.3275 241.226 34.1031 240.999 34.1081C240.764 34.1131 240.53 34.1555 240.295 34.1854C240.089 34.2103 240.089 34.2103 239.663 34.0483C239.506 33.9884 239.322 34.0757 239.169 34.0134C239.066 33.9735 238.977 33.9137 238.877 33.8713C238.835 33.8538 238.767 33.8538 238.714 33.8588C238.419 33.8887 238.12 33.9087 237.836 33.9635C237.513 34.0283 237.268 33.9585 237.037 33.8115C236.745 33.8389 236.45 33.8538 236.163 33.9012C235.953 33.9361 235.832 33.8538 235.69 33.7865C235.64 33.7641 235.598 33.7267 235.544 33.7167C235.491 33.7067 235.427 33.7267 235.37 33.7341C235.135 33.7616 234.894 33.7741 234.666 33.8189C234.386 33.8763 234.279 33.6718 234.062 33.6469C233.917 33.7691 233.839 33.9361 233.551 33.9486C233.316 33.9585 233.082 33.9984 232.847 34.0259C232.73 34.0383 232.613 34.0533 232.495 34.0658C232.307 34.0882 232.218 34.1854 232.257 34.335C232.279 34.4173 232.296 34.4995 232.314 34.5818C232.35 34.7289 232.261 34.8536 232.112 34.871C231.699 34.9184 231.291 34.9682 230.878 35.0106C230.768 35.0231 230.662 34.9807 230.573 34.9134C230.48 34.8461 230.377 34.8162 230.264 34.8286C229.852 34.876 229.443 34.9259 229.031 34.9683C228.985 34.9732 228.924 34.9483 228.878 34.9284C228.778 34.8835 228.682 34.8311 228.587 34.7838C228.352 34.8062 228.121 34.8211 227.89 34.8511C227.517 34.8959 227.517 34.8984 227.243 34.7613C227.194 34.7364 227.144 34.689 227.098 34.6915C226.92 34.7015 226.746 34.7264 226.568 34.7489C226.046 34.8137 226.046 34.8137 225.893 34.7389C225.754 34.6691 225.63 34.5843 225.42 34.6242C225.193 34.6691 224.951 34.684 224.717 34.709C224.543 34.7264 224.369 34.7464 224.194 34.7514C224.148 34.7538 224.099 34.7065 224.049 34.6815C223.907 34.6043 223.768 34.5419 223.573 34.5843C223.459 34.6092 223.338 34.6142 223.221 34.6267C222.915 34.6616 222.915 34.6616 222.414 34.512C222.364 34.497 222.304 34.4796 222.254 34.4871C221.842 34.5319 221.433 34.5818 221.021 34.6242C220.971 34.6292 220.911 34.6142 220.861 34.6017C220.3 34.4571 220.3 34.4572 219.703 34.527C219.475 34.5519 219.468 34.5619 219.23 34.4297C219.124 34.3724 219.035 34.345 218.91 34.3624C218.441 34.4222 217.969 34.4622 217.503 34.532C217.294 34.5619 217.173 34.4871 217.031 34.4198C216.981 34.3973 216.928 34.3475 216.885 34.35C216.416 34.3973 215.947 34.4547 215.478 34.502C215.435 34.507 215.382 34.4572 215.332 34.4347C215.236 34.3898 215.144 34.3225 215.037 34.3076C214.927 34.2926 214.806 34.33 214.685 34.3425C214.39 34.3749 214.39 34.3724 214.049 34.2253C214.003 34.2054 213.943 34.1779 213.897 34.1829C213.427 34.2328 212.955 34.2752 212.489 34.3475C212.223 34.3874 212.042 34.315 211.853 34.2103C211.814 34.1879 211.747 34.1779 211.697 34.1829C211.167 34.2403 210.642 34.3051 210.112 34.3624C210.002 34.3749 209.895 34.3325 209.806 34.2677C209.664 34.1655 209.497 34.1779 209.32 34.2004C208.911 34.2527 208.907 34.2502 208.666 34.1306C208.616 34.1056 208.573 34.0732 208.52 34.0608C208.47 34.0483 208.406 34.0558 208.353 34.0608C208.119 34.0857 207.884 34.1131 207.65 34.1405C207.415 34.1679 207.177 34.1829 206.946 34.2253C206.662 34.2777 206.527 34.1156 206.328 34.0408C206.036 34.0732 205.738 34.0932 205.45 34.1455C205.23 34.1854 205.127 34.0757 204.981 34.0184C204.931 33.9984 204.878 33.956 204.832 33.961C204.302 34.0159 203.773 34.0757 203.247 34.143C203.119 34.158 203.034 34.138 202.927 34.0782C202.689 33.9436 202.678 33.9486 202.28 33.9984C202.106 34.0209 201.939 34.0408 201.79 33.9386C201.658 33.8464 201.499 33.8239 201.31 33.8538C201.079 33.8912 200.841 33.9112 200.607 33.9361C200.372 33.9635 200.138 34.0009 199.903 34.0134C199.715 34.0258 199.601 33.9087 199.452 33.8489C199.406 33.8314 199.342 33.8289 199.288 33.8339C199.054 33.8563 198.812 33.8738 198.585 33.9161C198.308 33.9685 198.155 33.8314 197.959 33.7516C197.917 33.7342 197.846 33.7441 197.792 33.7516C197.38 33.7965 196.971 33.8463 196.559 33.8937C196.414 33.8264 196.264 33.7616 196.119 33.6943C195.884 33.7192 195.65 33.7466 195.415 33.7716C195.237 33.7915 195.056 33.799 194.889 33.8364C194.672 33.8862 194.566 33.7691 194.42 33.7117C194.37 33.6918 194.317 33.6494 194.271 33.6544C193.976 33.6818 193.681 33.7117 193.39 33.7541C193.112 33.7965 193.002 33.5721 192.775 33.5746C192.54 33.5771 192.299 33.6095 192.071 33.6544C191.808 33.7067 191.623 33.6269 191.435 33.5197C191.396 33.4973 191.329 33.4848 191.279 33.4898C190.984 33.5197 190.693 33.5571 190.398 33.5871C190.348 33.5921 190.287 33.5796 190.238 33.5646C189.676 33.4175 189.676 33.4151 189.431 33.445C189.257 33.4649 189.079 33.4898 188.902 33.5023C188.852 33.5073 188.791 33.4849 188.745 33.4649C188.376 33.3128 188.376 33.3103 188.109 33.3403C187.875 33.3677 187.64 33.3951 187.406 33.4225C187.26 33.3552 187.111 33.2904 186.965 33.2231C186.674 33.2555 186.375 33.2804 186.087 33.3253C185.952 33.3452 185.863 33.3378 185.76 33.2754C185.632 33.2006 185.504 33.1134 185.291 33.1558C185.064 33.2006 184.822 33.2056 184.591 33.243C184.314 33.2879 184.2 33.061 183.976 33.0635C183.742 33.066 183.5 33.0984 183.273 33.1433C183.01 33.1956 182.825 33.1159 182.637 33.0087C182.598 32.9862 182.53 32.9738 182.48 32.9788C181.834 33.0511 181.191 33.1233 180.544 33.2006C180.146 33.248 180.146 33.2505 179.389 33.1134C179.336 33.1034 179.279 33.0934 179.225 33.0984C178.991 33.1209 178.749 33.1383 178.522 33.1807C178.245 33.233 178.092 33.0984 177.896 33.0161C177.854 32.9987 177.786 33.0087 177.729 33.0136C177.552 33.0311 177.378 33.0536 177.2 33.0735C176.965 33.1009 176.731 33.1283 176.496 33.1558C176.351 33.0909 176.201 33.0236 176.056 32.9588C175.764 32.9912 175.466 33.0087 175.178 33.061C174.958 33.1009 174.855 32.9962 174.709 32.9364C174.659 32.9164 174.606 32.874 174.56 32.8765C174.03 32.9314 173.501 32.9887 172.975 33.0585C172.758 33.0884 172.659 32.9762 172.513 32.9189C172.463 32.9015 172.406 32.8691 172.36 32.874C172.008 32.9089 171.657 32.9513 171.305 32.9937C171.106 33.0186 171.106 33.0186 170.672 32.8641C170.623 32.8466 170.566 32.8292 170.516 32.8341C169.4 32.9588 168.288 33.0909 167.172 33.2156C167.058 33.2281 166.955 33.1907 166.867 33.1234C166.774 33.056 166.671 33.0211 166.557 33.0336C166.088 33.086 165.616 33.1333 165.15 33.1982C164.958 33.2256 164.806 33.1931 164.674 33.1059C164.575 33.0411 164.482 33.0162 164.358 33.0311C164.123 33.061 163.889 33.0859 163.654 33.1134C163.42 33.1408 163.185 33.1682 162.951 33.1957C162.716 33.2231 162.478 33.238 162.247 33.2804C161.963 33.3328 161.824 33.1782 161.629 33.1009C161.277 33.1383 160.925 33.1757 160.577 33.2156C160.108 33.268 159.639 33.3253 159.17 33.3752C159.127 33.3801 159.074 33.3353 159.024 33.3128C158.878 33.2505 158.772 33.1632 158.555 33.1907C157.503 33.3228 156.444 33.435 155.389 33.5646C155.169 33.5921 155.073 33.4848 154.923 33.4275C154.874 33.4101 154.817 33.3752 154.771 33.3801C154.184 33.4425 153.598 33.5123 153.012 33.5796C152.774 33.607 152.774 33.607 152.376 33.4524C152.329 33.435 152.269 33.4125 152.219 33.4175C151.455 33.5023 150.695 33.5921 149.931 33.6793C149.817 33.6918 149.714 33.6569 149.622 33.5896C149.533 33.5222 149.426 33.4849 149.316 33.4973C148.612 33.5771 147.905 33.6544 147.205 33.7416C147.017 33.7666 146.861 33.7441 146.726 33.6544C146.63 33.5896 146.534 33.5621 146.413 33.5771C145.358 33.6992 144.302 33.8164 143.247 33.9461C143.044 33.971 142.902 33.9236 142.774 33.8414C142.671 33.7765 142.582 33.7641 142.454 33.774C142.319 33.7865 142.238 33.8139 142.163 33.8887C142.067 33.986 142.007 34.1081 141.779 34.1156C141.545 34.1231 141.307 34.153 141.076 34.1954C140.855 34.2378 140.752 34.1256 140.614 34.0583C140.511 34.0109 140.415 34.0034 140.283 34.0259C140.162 34.0458 140.088 34.0882 140.017 34.1679C139.86 34.3375 139.846 34.3375 139.654 34.2303C139.551 34.1729 139.459 34.1281 139.345 34.138C138.876 34.1879 138.407 34.2427 137.938 34.3001C137.668 34.3325 137.664 34.3375 137.462 34.2128C137.362 34.1505 137.266 34.1206 137.149 34.1355C135.859 34.2851 134.569 34.4297 133.279 34.5868C133.08 34.6117 132.945 34.5594 132.803 34.4846C132.757 34.4596 132.711 34.4247 132.658 34.4148C132.604 34.4048 132.544 34.4148 132.487 34.4198C131.549 34.527 130.607 34.6292 129.673 34.7489C129.459 34.7763 129.346 34.6965 129.2 34.6317C129.15 34.6092 129.108 34.5743 129.054 34.5644C129.001 34.5569 128.937 34.5743 128.88 34.5818C127.942 34.689 127 34.7912 126.066 34.9109C125.842 34.9383 125.746 34.8336 125.6 34.7788C125.551 34.7588 125.497 34.7214 125.451 34.7264C125.156 34.7538 124.865 34.7912 124.57 34.8236C123.866 34.9059 123.163 34.9832 122.459 35.068C122.189 35.1004 122.072 34.8785 121.844 34.8885C121.549 34.9009 121.258 34.9508 120.963 34.9857C120.729 35.0131 120.494 35.0381 120.259 35.068C120.029 35.0954 120.028 35.0954 119.453 34.9508C119.403 34.9383 119.343 34.9209 119.293 34.9259C118.472 35.0181 117.648 35.1103 116.83 35.2101C116.642 35.2325 116.486 35.2201 116.351 35.1278C116.255 35.063 116.155 35.0306 116.038 35.0455C114.805 35.1876 113.575 35.3298 112.342 35.4694C112.296 35.4743 112.236 35.4494 112.19 35.4295C112.09 35.3846 111.994 35.3322 111.898 35.2849C111.827 35.3422 111.735 35.3946 111.689 35.4594C111.625 35.5466 111.539 35.5716 111.404 35.5865C111.269 35.6015 111.184 35.5965 111.077 35.5317C110.949 35.4519 110.818 35.3896 110.608 35.4145C109.318 35.5716 108.028 35.7137 106.739 35.8683C106.525 35.8932 106.426 35.7835 106.277 35.7261C106.227 35.7087 106.17 35.6813 106.124 35.6863C105.594 35.7436 105.068 35.8059 104.539 35.8658C103.071 36.0353 101.604 36.1973 100.14 36.3769C99.8734 36.4093 99.6921 36.3469 99.5038 36.2397C99.4647 36.2173 99.3972 36.2048 99.3475 36.2098C97.2936 36.4442 95.2396 36.681 93.1893 36.9178C93.0791 36.9303 92.9725 36.8904 92.8837 36.8256C92.7913 36.7583 92.6883 36.7259 92.5746 36.7383C91.6364 36.8455 90.6984 36.9528 89.7603 37.0625C89.5257 37.0899 89.5221 37.0923 89.2805 36.9727C89.2308 36.9477 89.1775 36.9004 89.1384 36.9054C89.0567 36.9179 88.9785 36.9802 88.9216 37.0649C88.8647 37.1547 88.7759 37.1796 88.6444 37.1971C88.5094 37.2145 88.4206 37.207 88.3175 37.1472C88.1861 37.0724 88.0652 37.0001 87.852 37.0251C85.1549 37.3442 82.4579 37.6508 79.7608 37.9674C79.544 37.9923 79.4445 37.8877 79.2953 37.8303C79.2455 37.8129 79.1958 37.7879 79.1425 37.7829C79.0856 37.7779 79.0252 37.7929 78.9684 37.8004C74.5692 38.3065 70.1701 38.8151 65.7709 39.3212C65.5079 39.3511 65.5115 39.3511 65.2236 39.5805C65.1881 39.6079 65.1419 39.6453 65.0921 39.6503C63.7454 39.8098 62.3951 39.9644 61.0448 40.119C60.4585 40.1863 59.8722 40.2561 59.2858 40.3209C59.0762 40.3434 59.0762 40.3434 58.5751 40.6126C58.5325 40.6351 58.4827 40.665 58.433 40.67C56.0877 40.9417 53.7424 41.2134 51.3935 41.4802C51.2088 41.5002 51.0595 41.545 50.9743 41.6647C50.9139 41.7495 50.8357 41.7993 50.7184 41.8143C49.0767 42.0037 47.4351 42.1957 45.7898 42.3802C45.5944 42.4026 45.4771 42.4725 45.3811 42.5772C45.3492 42.6121 45.3207 42.6519 45.2745 42.6769C45.2319 42.6993 45.1679 42.7068 45.1146 42.7143C43.7075 42.8763 42.3003 43.0434 40.8896 43.198C40.68 43.2204 40.5946 43.3126 40.4916 43.4099C40.456 43.4423 40.4312 43.4872 40.385 43.5096C40.3388 43.5295 40.2713 43.5295 40.2144 43.5345C39.0418 43.6691 37.8692 43.8063 36.6965 43.9409C36.4691 43.9284 36.4193 44.073 36.3092 44.1603C36.2701 44.1902 36.2417 44.2301 36.1955 44.25C36.1458 44.27 36.0817 44.2675 36.0213 44.2725C35.0832 44.3797 34.1451 44.4944 33.2034 44.5941C32.9867 44.6165 32.944 44.7437 32.8268 44.8309C32.7877 44.8583 32.7486 44.9007 32.7024 44.9082C32.1161 44.9805 31.5298 45.0478 30.9435 45.1126C30.7481 45.1351 30.748 45.1326 30.4034 45.3794C30.3643 45.4068 30.318 45.4368 30.2683 45.4442C29.3906 45.5489 28.5094 45.6487 27.6281 45.7509C27.5144 45.7633 27.4362 45.8232 27.3794 45.9079C27.3225 45.9927 27.2408 46.0476 27.1271 46.06C26.4235 46.1423 25.7199 46.2271 25.0163 46.3018C24.8208 46.3218 24.6929 46.3841 24.6077 46.4963C24.5437 46.5811 24.4655 46.6234 24.3412 46.6384C23.6376 46.7182 22.934 46.8055 22.2269 46.8753C22.0208 46.8952 21.9141 46.98 21.8288 47.0847C21.7613 47.1694 21.6831 47.1994 21.5517 47.2143C20.2618 47.3589 18.9683 47.5035 17.682 47.6631C17.4652 47.6905 17.355 47.6032 17.2129 47.5409C17.0104 47.4536 16.8221 47.3589 16.8221 47.1644C16.8221 47.1345 16.7617 47.0996 16.719 47.0747C16.4028 46.8877 16.4027 46.8877 16.353 46.6883C16.3246 46.5661 16.2926 46.4415 16.2677 46.3168C16.2215 46.1124 16.1078 46.06 15.7809 46.0974C15.6636 46.1099 15.5463 46.1273 15.4291 46.1373C15.2549 46.1547 15.1235 46.0725 15.0915 45.9229C15.0737 45.8406 15.0524 45.7583 15.0347 45.6761C15.2124 45.6561 15.2088 45.6537 15.5215 45.352C15.6529 45.2248 15.653 45.2248 15.4007 45.0977C15.3048 45.0503 15.2123 44.9979 15.1093 44.9531C15.0631 44.9331 15.0027 44.9207 14.953 44.9257C14.658 44.9556 14.3666 44.9905 14.0753 45.0254C13.6062 45.0802 13.6062 45.0802 13.13 44.8259C13.0909 44.806 13.0305 44.7686 13.0376 44.7487C13.0767 44.6564 13.1726 44.6165 13.2934 44.6065C13.4711 44.5916 13.6452 44.5666 13.8193 44.5467C13.9366 44.5342 14.0539 44.5193 14.1711 44.5068C14.2813 44.4121 14.3951 44.3198 14.4981 44.2226C14.6616 44.073 14.6615 44.068 14.4376 43.9633C14.2955 43.8935 14.1427 43.8312 13.997 43.7664C13.8229 43.7863 13.6452 43.8087 13.4711 43.8262C13.2508 43.8486 13.1619 43.8013 13.1051 43.6392C13.0553 43.4971 13.1158 43.375 13.2863 43.345C13.4604 43.3151 13.624 43.2952 13.7128 43.168C13.7981 43.0459 13.9473 42.9985 14.1321 42.9885C14.2494 42.981 14.3666 42.9636 14.4839 42.9486C14.6367 42.9287 14.7184 42.8015 14.6864 42.6594C14.6687 42.5672 14.6331 42.4899 14.4945 42.47C13.8798 42.3827 13.8727 42.3852 13.5671 42.2157C13.5386 42.2007 13.5174 42.1558 13.528 42.1334C13.5458 42.096 13.5849 42.0411 13.6275 42.0337C14.0362 41.9788 14.4448 41.929 14.8534 41.8916C14.9885 41.8791 15.088 41.8616 15.1342 41.7694C15.1981 41.6422 15.1697 41.5251 15.0454 41.4378C15.0063 41.4104 14.9422 41.3755 14.8996 41.378C14.4305 41.4229 13.9651 41.4802 13.496 41.5251C13.4534 41.5301 13.3752 41.4877 13.3575 41.4553C13.3219 41.3955 13.3752 41.3157 13.4996 41.2882C13.663 41.2508 13.83 41.2483 13.9402 41.1237C14.093 40.9467 14.2813 40.7846 14.4519 40.6151C14.4803 40.5852 14.5265 40.5278 14.5159 40.5228C14.4271 40.468 14.324 40.4256 14.2316 40.3733C14.0752 40.286 14.0752 40.1639 14.1107 40.0467C14.1392 39.9519 14.2458 39.9145 14.3773 39.9145C14.4341 39.9145 14.5052 39.9145 14.5514 39.8921C14.6722 39.8373 14.7113 39.7674 14.6509 39.7151C14.6153 39.6852 14.5514 39.6428 14.5088 39.6478C13.7483 39.7301 12.9843 39.8098 12.2274 39.912C12.0035 39.942 11.9006 39.8472 11.7655 39.7799C11.6625 39.7275 11.5665 39.7076 11.4385 39.745C11.3177 39.7799 11.2005 39.76 11.1259 39.6777C11.0655 39.6104 11.1721 39.5531 11.4599 39.4882C11.5132 39.4758 11.5736 39.4683 11.6127 39.4433C12.0249 39.1741 12.0248 39.1716 12.3091 39.1367C12.5863 39.1043 12.5864 39.1018 12.732 38.9572C12.7996 38.8899 12.8741 38.8226 12.9381 38.7528C12.963 38.7253 13.0057 38.6755 12.9914 38.6605C12.9133 38.5832 12.8066 38.5658 12.6823 38.5832C12.4051 38.6256 12.0782 38.5907 11.9325 38.8276C11.8757 38.9173 11.7868 38.9422 11.6589 38.9572C10.3726 39.1018 9.08616 39.2564 7.79625 39.396C7.5866 39.4184 7.49071 39.5107 7.40898 39.6129C7.33791 39.6977 7.25972 39.7226 7.12469 39.7375C6.98966 39.7525 6.883 39.76 6.80483 39.6777C6.75863 39.6278 6.79773 39.558 6.90433 39.4882C7.05713 39.3885 7.02869 39.2639 6.97894 39.1467C6.94341 39.0694 6.83325 39.0145 6.71599 39.0195C6.54187 39.0295 6.3749 39.0569 6.22921 38.9572C6.14393 38.8999 6.03731 38.8599 5.94136 38.8101C5.75658 38.7079 5.5718 38.6032 5.31239 38.6705C5.13472 38.6456 5.01035 38.5558 4.86821 38.486C4.63013 38.3713 4.60881 38.3539 4.77938 38.2317C4.97126 38.0946 4.82199 37.9151 4.92859 37.7804C5.0423 37.6358 5.19871 37.5087 5.33729 37.3741C5.37283 37.3392 5.40482 37.3068 5.44036 37.2719C5.35863 37.222 5.28402 37.1597 5.18808 37.1248C5.0637 37.0799 4.99974 37.0251 5.00685 36.8705C4.98197 36.848 4.99256 36.9054 5.02099 36.9203C5.05297 36.9353 5.1312 36.9228 5.17029 36.9054C5.26979 36.858 5.31948 36.7957 5.29461 36.7433C5.2804 36.7159 5.21293 36.681 5.17029 36.681C5.09212 36.681 5.02461 36.7359 5.00329 36.8705C4.6053 36.9727 4.19304 37.0226 3.78084 37.0625C3.73819 37.0674 3.68492 37.0176 3.63518 36.9926C3.47172 36.9079 3.4717 36.9104 2.99198 36.8854C2.94223 36.8829 2.87475 36.848 2.84988 36.8131C2.74683 36.6611 2.75041 36.494 2.70066 36.332C2.79305 36.2273 2.88537 36.125 2.98131 36.0228C3.1732 35.8159 3.42199 35.6339 3.57124 35.407C3.53926 35.2849 3.49661 35.1627 3.65296 35.063C4.09714 34.9383 4.09362 34.9383 4.21443 34.8187C4.55912 34.4796 4.90023 34.138 5.25913 33.804C5.35507 33.7167 5.35508 33.6693 5.18452 33.632C5.13122 33.622 5.07429 33.6195 5.01743 33.6245C4.83976 33.6419 4.66209 33.6868 4.48797 33.6768C4.31385 33.6693 4.18593 33.5596 4.04379 33.4923C3.8981 33.4225 3.75241 33.3502 3.60672 33.2779C3.43971 33.2854 3.27273 33.3552 3.10571 33.243C2.97779 33.1558 2.81789 33.0934 2.6722 33.0211C2.78236 32.8317 2.98849 32.6871 3.1484 32.52C3.29409 32.3679 3.29756 32.3704 3.68844 32.2533C3.87322 32.1984 3.93719 31.9167 3.78084 31.8344C3.5925 31.7347 3.39355 31.6424 3.20166 31.5477C3.03465 31.5552 2.86412 31.6225 2.70422 31.5103C2.57984 31.4256 2.43768 31.3682 2.23158 31.4006C1.88334 31.4555 1.52801 31.4829 1.17621 31.5278C1.0554 31.5427 0.92388 31.5328 0.870579 31.448C0.835044 31.3882 0.938101 31.3059 1.05537 31.2884C1.23304 31.2635 1.39293 31.2336 1.48176 31.1089C1.56704 30.9843 1.72338 30.9469 1.90816 30.9294C1.95791 30.9244 2.0148 30.8945 2.03968 30.8646C2.1676 30.72 2.30975 30.5954 2.58337 30.6003C2.69708 30.5505 2.75745 30.4881 2.72191 30.4283C2.70059 30.3959 2.62601 30.3535 2.58337 30.3585C2.28843 30.3835 1.9935 30.4084 1.70567 30.4533C1.57064 30.4732 1.46754 30.4782 1.38225 30.4034C1.32185 30.3535 1.35382 30.2862 1.46753 30.2139C1.56703 30.1516 1.59549 30.0793 1.58838 29.9945C1.57062 29.7976 1.46399 29.7402 1.12286 29.7527C0.877672 29.7627 0.817259 29.7302 0.763958 29.5607C0.749744 29.5208 0.714272 29.466 0.739146 29.4386C0.891944 29.269 0.991448 29.0596 1.27928 28.9798C1.39299 28.9499 1.51376 28.9499 1.58483 28.8851C1.6559 28.8203 1.71989 28.7455 1.79451 28.6831C1.8869 28.6083 1.9508 28.5386 1.90816 28.4912C1.83709 28.4064 1.72342 28.399 1.59194 28.4289C1.47823 28.4538 1.35742 28.4563 1.24015 28.4712C1.0305 28.4987 0.85997 28.4338 0.835096 28.3241C0.767581 28.035 0.696491 27.7483 0.636082 27.4591C0.628975 27.4241 0.646694 27.3793 0.675121 27.3493C0.774618 27.2446 0.881263 27.1449 0.984313 27.0427C1.10513 26.9255 1.29705 26.948 1.46051 26.9255C1.69148 26.8931 1.6914 26.8956 2.00055 26.6563C2.12137 26.5615 2.33103 26.5989 2.4554 26.5142C2.49449 26.4867 2.5549 26.4419 2.54424 26.4169C2.53003 26.3845 2.459 26.3596 2.40569 26.3446C2.35595 26.3297 2.29555 26.3222 2.24225 26.3297C1.59552 26.402 0.952364 26.4793 0.305635 26.5491C0.195478 26.5615 0.0746572 26.5067 0.0355692 26.4294C-0.00351875 26.3571 0.00710691 26.2698 0 26.1875C0.10305 26.0853 0.220269 25.9906 0.309105 25.8809C0.376621 25.7961 0.454811 25.7587 0.589842 25.7538C0.767515 25.7463 0.941651 25.7164 1.14064 25.6939C1.5102 25.3299 1.87263 24.9485 2.27062 24.5845C2.43052 24.4374 2.3915 24.2878 2.42348 24.1307C2.45546 23.9861 2.69353 24.0086 2.85343 23.9662C2.98136 23.9313 3.02394 23.8515 2.97419 23.7967C2.94577 23.7643 2.88184 23.7269 2.83209 23.7269C2.71483 23.7269 2.59757 23.7493 2.4803 23.7618C2.36304 23.7742 2.22801 23.7668 2.13207 23.8092C2.03968 23.849 1.97924 23.9338 1.91883 24.0061C1.85131 24.0859 1.76254 24.1133 1.62751 24.1183C1.45339 24.1233 1.27928 24.1457 1.10516 24.1632C0.913276 24.0659 0.714241 23.9712 0.529461 23.869C0.493926 23.849 0.486781 23.7917 0.490335 23.7543C0.497442 23.6571 0.444154 23.5972 0.32689 23.5499C0.227393 23.51 0.145657 23.4526 0.0532671 23.4028C0.124336 23.3355 0.20254 23.2706 0.259395 23.1983C0.383766 23.0463 0.540135 22.9366 0.810198 22.9416C0.916801 22.8443 1.00206 22.7247 1.14064 22.6574C1.27212 22.5925 1.496 22.6573 1.5955 22.5102C1.64525 22.4379 1.71991 22.3557 1.81585 22.3258C1.96865 22.2784 2.16764 22.3033 2.25648 22.1637C2.30978 22.0839 2.38792 22.0116 2.49097 21.9917C2.60824 21.9692 2.72902 21.9643 2.81431 21.9169C2.8605 21.892 2.91026 21.8521 2.91026 21.8172C2.91026 21.7947 2.83924 21.7598 2.7895 21.7449C2.7433 21.7274 2.68282 21.715 2.62952 21.7199C2.45185 21.7349 2.27773 21.7623 2.10006 21.7773C2.05031 21.7823 1.99347 21.7648 1.94017 21.7499C1.78382 21.71 1.79446 21.6601 1.91883 21.5704C2.0432 21.4831 2.13209 21.3709 2.23514 21.2687C2.34885 21.2512 2.49096 21.2587 2.56914 21.2113C2.70062 21.1341 2.79298 21.0219 2.89959 20.9246C3.01685 20.9097 3.13766 20.9047 3.24782 20.8773C3.29401 20.8673 3.31535 20.8125 3.35444 20.78C3.42551 20.7177 3.48597 20.628 3.58191 20.5981C3.73826 20.5532 3.93014 20.5706 4.02253 20.4335C4.07583 20.3537 4.15753 20.269 4.25703 20.264C4.5342 20.254 4.65147 20.1169 4.7936 19.9872C4.90021 19.89 5.12764 19.9399 5.2449 19.8426C5.32308 19.7803 5.37997 19.703 5.45814 19.6432C5.49012 19.6182 5.55761 19.6058 5.61092 19.5983C5.9023 19.5609 6.19723 19.5335 6.48861 19.4936C6.5348 19.4861 6.57748 19.4487 6.61301 19.4188C6.68764 19.354 6.73378 19.2642 6.82617 19.2219C6.91856 19.1795 7.05002 19.1795 7.16373 19.167C7.52974 19.1296 7.55819 19.1396 7.7252 18.9277C7.86023 18.7556 8.19075 18.8778 8.3009 18.6883C8.36487 18.5786 8.48208 18.4889 8.69173 18.4764C8.98667 18.459 9.27804 18.4116 9.57298 18.3792C9.83594 18.3493 9.83239 18.3493 10.1167 18.1174C10.2446 18.0127 10.433 18.0277 10.6 18.0077C10.7776 17.9878 10.9411 17.9579 11.0264 17.8332C11.1117 17.7111 11.268 17.6711 11.4492 17.6537C11.6162 17.6362 11.8046 17.6487 11.9361 17.549C12.2559 17.3097 12.2523 17.3072 12.4762 17.2822C12.828 17.2423 13.1798 17.2024 13.5316 17.1601C13.7661 17.1326 14.0113 17.1277 14.2316 17.0728C14.3915 17.0329 14.4625 16.8933 14.5656 16.7961C14.857 16.7587 15.1484 16.7213 15.4397 16.6864C15.8484 16.6365 16.2606 16.5917 16.6728 16.5443C16.8504 16.4495 16.8754 16.2401 17.1739 16.2301C17.3515 16.2252 17.5257 16.1928 17.7033 16.1728C17.9983 16.1379 18.2896 16.093 18.5846 16.0756C18.8084 16.0631 18.8475 15.9285 18.9647 15.8437C19.0038 15.8138 19.0394 15.7714 19.0856 15.7639C19.5475 15.6941 20.0237 15.6792 20.475 15.577C20.5211 15.567 20.5638 15.5146 20.5745 15.4772C20.5816 15.4573 20.5212 15.4199 20.4821 15.4025C20.4359 15.3825 20.3755 15.3626 20.3257 15.3675C18.8582 15.5346 17.3906 15.7041 15.923 15.8712C15.7169 15.8961 15.7169 15.8936 15.2159 16.1678C15.1733 16.1903 15.1235 16.2152 15.0702 16.2227C14.8356 16.2526 14.5976 16.2701 14.3666 16.3074C14.1783 16.3374 14.022 16.3074 13.8869 16.2177C13.791 16.1529 13.6914 16.1329 13.5706 16.1379C13.4356 16.1454 13.3468 16.1728 13.2686 16.2401C13.1656 16.3324 13.1123 16.452 12.8955 16.477C11.897 16.5842 10.8984 16.7038 9.90343 16.8185C9.76484 16.7836 9.69733 16.7313 9.73287 16.6689C9.75419 16.6315 9.79685 16.5817 9.83949 16.5767C10.2481 16.5243 10.6603 16.4795 11.069 16.4296C11.1258 16.4221 11.204 16.4271 11.236 16.4022C11.3923 16.29 11.4492 16.108 11.7442 16.0955C11.9147 16.088 12.0888 16.0506 12.2523 16.0157C12.2985 16.0058 12.3411 15.9534 12.3518 15.916C12.3554 15.8961 12.2985 15.8587 12.2559 15.8412C12.0995 15.7689 11.9183 15.8562 11.762 15.8063C11.7087 15.7889 11.634 15.7639 11.6233 15.734C11.6162 15.7066 11.6766 15.6617 11.7193 15.6343C11.7584 15.6094 11.8116 15.5869 11.8649 15.5795C12.334 15.5221 12.8031 15.4623 13.2722 15.4174C13.4641 15.3999 13.5991 15.3376 13.6844 15.2229C13.7483 15.1382 13.8265 15.0933 13.9473 15.0808C14.7681 14.9886 15.589 14.8864 16.4134 14.8016C16.6195 14.7817 16.7261 14.6994 16.8114 14.5922C16.8789 14.5074 16.9571 14.4775 17.0886 14.4626C18.2648 14.3329 19.4338 14.1883 20.61 14.0637C20.8268 14.0412 20.8908 13.934 21.0009 13.8418C21.04 13.8094 21.0648 13.7695 21.1146 13.7495C21.1643 13.7296 21.2283 13.7321 21.2887 13.7271C22.2268 13.6199 23.165 13.5052 24.1067 13.4055C24.327 13.383 24.3695 13.2584 24.4833 13.1711C24.5223 13.1437 24.5579 13.0988 24.6041 13.0914C25.3077 13.0066 26.0112 12.9268 26.7148 12.8445C27.1839 12.7897 27.6529 12.7348 28.122 12.6825C28.353 12.6576 28.353 12.655 28.6657 12.4182C28.7012 12.3908 28.751 12.3584 28.7972 12.3509C30.1475 12.1913 31.4942 12.0393 32.8445 11.8822C32.9583 11.8697 33.04 11.8124 33.0968 11.7276C33.1537 11.6428 33.2355 11.5855 33.3456 11.573C34.401 11.4484 35.4564 11.3262 36.5153 11.2091C36.7072 11.1891 36.8422 11.1293 36.9275 11.0171C36.9914 10.9323 37.0696 10.8875 37.1904 10.875C38.2458 10.7553 39.3012 10.6282 40.3601 10.5135C40.5627 10.491 40.6621 10.4063 40.7616 10.3066C40.7972 10.2717 40.8256 10.2143 40.8683 10.2093C41.3942 10.1395 41.9165 10.0672 42.446 10.0198C42.6663 9.9999 42.7409 9.89518 42.8298 9.79546C42.9008 9.71568 42.9826 9.68826 43.1176 9.67829C43.4126 9.65585 43.7039 9.61349 43.9918 9.57111C44.0344 9.56363 44.0877 9.50877 44.0913 9.47387C44.0984 9.40905 44.0166 9.36417 43.8816 9.34173C42.4744 9.50378 41.0637 9.66582 39.6566 9.82787C39.4256 9.8553 39.4256 9.85531 39.1129 10.0922C39.0773 10.1196 39.0275 10.152 38.9778 10.1595C37.6275 10.3165 36.2808 10.4711 34.9305 10.6282C34.8167 10.6406 34.735 10.698 34.6782 10.7827C34.6213 10.8675 34.5395 10.9249 34.4294 10.9373C33.1395 11.0869 31.8496 11.239 30.5561 11.3811C30.3643 11.401 30.2292 11.4584 30.144 11.573C30.08 11.6578 30.0018 11.7027 29.881 11.7152C28.648 11.8548 27.4184 12.0019 26.1818 12.1365C26.0574 12.1489 25.9651 12.0766 25.9722 12.0093C25.9758 11.9744 26.029 11.9171 26.0716 11.9121C26.7148 11.8299 27.3545 11.7451 28.0012 11.6827C28.218 11.6628 28.2819 11.5531 28.3921 11.4609C28.4276 11.4284 28.456 11.3861 28.5022 11.3686C28.552 11.3487 28.6159 11.3512 28.6763 11.3462C30.2008 11.1692 31.7253 10.9897 33.2532 10.8226C33.4736 10.7977 33.5161 10.6755 33.6298 10.5883C33.6689 10.5584 33.7045 10.5135 33.7507 10.5085C34.2197 10.4487 34.6888 10.3963 35.1578 10.344C35.9787 10.2492 36.7995 10.1545 37.6239 10.0597C37.862 10.0323 37.862 10.0323 38.1676 9.79796C38.2031 9.77053 38.2529 9.73565 38.2991 9.73067C40.4703 9.47886 42.6415 9.22706 44.8126 8.97775C44.9263 8.96528 45.0081 8.90794 45.0649 8.82318C45.1218 8.74091 45.2035 8.68107 45.3136 8.66611C48.2488 8.32705 51.1804 7.98798 54.1155 7.6539C54.3074 7.63146 54.4424 7.5791 54.5277 7.46193C54.5881 7.37716 54.6698 7.3323 54.7907 7.31734C58.0172 6.94587 61.2437 6.5744 64.4738 6.20044C66.645 5.95113 68.8162 5.69683 70.9873 5.45251C71.1863 5.43007 71.2929 5.35277 71.3924 5.25055C71.4244 5.21565 71.4564 5.15831 71.499 5.15332C71.9645 5.09099 72.43 5.03366 72.8955 4.97632C73.0412 5.04363 73.1869 5.10847 73.3326 5.17578C73.4427 5.08104 73.5494 4.98381 73.6595 4.88907C74.3631 4.81677 75.056 4.70458 75.7667 4.66967C75.8129 4.66718 75.8626 4.71456 75.9124 4.73949C76.2428 4.89655 76.4312 4.88409 76.6408 4.67467C76.7155 4.59987 76.7794 4.53256 76.8931 4.5201C77.2449 4.47522 77.6003 4.4453 77.9486 4.39295C78.1369 4.36552 78.2932 4.39045 78.4282 4.4802C78.5242 4.54502 78.6237 4.57246 78.741 4.5575C79.3877 4.48271 80.0309 4.4104 80.6776 4.33062C80.7238 4.32563 80.7664 4.28323 80.8019 4.25332C80.8765 4.1885 80.9405 4.11871 81.0116 4.05139C81.1076 4.09377 81.2142 4.12619 81.2923 4.18104C81.3918 4.24586 81.4842 4.24584 81.6192 4.22839C84.199 3.92673 86.7824 3.63255 89.3622 3.32839C89.5825 3.30346 89.6785 3.40818 89.8277 3.46303C89.8775 3.48297 89.9272 3.50789 89.9805 3.51288C90.0374 3.51786 90.0978 3.50292 90.1546 3.49544C92.0913 3.27106 94.0279 3.04916 95.9646 2.82478C96.2204 2.79486 96.2204 2.79486 96.6006 2.94943C96.6468 2.96938 96.7072 2.99182 96.757 2.98434C97.6382 2.88711 98.5195 2.78241 99.3972 2.68269C99.5109 2.67022 99.6069 2.7101 99.7099 2.76744C99.9125 2.87963 99.9266 2.87964 100.076 2.7151C100.147 2.63781 100.222 2.59042 100.339 2.56798C100.467 2.54305 100.57 2.55056 100.669 2.59543C100.811 2.65776 100.915 2.76246 101.131 2.73503C102.069 2.61786 103.011 2.52063 103.946 2.40097C104.159 2.37354 104.273 2.4583 104.415 2.52063C104.464 2.54307 104.511 2.57797 104.564 2.58545C104.617 2.59293 104.681 2.57546 104.738 2.56798C105.911 2.43336 107.087 2.30125 108.256 2.15665C108.476 2.12922 108.572 2.23641 108.721 2.29125C108.771 2.3112 108.828 2.34612 108.874 2.34113C109.578 2.26385 110.285 2.18155 110.989 2.09928C111.241 2.06936 111.241 2.07186 111.625 2.22394C111.671 2.24388 111.731 2.26383 111.781 2.25884C112.602 2.1666 113.426 2.07186 114.247 1.97712C114.499 1.9472 114.499 1.94721 115.228 2.07685C115.281 2.08682 115.338 2.1018 115.391 2.09682C116.329 1.98961 117.271 1.88489 118.209 1.77021C118.397 1.74777 118.554 1.76771 118.689 1.85746C118.785 1.92228 118.884 1.94972 119.002 1.93476C120.057 1.8126 121.116 1.69543 122.168 1.56579C122.37 1.54085 122.502 1.59568 122.644 1.66798C122.69 1.69291 122.736 1.72782 122.79 1.73779C122.843 1.74777 122.903 1.73779 122.96 1.73031C124.016 1.60815 125.074 1.49347 126.126 1.36133C126.339 1.33391 126.453 1.41867 126.595 1.481C126.645 1.50344 126.698 1.54831 126.741 1.54582C127.153 1.50344 127.565 1.46606 127.974 1.40373C128.194 1.36882 128.29 1.48349 128.44 1.53833C128.489 1.55579 128.546 1.5932 128.592 1.58821C129.474 1.49098 130.355 1.38877 131.233 1.28406C131.357 1.26911 131.449 1.29152 131.549 1.35634C131.68 1.4436 131.833 1.47851 132.025 1.45108C132.434 1.39374 132.846 1.35386 133.258 1.30649C133.5 1.27907 133.5 1.27908 134.239 1.40872C134.292 1.41869 134.349 1.43364 134.402 1.42865C135.106 1.34887 135.813 1.27159 136.513 1.18433C136.701 1.1594 136.858 1.18184 136.993 1.27159C137.089 1.33641 137.185 1.36385 137.305 1.34889C137.952 1.27409 138.595 1.1993 139.242 1.1245C139.477 1.09708 139.711 1.0497 139.946 1.0497C140.116 1.05219 140.241 1.17185 140.393 1.23169C140.436 1.24914 140.507 1.22922 140.564 1.22423C141.385 1.1295 142.209 1.04223 143.026 0.935025C143.24 0.907601 143.353 0.992362 143.496 1.05469C143.545 1.07713 143.599 1.122 143.641 1.11951C143.936 1.09209 144.228 1.05469 144.522 1.02228C144.874 0.982388 145.23 0.952471 145.578 0.897623C145.862 0.852747 145.969 1.06964 146.196 1.07712C146.37 1.0846 146.548 1.04222 146.722 1.02228C147.074 0.982388 147.426 0.937517 147.777 0.902614C147.902 0.890148 147.998 0.850242 148.037 0.76049C148.044 0.743039 147.984 0.705658 147.944 0.68322C147.472 0.428925 147.472 0.428913 146.996 0.483761C146.701 0.518664 146.409 0.553573 146.114 0.58349C146.065 0.588477 146.008 0.568533 145.958 0.553575C145.816 0.511192 145.83 0.461335 145.951 0.371584C146.072 0.281832 146.164 0.172146 146.267 0.069929C146.413 0.134749 146.555 0.199547 146.701 0.264367C146.818 0.251902 146.935 0.236965 147.053 0.2245C147.639 0.159679 148.225 0.0923607 148.812 0.0325265C148.854 0.0275403 148.907 0.0774095 148.957 0.10234C149.099 0.17464 149.227 0.23695 149.433 0.209526C149.959 0.137227 150.489 0.0848717 151.015 0.0225443C151.246 -0.00487968 151.246 -0.00487724 151.651 0.149695C151.697 0.167146 151.757 0.187092 151.807 0.182106C152.337 0.124765 152.862 0.0624448 153.392 0.00261055C153.506 -0.00985492 153.616 0.0225541 153.698 0.0948538C153.729 0.124771 153.722 0.174623 153.857 0.58349C154.277 0.915072 154.565 0.880186 154.856 0.850268C154.98 0.837803 155.09 0.825325 155.172 0.775464C155.215 0.748039 155.268 0.708144 155.268 0.675734C155.268 0.650803 155.19 0.610906 155.14 0.60592C154.788 0.556058 154.454 0.660782 154.11 0.68322C153.95 0.693193 153.811 0.605933 153.783 0.463827C153.776 0.423937 153.765 0.381557 153.754 0.341668C153.744 0.301778 153.737 0.259398 153.726 0.219508C153.587 0.207043 153.506 0.251911 153.445 0.336677C153.395 0.406483 153.324 0.486262 153.228 0.523659C153.132 0.563548 153.001 0.556082 152.884 0.568548C152.77 0.581013 152.646 0.61342 152.539 0.595968C152.432 0.576023 152.347 0.503711 152.248 0.458836C152.201 0.436398 152.145 0.404 152.098 0.408986C151.69 0.451369 151.285 0.493735 150.88 0.548583C150.666 0.578501 150.56 0.473806 150.425 0.408986C150.318 0.359124 150.212 0.371574 150.194 0.486256C150.148 0.760496 150.311 0.875173 150.674 0.822818C150.972 0.777942 151.242 0.770486 151.477 0.940016C151.509 0.962454 151.583 0.972423 151.629 0.967437C151.921 0.937519 152.209 0.900119 152.5 0.870202C152.553 0.865216 152.61 0.875173 152.66 0.885145C153.385 1.01977 153.385 1.02228 153.63 0.992361C153.747 0.977403 153.861 0.964936 153.85 0.585986C154.074 0.179612 154.43 0.152193 154.774 0.0923583C154.998 0.0549619 155.094 0.164663 155.24 0.222004C155.289 0.241949 155.343 0.281831 155.389 0.276845C156.153 0.194573 156.913 0.107302 157.674 0.0150578C157.802 9.91998e-05 157.894 0.0150602 157.994 0.0798806C158.121 0.162153 158.264 0.214519 158.466 0.184602C158.871 0.124767 159.283 0.0873794 159.696 0.0375175C159.905 0.0125866 159.905 0.012561 160.328 0.167133C160.374 0.184584 160.435 0.20453 160.485 0.199544C160.897 0.157162 161.305 0.104823 161.714 0.0599468C161.828 0.0474814 161.931 0.082381 162.02 0.149695C162.109 0.217008 162.215 0.251908 162.325 0.239442C162.738 0.194567 163.146 0.144721 163.555 0.0998449C163.605 0.0948587 163.665 0.112309 163.711 0.129761C164.145 0.284333 164.145 0.284307 164.344 0.259376C164.635 0.22198 164.934 0.204548 165.221 0.154686C165.502 0.104824 165.648 0.249411 165.84 0.32919C166.366 0.271849 166.895 0.224492 167.417 0.154686C167.631 0.124769 167.744 0.207033 167.886 0.271854C167.936 0.294292 167.986 0.341665 168.032 0.339172C168.21 0.3292 168.384 0.301781 168.558 0.281836C168.732 0.261891 168.91 0.241949 169.084 0.222004C169.283 0.294304 169.414 0.463832 169.699 0.406491C169.869 0.371587 170.05 0.364108 170.225 0.344163C170.399 0.324218 170.576 0.304276 170.751 0.284331C170.868 0.271866 170.989 0.264376 171.102 0.241938C171.312 0.204541 171.415 0.326718 171.564 0.381566C171.614 0.399017 171.671 0.428915 171.717 0.423929C172.069 0.389025 172.424 0.359111 172.769 0.30177C173.035 0.256894 173.217 0.331696 173.405 0.436406C173.444 0.458844 173.512 0.471309 173.561 0.466322C173.973 0.42394 174.382 0.37157 174.791 0.326694C174.901 0.314229 175.008 0.354117 175.096 0.418938C175.189 0.486251 175.292 0.518686 175.405 0.50622C175.814 0.461345 176.226 0.411468 176.635 0.366592C176.685 0.361606 176.745 0.381555 176.791 0.401499C177.189 0.556071 177.189 0.558567 177.424 0.52865C177.481 0.52117 177.541 0.516165 177.598 0.508685C177.889 0.473782 178.191 0.461334 178.476 0.401499C178.803 0.334186 179.041 0.418955 179.272 0.561061C179.563 0.531144 179.862 0.513689 180.146 0.463827C180.359 0.42643 180.473 0.521163 180.615 0.58349C180.665 0.605928 180.718 0.650804 180.761 0.645818C181.173 0.603435 181.585 0.566052 181.99 0.503725C182.21 0.468822 182.306 0.58099 182.456 0.638331C182.505 0.658276 182.559 0.693197 182.605 0.688211C182.839 0.668267 183.074 0.638335 183.308 0.610911C183.582 0.578501 183.582 0.580991 183.944 0.73307C184.115 0.80537 184.286 0.748026 184.453 0.730574C184.63 0.71063 184.797 0.695676 184.939 0.797893C185.028 0.862713 185.135 0.902604 185.245 0.892632C185.48 0.870194 185.718 0.847767 185.949 0.810371C186.133 0.780453 186.293 0.800387 186.428 0.892632C186.524 0.957452 186.624 0.989882 186.741 0.974923C187.267 0.915089 187.796 0.852738 188.322 0.795397C188.369 0.790411 188.432 0.812858 188.475 0.835295C188.575 0.880171 188.671 0.930022 188.767 0.979884C188.997 0.957446 189.236 0.947499 189.463 0.912596C189.705 0.877693 189.925 0.865223 190.113 1.00234C190.152 1.03226 190.209 1.07462 190.255 1.07213C190.433 1.06215 190.607 1.03723 190.781 1.01729C190.955 0.997342 191.133 0.977399 191.307 0.957455C191.51 1.01978 191.638 1.19928 191.922 1.14194C192.093 1.10704 192.274 1.09956 192.448 1.07961C192.622 1.05967 192.8 1.03723 192.974 1.01978C193.031 1.0148 193.095 1.00232 193.144 1.0123C193.198 1.02227 193.244 1.05718 193.29 1.08211C193.432 1.15441 193.564 1.22672 193.766 1.18433C193.937 1.14943 194.118 1.14195 194.292 1.11951C194.53 1.09209 194.53 1.09209 194.925 1.24916C195.085 1.31398 195.266 1.22922 195.419 1.28406C195.522 1.32146 195.61 1.38377 195.71 1.42616C195.753 1.44361 195.82 1.45108 195.87 1.44609C196.104 1.42365 196.342 1.40123 196.573 1.36383C196.762 1.33391 196.918 1.36383 197.05 1.45358C197.146 1.5184 197.241 1.54584 197.362 1.53088C197.949 1.46107 198.535 1.40122 199.118 1.32393C199.317 1.29651 199.477 1.3389 199.587 1.42865C199.775 1.58322 200.042 1.40123 200.237 1.52589C200.358 1.60317 200.479 1.69293 200.699 1.65553C201.104 1.59071 201.516 1.55579 201.925 1.51091C202.071 1.57823 202.216 1.64556 202.366 1.71287C202.6 1.68545 202.835 1.658 203.069 1.63307C203.243 1.61313 203.421 1.59069 203.595 1.57324C203.652 1.56826 203.712 1.55828 203.766 1.57075C203.819 1.58321 203.862 1.61563 203.911 1.64056C204.157 1.76272 204.156 1.76523 204.562 1.71536C204.736 1.69293 204.903 1.67797 205.048 1.77769C205.183 1.86994 205.343 1.88738 205.528 1.85995C205.876 1.81009 206.228 1.7727 206.584 1.73779C206.694 1.72533 206.797 1.76771 206.889 1.83253C207.028 1.93475 207.198 1.92478 207.372 1.89736C207.603 1.86245 207.831 1.82756 208.026 1.96717C208.065 1.99709 208.126 2.03945 208.168 2.03695C208.46 2.01701 208.755 2.00206 209.039 1.95469C209.323 1.90732 209.462 2.06189 209.657 2.13668C209.949 2.10427 210.244 2.07186 210.535 2.03945C210.592 2.03197 210.659 2.00955 210.709 2.02201C210.919 2.07437 211.04 2.26134 211.327 2.204C211.494 2.17159 211.676 2.16163 211.85 2.15415C211.896 2.15166 211.956 2.19402 211.988 2.22643C212.006 2.24388 211.988 2.29125 211.967 2.31618C211.903 2.38599 211.825 2.45082 211.768 2.52312C211.761 2.5331 211.828 2.57795 211.868 2.5979C211.963 2.64278 212.074 2.63531 212.202 2.61537C212.312 2.59792 212.425 2.63282 212.504 2.70761C212.536 2.73753 212.525 2.78739 212.457 2.95193C212.457 3.07409 212.532 3.01923 212.557 2.93945C212.596 2.82477 212.521 2.78738 212.379 2.8497C212.28 2.89458 212.23 2.95941 212.255 3.01176C212.269 3.03919 212.337 3.07409 212.457 2.95193C212.77 2.80234 213.005 2.77493 213.239 2.74751C213.3 2.74003 213.371 2.71508 213.413 2.73004C213.566 2.78987 213.708 2.86219 213.857 2.9295C214.028 2.91454 214.188 2.87713 214.355 2.97436C214.589 3.11148 214.6 3.09902 214.828 3.07159C214.945 3.05663 215.062 3.04419 215.179 3.03173C215.297 3.01926 215.389 3.05665 215.492 3.11399C215.702 3.23116 215.719 3.23115 215.858 3.07159C215.94 2.97436 215.997 2.94196 216.1 2.98684C216.441 3.13892 216.444 3.14888 216.736 3.104C216.977 3.06661 217.205 3.05664 217.382 3.19874C217.503 3.29847 217.542 3.27603 217.638 3.17132C217.894 2.89459 218.011 2.89957 218.491 3.09901C218.715 3.19375 218.946 3.09155 219.173 3.07908C219.365 3.06911 219.5 3.12893 219.515 3.286C219.525 3.38323 219.557 3.45305 219.685 3.48546C219.735 3.49792 219.795 3.51537 219.845 3.51038C220.14 3.48046 220.431 3.44555 220.726 3.41065C220.875 3.3932 220.957 3.27605 220.929 3.12147C220.897 2.95693 220.954 2.89707 221.167 2.8497C221.295 2.82228 221.398 2.82729 221.501 2.87216C221.615 2.92203 221.583 2.9669 221.483 3.05665C221.245 3.27604 221.274 3.41065 221.579 3.56273C221.686 3.61508 221.771 3.66247 221.796 3.73976C221.81 3.77965 221.796 3.832 221.828 3.86191C222.002 4.02895 222.244 4.13617 222.514 4.21595C222.773 4.14863 222.951 4.2608 223.15 4.35055C223.306 4.42036 223.491 4.36054 223.658 4.33561C223.846 4.30818 224.003 4.32812 224.138 4.42037C224.234 4.48519 224.333 4.51509 224.45 4.50263C224.685 4.4752 224.923 4.45776 225.154 4.41787C225.353 4.38297 225.502 4.43283 225.626 4.5176C225.783 4.6248 225.957 4.55249 226.12 4.56745C226.341 4.5849 226.451 4.80678 226.739 4.74694C226.909 4.71204 227.087 4.69958 227.265 4.68961C227.311 4.68712 227.368 4.72951 227.407 4.75942C227.595 4.89654 227.815 4.88906 228.057 4.84917C228.224 4.82175 228.387 4.79683 228.551 4.89156C228.821 5.05112 229.12 5.19074 229.404 5.33784C229.443 5.45252 229.414 5.58712 229.617 5.65443C229.724 5.68934 229.823 5.74171 229.905 5.79905C230.004 5.86637 230.097 5.88382 230.225 5.86637C230.456 5.83147 230.697 5.82397 230.925 5.77909C231.134 5.7392 231.266 5.8215 231.394 5.89878C231.497 5.96111 231.593 5.99101 231.717 5.94614C231.845 5.90376 231.937 5.93117 232.04 5.99848C232.186 6.09073 232.197 6.08077 232.68 6.10819C232.73 6.11069 232.79 6.14806 232.819 6.18047C232.833 6.19793 232.801 6.24782 232.776 6.27275C232.744 6.30266 232.694 6.33755 232.648 6.34503C232.122 6.40985 231.593 6.46719 231.067 6.53201C231.014 6.53949 230.957 6.55696 230.918 6.58189C230.875 6.60931 230.822 6.64668 230.822 6.68159C230.822 6.70652 230.893 6.73645 230.942 6.7539C231.099 6.81124 231.284 6.72398 231.436 6.7888C231.539 6.83119 231.625 6.89101 231.728 6.9309C231.77 6.94835 231.838 6.94587 231.891 6.94088C232.069 6.92343 232.243 6.8985 232.421 6.88354C232.47 6.88105 232.527 6.90599 232.573 6.92594C232.915 7.07552 232.915 7.07552 233.21 7.04311C233.327 7.03064 233.451 6.99324 233.561 7.0082C233.668 7.02316 233.76 7.09047 233.856 7.13285C234.055 7.2226 234.244 7.30986 234.258 7.50432C234.265 7.57911 234.382 7.64392 234.499 7.64891C234.613 7.6539 234.734 7.6265 234.851 7.61154C235.128 7.58162 235.128 7.58162 235.487 7.7337C235.587 7.77608 235.693 7.78106 235.821 7.75613C235.871 7.74615 235.932 7.75614 235.985 7.7686C236.159 7.806 236.159 7.85336 236.045 7.94311C235.885 8.07524 235.899 8.08772 236.347 8.1999C236.518 8.24229 236.649 8.32207 236.791 8.39188C237.022 8.50407 237.019 8.50405 236.866 8.65114C236.831 8.68355 236.799 8.71846 236.763 8.75336C236.66 8.85059 236.578 8.9553 236.365 8.96527C236.13 8.97524 235.896 9.01515 235.661 9.04257C235.434 9.06999 235.374 9.12981 235.395 9.29934C235.42 9.50377 235.466 9.52621 235.875 9.52372C235.992 9.52372 236.095 9.54366 236.184 9.61097C236.141 9.69075 236.063 9.75308 235.949 9.76804C235.658 9.80544 235.363 9.83785 235.072 9.87027C234.837 9.89769 234.603 9.9251 234.368 9.95253C234.222 9.96998 234.13 10.0996 234.169 10.2442C234.19 10.3265 234.208 10.4088 234.226 10.491C234.265 10.6556 234.34 10.698 234.578 10.6905C234.638 10.688 234.695 10.668 234.752 10.673C234.983 10.6905 235.093 10.8974 235.37 10.855C235.601 10.8201 235.843 10.8126 236.07 10.7678C236.28 10.7279 236.397 10.8177 236.543 10.885C236.592 10.9074 236.646 10.9548 236.688 10.9523C236.983 10.9248 237.278 10.8974 237.566 10.8501C237.701 10.8301 237.783 10.8451 237.889 10.9049C238.145 11.0495 238.152 11.042 238.533 10.9971C238.81 10.9622 238.813 10.9672 239.169 11.1193C239.268 11.1617 239.375 11.1617 239.503 11.1417C239.67 11.1168 239.844 11.0769 240.018 11.1143C240.071 11.1243 240.139 11.1542 240.157 11.1866C240.167 11.2091 240.118 11.2639 240.075 11.2814C239.762 11.411 239.396 11.3886 239.055 11.4409C238.948 11.4559 238.842 11.4085 238.753 11.3412C238.661 11.2739 238.561 11.2465 238.44 11.2589C238.206 11.2864 237.968 11.3038 237.737 11.3437C237.538 11.3786 237.399 11.3212 237.26 11.244C237.214 11.219 237.161 11.1717 237.115 11.1741C236.589 11.224 236.059 11.2739 235.537 11.3437C235.327 11.3736 235.207 11.2938 235.064 11.2265C235.015 11.2041 234.965 11.1567 234.919 11.1592C234.741 11.1692 234.567 11.1966 234.389 11.2165C233.743 11.2913 233.099 11.3661 232.453 11.4359C232.41 11.4409 232.357 11.3886 232.307 11.3661C232.211 11.3212 232.112 11.2789 232.012 11.2365C231.834 11.2564 231.66 11.2813 231.483 11.2963C231.355 11.3063 231.241 11.3412 231.223 11.4359C231.212 11.4983 231.33 11.5556 231.454 11.5506C231.575 11.5456 231.696 11.5157 231.795 11.5481C232.289 11.7077 232.289 11.7102 232.598 11.6778C232.868 11.6478 232.84 11.6229 233.078 11.76C233.181 11.8199 233.274 11.8548 233.391 11.8398C233.682 11.8049 233.977 11.77 234.272 11.7401C234.318 11.7351 234.379 11.76 234.425 11.78C234.773 11.9296 234.773 11.9345 235.061 11.8972C235.438 11.8523 235.452 11.8398 235.704 11.9919C235.878 12.0966 236.038 12.0243 236.205 12.0193C236.397 12.1165 236.607 12.2038 236.781 12.3135C236.987 12.4431 237.204 12.4207 237.438 12.3833C237.612 12.3559 237.783 12.3459 237.925 12.4481C238.06 12.5429 238.223 12.5528 238.408 12.5279C238.575 12.5055 238.746 12.4581 238.92 12.5129C238.966 12.5279 239.037 12.5653 239.034 12.5877C239.03 12.6226 238.984 12.6725 238.938 12.6875C238.611 12.7897 238.252 12.7872 237.907 12.8346C237.861 12.842 237.801 12.8146 237.754 12.7947C237.655 12.7498 237.559 12.6974 237.463 12.6501C237.289 12.665 237.111 12.67 236.941 12.6999C236.809 12.7224 236.71 12.7199 236.614 12.6601C236.525 12.6052 236.429 12.5379 236.322 12.5204C236.216 12.503 236.091 12.5404 235.974 12.5553C235.857 12.5703 235.722 12.5628 235.629 12.6027C235.537 12.6426 235.48 12.7298 235.42 12.7997C235.352 12.8769 235.26 12.9019 235.125 12.9094C235 12.9168 234.901 12.9069 234.809 12.8371C234.77 12.8071 234.716 12.7847 234.663 12.7647C234.613 12.7473 234.556 12.7199 234.51 12.7248C233.981 12.7822 233.455 12.8445 232.925 12.9044C232.662 12.9343 232.666 12.9343 232.119 12.7872C232.069 12.7747 232.008 12.7573 231.959 12.7622C231.664 12.7922 231.372 12.8271 231.077 12.862C230.779 12.8969 230.783 12.8919 230.274 12.7348C230.182 12.7049 230.047 12.7448 229.937 12.7398C229.706 12.7274 229.592 12.5179 229.322 12.5578C229.091 12.5927 228.849 12.6002 228.618 12.6451C228.409 12.685 228.288 12.5977 228.146 12.5304C228.096 12.508 228.043 12.4581 228 12.4631C227.471 12.5179 226.945 12.5803 226.241 12.5877C226.067 12.5877 226.145 12.6401 226.259 12.6576C226.422 12.685 226.476 12.6326 226.387 12.5329C226.323 12.4631 226.231 12.4282 226.156 12.4456C226.117 12.4556 226.067 12.503 226.241 12.5877C226.426 12.6825 226.415 12.7348 226.447 12.7647C226.526 12.837 226.636 12.867 226.749 12.857C226.927 12.8395 227.101 12.8146 227.279 12.7997C227.329 12.7947 227.389 12.8121 227.435 12.8321C227.826 12.9866 227.83 12.9966 228.245 12.9368C228.377 12.9193 228.473 12.9193 228.576 12.9667C228.718 13.0315 228.821 13.1412 229.038 13.1063C229.326 13.0589 229.621 13.0315 229.916 13.0041C229.962 12.9991 230.011 13.044 230.065 13.0639C230.21 13.1238 230.317 13.236 230.534 13.1886C230.701 13.1512 230.882 13.1412 231.06 13.1337C231.106 13.1312 231.177 13.1711 231.198 13.2035C231.241 13.2609 231.188 13.3282 231.067 13.3756C231.017 13.3955 230.95 13.3905 230.893 13.398C230.658 13.4254 230.424 13.4553 230.189 13.4778C230.065 13.4902 229.948 13.5276 229.933 13.6199C229.923 13.6822 230.051 13.7371 230.171 13.7321C230.349 13.7246 230.527 13.7046 230.697 13.6722C230.999 13.6174 231.262 13.6323 231.507 13.7894C231.682 13.8991 231.671 13.8592 231.856 14.1833C231.902 14.2656 232.04 14.2731 232.161 14.2681C232.453 14.2556 232.588 14.293 232.563 14.3703C232.531 14.465 232.428 14.4949 232.296 14.5074C232.062 14.5274 231.827 14.5598 231.593 14.5872C231.536 14.5947 231.472 14.6096 231.419 14.6046C231.365 14.5997 231.316 14.5697 231.269 14.5473C231.17 14.4999 231.085 14.4276 230.978 14.4102C230.871 14.3927 230.747 14.4301 230.63 14.4451C230.512 14.4576 230.388 14.4949 230.282 14.4775C230.175 14.46 230.086 14.3853 229.99 14.3404C229.944 14.318 229.887 14.283 229.841 14.2855C229.606 14.3055 229.372 14.3379 229.137 14.3628C228.849 14.3952 228.849 14.3952 228.501 14.2407C228.402 14.1958 228.299 14.1983 228.167 14.2182C227.883 14.2581 227.879 14.2506 227.361 14.106C227.311 14.0911 227.25 14.0736 227.201 14.0811C226.671 14.1384 226.145 14.2008 225.619 14.2606C225.168 14.313 225.168 14.313 224.919 14.5623C224.735 14.7468 224.731 14.7468 224.912 14.8315C225.058 14.9013 225.189 15.0035 225.349 15.0409C225.499 15.0758 225.683 14.9637 225.847 15.0783C225.929 15.1357 226.035 15.198 226.138 15.208C226.302 15.2205 226.476 15.1481 226.632 15.2578C226.71 15.3127 226.828 15.37 226.927 15.3725C227.101 15.3775 227.279 15.3376 227.453 15.3202C227.506 15.3152 227.567 15.3152 227.616 15.3277C227.67 15.3426 227.716 15.3725 227.762 15.3975C227.904 15.4822 228.057 15.5221 228.242 15.4797C228.544 15.4099 228.814 15.4448 229.048 15.6044C229.08 15.6268 229.159 15.6293 229.208 15.6194C229.336 15.5944 229.446 15.5919 229.542 15.6393C229.581 15.6592 229.638 15.6941 229.631 15.7166C229.621 15.754 229.578 15.8038 229.532 15.8163C229.198 15.9011 228.839 15.911 228.494 15.9559C228.448 15.9609 228.391 15.9285 228.345 15.906C228.245 15.8612 228.16 15.7864 228.053 15.7689C227.947 15.7515 227.823 15.7839 227.705 15.7964C227.588 15.8088 227.464 15.8462 227.357 15.8313C227.25 15.8138 227.151 15.7515 227.066 15.6966C226.966 15.6343 226.87 15.6268 226.739 15.6518C226.568 15.6842 226.391 15.6892 226.216 15.7066C226.12 15.6592 226.024 15.6069 225.925 15.562C225.879 15.5395 225.822 15.5121 225.772 15.5146C225.538 15.5346 225.303 15.5645 225.069 15.5919C224.834 15.6193 224.834 15.6194 224.436 15.4648C224.39 15.4473 224.329 15.4274 224.28 15.4324C223.985 15.4623 223.693 15.4997 223.398 15.5296C223.285 15.542 223.182 15.5071 223.089 15.4398C223.001 15.3725 222.894 15.3351 222.784 15.3476C222.315 15.3999 221.846 15.4498 221.377 15.5121C221.188 15.5371 221.028 15.5146 220.9 15.4249C220.751 15.3227 220.584 15.3476 220.41 15.3675C220.016 15.4174 220.012 15.4149 219.76 15.2878C219.71 15.2628 219.66 15.2154 219.614 15.2179C219.205 15.2553 218.793 15.2902 218.388 15.3501C218.175 15.3825 218.061 15.2952 217.919 15.2304C217.869 15.208 217.816 15.1606 217.773 15.1656C217.478 15.193 217.183 15.218 216.896 15.2678C216.608 15.3177 216.498 15.0858 216.281 15.0883C215.986 15.0908 215.695 15.1482 215.403 15.1831C215.169 15.2105 214.934 15.2379 214.7 15.2653C214.465 15.2927 214.231 15.3152 213.996 15.3476C213.872 15.365 213.779 15.3426 213.676 15.2803C213.545 15.198 213.388 15.1332 213.246 15.0584C213.03 14.9512 213.029 14.9512 212.767 14.9811C212.71 14.9886 212.649 14.9936 212.592 15.001C212.162 15.0559 212.162 15.0509 211.615 14.8939C211.59 14.8864 211.526 14.9138 211.501 14.9338C211.427 14.9986 211.359 15.0684 211.292 15.1357C211.196 15.0958 211.079 15.0734 211.015 15.016C210.833 14.854 210.549 15.0758 210.364 14.9163C210.297 14.8565 210.18 14.8041 210.073 14.7891C209.963 14.7742 209.838 14.8091 209.725 14.824C209.43 14.8614 209.43 14.859 209.178 15.0808C209.05 15.1905 208.865 15.1706 208.698 15.1955C208.524 15.2229 208.357 15.2379 208.211 15.1357C208.08 15.0434 207.92 15.021 207.731 15.0509C207.5 15.0883 207.262 15.1107 207.028 15.1332C206.978 15.1382 206.918 15.1257 206.868 15.1108C206.324 14.9637 206.324 14.9612 206.061 14.9936C205.944 15.0085 205.823 15.0135 205.709 15.0359C205.517 15.0758 205.372 15.0235 205.233 14.9437C205.187 14.9188 205.134 14.8714 205.087 14.8739C204.853 14.8864 204.622 14.9088 204.391 14.9313C204.213 14.9487 204.036 14.9587 203.865 14.9936C203.581 15.0509 203.442 14.8889 203.247 14.8141C202.955 14.8465 202.661 14.8689 202.369 14.9138C202.234 14.9337 202.145 14.9263 202.042 14.8664C201.911 14.7916 201.79 14.7069 201.577 14.7443C201.292 14.7941 200.994 14.8116 200.703 14.8415C200.507 14.7642 200.365 14.6071 200.084 14.6645C199.914 14.6994 199.732 14.7069 199.558 14.7268C199.324 14.7542 199.089 14.7792 198.855 14.8091C198.603 14.839 198.606 14.8315 198.219 14.6844C197.995 14.5972 197.764 14.6944 197.536 14.7094C197.359 14.7218 197.27 14.8365 197.313 14.9836C197.355 15.1307 197.259 15.2454 197.096 15.2653C196.687 15.3127 196.275 15.3625 195.866 15.4049C195.817 15.4099 195.756 15.3925 195.71 15.375C195.273 15.2179 195.273 15.2205 195.077 15.2429C194.786 15.2803 194.488 15.3002 194.2 15.3476C194.001 15.38 193.855 15.3277 193.727 15.2429C193.628 15.1781 193.535 15.1631 193.407 15.1781C192 15.3451 190.593 15.4997 189.189 15.6717C188.98 15.6966 188.859 15.6243 188.717 15.557C188.667 15.5346 188.621 15.4872 188.571 15.4872C188.454 15.4872 188.337 15.5097 188.219 15.5246C187.693 15.5844 187.167 15.6567 186.638 15.7016C186.414 15.7216 186.354 15.8363 186.258 15.931C186.183 16.0033 186.098 16.0332 185.966 16.0432C185.839 16.0531 185.746 16.0407 185.647 15.9758C185.519 15.8911 185.373 15.8387 185.174 15.8736C184.943 15.9135 184.708 15.931 184.47 15.9584C184.35 15.9709 184.257 16.0157 184.218 16.1055C184.211 16.1205 184.286 16.1579 184.328 16.1803C184.47 16.2551 184.605 16.3423 184.765 16.3947C184.929 16.4471 185.106 16.3872 185.277 16.3722C185.337 16.3673 185.394 16.3523 185.451 16.3548C185.504 16.3573 185.568 16.3698 185.608 16.3922C185.792 16.5044 185.988 16.5817 186.244 16.5144C186.464 16.5468 186.578 16.7537 186.858 16.6989C187.029 16.6664 187.207 16.6515 187.384 16.639C187.43 16.6365 187.48 16.6814 187.53 16.7038C187.672 16.7662 187.786 16.8659 187.999 16.8235C188.226 16.7786 188.468 16.7712 188.699 16.7363C188.827 16.7163 188.919 16.7338 189.019 16.7986C189.147 16.8809 189.292 16.9432 189.491 16.9033C189.662 16.8684 189.843 16.8609 190.017 16.8384C190.245 16.811 190.245 16.8135 190.65 16.9681C190.696 16.9855 190.756 17.0055 190.806 17.0005C191.101 16.9706 191.393 16.9332 191.687 16.9033C191.801 16.8908 191.911 16.9232 191.99 16.9955C192.021 17.0254 192.011 17.0753 192.021 17.1177C191.435 17.185 190.849 17.2423 190.266 17.3246C190.046 17.357 189.946 17.2548 189.801 17.1975C189.751 17.1775 189.698 17.1351 189.651 17.1401C189.239 17.1825 188.83 17.2274 188.422 17.2822C188.294 17.2997 188.198 17.2897 188.102 17.2174C187.857 17.0254 187.558 17.1301 187.281 17.1576C187.068 17.1775 187 17.2548 187.025 17.4194C187.057 17.6138 187.185 17.6737 187.512 17.6388C187.629 17.6263 187.747 17.6088 187.864 17.5989C187.978 17.5889 188.081 17.6213 188.173 17.6886C188.262 17.7559 188.368 17.7908 188.479 17.7808C188.713 17.7584 188.951 17.736 189.179 17.6986C189.367 17.6687 189.523 17.6936 189.655 17.7858C189.801 17.8881 189.971 17.8656 190.142 17.8432C190.54 17.7933 190.543 17.7958 190.792 17.9205C190.842 17.9454 190.892 17.9928 190.938 17.9903C191.346 17.9529 191.759 17.9205 192.16 17.8606C192.37 17.8307 192.491 17.9105 192.629 17.9753C192.679 17.9978 192.729 18.0476 192.775 18.0426C193.07 18.0152 193.365 17.9878 193.653 17.9404C193.788 17.918 193.869 17.9329 193.979 17.9928C194.242 18.1398 194.249 18.1349 194.623 18.0875C194.736 18.0725 194.861 18.0451 194.967 18.0651C195.074 18.085 195.159 18.1573 195.259 18.2022C195.305 18.2221 195.362 18.2495 195.411 18.2446C195.646 18.2246 195.88 18.1947 196.115 18.1673C196.335 18.1399 196.335 18.1424 196.748 18.2969C196.915 18.3618 197.089 18.3069 197.256 18.287C197.437 18.2645 197.6 18.2645 197.739 18.3618C197.878 18.459 198.045 18.454 198.222 18.434C198.389 18.4141 198.56 18.3593 198.73 18.4266C199.121 18.5812 199.121 18.5836 199.363 18.5537C199.715 18.5113 200.063 18.4714 200.418 18.434C200.464 18.429 200.525 18.459 200.571 18.4789C200.671 18.5238 200.756 18.5986 200.862 18.616C200.969 18.636 201.093 18.6061 201.207 18.5911C201.573 18.5437 201.598 18.5263 201.843 18.6908C202.049 18.8255 202.305 18.631 202.497 18.7856C202.607 18.8728 202.756 18.9426 202.963 18.9002C203.133 18.8653 203.311 18.8554 203.488 18.8354C203.769 18.803 203.769 18.8055 204.125 18.9551C204.171 18.9751 204.231 19 204.277 18.995C204.512 18.975 204.75 18.9576 204.977 18.9127C205.244 18.8604 205.414 18.9551 205.613 19.0474C205.77 19.1197 205.955 19.0598 206.122 19.0349C206.303 19.0099 206.466 19.0174 206.601 19.1146C206.743 19.2144 206.91 19.2019 207.088 19.182C207.255 19.1645 207.426 19.1072 207.596 19.177C207.962 19.3315 207.962 19.3315 208.229 19.3016C208.463 19.2742 208.698 19.2443 208.932 19.2244C208.979 19.2194 209.035 19.2518 209.082 19.2742C209.181 19.3191 209.266 19.3939 209.373 19.4113C209.48 19.4288 209.604 19.3964 209.721 19.3839C209.838 19.3715 209.963 19.3341 210.069 19.349C210.176 19.364 210.276 19.4263 210.361 19.4812C210.46 19.546 210.553 19.5534 210.688 19.5285C210.858 19.4961 211.036 19.4886 211.21 19.4712C211.306 19.5185 211.406 19.5659 211.498 19.6183C211.594 19.6731 211.697 19.6681 211.828 19.6507C212.265 19.5908 212.269 19.5983 212.635 19.7529C212.802 19.8227 212.976 19.7654 213.143 19.7479C213.321 19.728 213.488 19.718 213.626 19.8177C213.761 19.9125 213.929 19.9249 214.106 19.895C214.22 19.875 214.341 19.8626 214.458 19.8551C214.511 19.8526 214.575 19.8626 214.614 19.8825C214.803 19.9872 214.987 20.082 215.247 20.0147C215.474 20.0346 215.588 20.2391 215.862 20.1992C216.093 20.1643 216.334 20.1568 216.562 20.1119C216.771 20.072 216.921 20.1418 217.027 20.2291C217.219 20.3837 217.489 20.1742 217.681 20.3263C217.791 20.4136 217.933 20.4834 218.146 20.446C218.381 20.4061 218.456 20.4584 218.523 20.6155C218.562 20.7052 218.555 20.7776 218.484 20.8474C218.413 20.9197 218.335 20.9072 218.221 20.8249C218.09 20.7327 217.933 20.7152 217.745 20.7352C217.56 20.7551 217.446 20.6255 217.294 20.5756C217.141 20.5233 216.96 20.6105 216.8 20.5432C216.423 20.3861 216.423 20.3861 216.167 20.4161C215.993 20.436 215.812 20.446 215.641 20.4809C215.439 20.5233 215.307 20.446 215.169 20.3762C215.119 20.3512 215.069 20.3039 215.026 20.3064C214.618 20.3437 214.206 20.3787 213.801 20.441C213.587 20.4734 213.474 20.3837 213.332 20.3213C213.282 20.2989 213.228 20.254 213.186 20.259C212.834 20.2939 212.486 20.3388 212.134 20.3812C212.066 20.4485 211.992 20.5133 211.928 20.5856C211.86 20.6604 211.768 20.6928 211.633 20.6903C211.409 20.6903 211.189 20.795 210.965 20.6629C210.734 20.5282 210.716 20.5357 210.492 20.5681C210.208 20.6105 209.906 20.6006 209.639 20.6978C209.593 20.7152 209.544 20.7626 209.544 20.7975C209.54 20.8199 209.615 20.8523 209.661 20.8723C209.817 20.9321 209.998 20.8449 210.155 20.9072C210.258 20.9471 210.343 21.0069 210.446 21.0493C210.489 21.0667 210.553 21.0643 210.61 21.0618C210.67 21.0593 210.727 21.0418 210.784 21.0443C210.837 21.0468 210.894 21.0618 210.937 21.0842C211.132 21.1789 211.338 21.2662 211.512 21.3784C211.683 21.4881 211.843 21.4133 212.013 21.4083C212.695 21.5828 212.696 21.5853 213.154 21.5305C213.268 21.518 213.385 21.503 213.502 21.5055C213.552 21.5055 213.598 21.5504 213.648 21.5753C213.79 21.6501 213.925 21.7174 214.124 21.6776C214.295 21.6426 214.476 21.6352 214.65 21.6127C214.884 21.5853 214.884 21.5853 215.282 21.7424C215.382 21.7823 215.488 21.7773 215.616 21.7573C215.727 21.7399 215.84 21.7773 215.918 21.8496C215.95 21.8795 215.94 21.9294 215.95 21.9718C215.599 22.0116 215.243 22.0391 214.902 22.0989C214.682 22.1363 214.582 22.0291 214.437 21.9718C214.387 21.9518 214.334 21.9094 214.287 21.9144C213.939 21.9518 213.591 21.9942 213.243 22.044C213.2 22.049 213.147 22.1064 213.143 22.1413C213.136 22.2061 213.225 22.2684 213.353 22.2659C213.523 22.2634 213.69 22.221 213.843 22.3233C213.971 22.413 214.131 22.4529 214.319 22.413C214.433 22.3906 214.554 22.3906 214.668 22.3706C214.97 22.3108 215.243 22.3233 215.471 22.4928C215.645 22.5377 215.815 22.4953 215.982 22.4729C216.107 22.4554 216.228 22.4379 216.316 22.4853C216.505 22.585 216.69 22.6848 216.949 22.6175C217.23 22.6873 217.443 22.8343 217.677 22.954C217.788 23.0114 217.873 23.0438 218.001 23.0064C218.054 22.9914 218.118 22.9914 218.175 22.9839C218.292 22.9715 218.417 22.9341 218.523 22.949C218.63 22.9665 218.719 23.0388 218.815 23.0837C218.861 23.1061 218.914 23.1435 218.96 23.141C219.138 23.1285 219.312 23.1036 219.486 23.0837C219.66 23.0662 219.834 23.0488 220.008 23.0313C220.154 23.0961 220.303 23.161 220.449 23.2258C220.684 23.1984 220.918 23.1709 221.149 23.146C221.409 23.1161 221.408 23.1186 221.782 23.2731C221.949 23.3429 222.126 23.2981 222.286 23.2657C222.553 23.2133 222.73 23.3081 222.919 23.4078C222.958 23.4277 223.029 23.4402 223.075 23.4302C223.26 23.3953 223.42 23.4227 223.555 23.515C223.651 23.5798 223.747 23.6097 223.864 23.5973C224.273 23.5499 224.681 23.5 225.09 23.4576C225.14 23.4526 225.196 23.4751 225.243 23.495C225.605 23.6471 225.609 23.6546 225.875 23.6147C226.113 23.5798 226.334 23.5648 226.522 23.7019C226.561 23.7319 226.621 23.7743 226.664 23.7718C226.955 23.7468 227.25 23.7194 227.538 23.677C227.67 23.6571 227.762 23.6646 227.865 23.7219C227.997 23.7942 228.114 23.8815 228.331 23.8491C228.931 23.7568 228.935 23.7717 229.645 23.9438C229.695 23.9562 229.763 23.9363 229.82 23.9263C229.94 23.9014 230.029 23.9363 230.136 23.9936C230.374 24.1233 230.381 24.1158 230.608 24.0884C230.783 24.0659 230.964 24.061 231.134 24.0236C231.397 23.9687 231.571 24.066 231.767 24.1582C231.923 24.2305 232.104 24.1707 232.271 24.1482C232.453 24.1233 232.616 24.1307 232.751 24.2255C232.844 24.2903 232.943 24.3252 233.06 24.3128C233.469 24.2679 233.878 24.218 234.286 24.1731C234.336 24.1682 234.396 24.1881 234.443 24.2056C234.848 24.3601 234.848 24.3676 235.249 24.3103C235.377 24.2928 235.484 24.2878 235.58 24.3402C235.672 24.3901 235.772 24.4374 235.868 24.4848C236.042 24.4673 236.219 24.4624 236.39 24.4324C236.521 24.41 236.614 24.42 236.717 24.4723C236.852 24.5396 236.966 24.6568 237.179 24.5995C237.289 24.572 237.417 24.5795 237.527 24.5546C237.658 24.5222 237.747 24.5421 237.85 24.6069C237.978 24.6842 238.11 24.764 238.316 24.7241C238.543 24.6792 238.785 24.6718 239.016 24.6369C239.144 24.6169 239.233 24.6369 239.336 24.7017C239.464 24.7839 239.609 24.8363 239.808 24.8039C240.213 24.7416 240.217 24.754 240.611 24.9111C240.711 24.951 240.818 24.946 240.945 24.9261C241.056 24.9086 241.169 24.946 241.247 25.0183C241.322 25.0981 241.315 25.1479 241.322 25.1903ZM209.657 2.70512C209.54 2.71758 209.423 2.73254 209.252 2.51564C209.241 2.47824 209.249 2.43338 209.224 2.40097C209.167 2.33365 209.078 2.28629 208.971 2.27881C208.78 2.26883 208.549 2.35358 208.552 2.4184C208.556 2.47325 208.616 2.52061 208.733 2.56549C208.783 2.58294 208.822 2.61286 208.868 2.63281C209.003 2.69015 209.11 2.80235 209.305 2.74501C209.27 2.59044 209.288 2.66773 209.305 2.74501C209.288 2.83975 209.341 2.90707 209.469 2.93449C209.504 2.94197 209.558 2.93697 209.586 2.92201C209.696 2.86717 209.714 2.79239 209.632 2.59543C209.618 2.62784 209.629 2.68517 209.661 2.70012C209.693 2.71508 209.771 2.70263 209.81 2.68518C209.91 2.63781 209.959 2.57548 209.934 2.52312C209.92 2.4957 209.853 2.4608 209.81 2.4608C209.735 2.4608 209.668 2.51564 209.657 2.70512ZM238.39 31.6175C238.131 31.6649 237.833 31.6474 237.573 31.7447C237.527 31.7621 237.481 31.807 237.477 31.8419C237.474 31.8643 237.545 31.8968 237.587 31.9142C237.683 31.9541 237.79 31.9416 237.914 31.9292C238.103 31.9117 238.213 32.0264 238.359 32.0837C238.405 32.1012 238.465 32.1136 238.515 32.1086C238.803 32.0787 239.087 32.0463 239.375 32.0114C239.424 32.004 239.478 31.9865 239.521 31.9641C239.663 31.8918 239.648 31.8444 239.51 31.7896C239.357 31.7297 239.236 31.63 239.08 31.5826C238.856 31.5153 238.629 31.6051 238.39 31.6175ZM218.21 33.4375C218.036 33.4574 217.866 33.4774 217.692 33.4973C217.635 33.5048 217.574 33.5073 217.521 33.5173C217.411 33.5347 217.329 33.5871 217.276 33.6693C217.358 33.7341 217.457 33.7715 217.567 33.7641C217.741 33.7491 217.912 33.7167 218.086 33.7092C218.274 33.6993 218.385 33.8114 218.53 33.8688C218.576 33.8862 218.633 33.8887 218.687 33.8912C218.95 33.9012 219.109 33.7716 219.06 33.5896C219.024 33.4475 218.889 33.3627 218.726 33.3801C218.555 33.3976 218.381 33.4175 218.21 33.4375ZM239.606 27.9327C239.648 27.8903 239.695 27.8604 239.716 27.823C239.78 27.6959 239.755 27.6011 239.638 27.5014C239.496 27.3793 239.322 27.4615 239.162 27.474C239.123 27.4765 239.08 27.5288 239.059 27.5612C239.044 27.5837 239.044 27.6311 239.066 27.6435C239.24 27.7433 239.425 27.8355 239.606 27.9327ZM208.78 20.5681C208.609 20.5881 208.435 20.603 208.264 20.6305C208.222 20.6379 208.183 20.6853 208.158 20.7177C208.112 20.7776 208.161 20.8598 208.307 20.8673C208.474 20.8773 208.648 20.8349 208.822 20.815C209.042 20.79 209.174 20.6978 209.092 20.618C209.014 20.5407 208.908 20.5258 208.78 20.5681ZM21.7293 15.2404C21.843 15.2279 21.9603 15.218 22.074 15.2005C22.1806 15.183 22.2624 15.1282 22.3157 15.0459C22.2269 14.9811 22.1273 14.9462 22.0172 14.9537C21.8431 14.9686 21.6725 14.9886 21.5019 15.0135C21.3953 15.0285 21.2923 15.0833 21.2675 15.1681C21.2426 15.2329 21.4806 15.2703 21.7293 15.2404ZM193.752 14.8565C193.798 14.8789 193.844 14.9238 193.891 14.9238C194.004 14.9238 194.122 14.9088 194.228 14.8839C194.274 14.8739 194.31 14.829 194.331 14.7941C194.345 14.7717 194.342 14.7318 194.321 14.7119C194.218 14.5922 193.805 14.6346 193.738 14.7717C193.731 14.7966 193.748 14.829 193.752 14.8565ZM182.541 1.20427C182.552 1.24416 182.555 1.28404 182.569 1.32393C182.598 1.39872 182.676 1.45358 182.79 1.49098C182.878 1.42865 182.925 1.35886 182.921 1.28406C182.918 1.24417 182.907 1.20426 182.893 1.16437C182.864 1.08958 182.786 1.03475 182.672 0.997353C182.584 1.05719 182.541 1.12698 182.541 1.20427ZM247.818 33.8713C247.786 33.9037 247.754 33.9361 247.718 33.966C247.814 34.0383 247.903 34.0608 247.971 34.0209C248.013 33.9959 248.038 33.9585 248.07 33.9261C247.974 33.8538 247.889 33.8339 247.818 33.8713ZM245.608 34.2103C245.654 34.2328 245.696 34.2627 245.746 34.2777C245.828 34.3026 245.902 34.2602 245.959 34.1704C245.913 34.148 245.871 34.1181 245.821 34.1031C245.739 34.0782 245.664 34.1206 245.608 34.2103ZM247.008 33.7541C246.983 33.8139 247.033 33.8638 247.164 33.9062C247.196 33.8738 247.239 33.8439 247.26 33.809C247.295 33.7516 247.235 33.6993 247.107 33.6594C247.072 33.6893 247.04 33.7217 247.008 33.7541ZM239.506 31.0666C239.481 31.1264 239.531 31.1762 239.663 31.2186C239.695 31.1862 239.737 31.1563 239.759 31.1214C239.794 31.0641 239.734 31.0117 239.606 30.9718C239.57 31.0017 239.538 31.0341 239.506 31.0666ZM229.287 13.4254C229.255 13.4578 229.223 13.4902 229.187 13.5202C229.283 13.5925 229.372 13.6149 229.439 13.575C229.482 13.5501 229.507 13.5127 229.539 13.4803C229.443 13.408 229.358 13.388 229.287 13.4254ZM219.497 4.06634C219.582 4.08379 219.653 4.0489 219.714 3.95665C219.667 3.93422 219.625 3.90429 219.575 3.88934C219.493 3.8644 219.419 3.9068 219.362 3.99655C219.408 4.02148 219.454 4.0439 219.497 4.06634ZM214.298 3.48046C214.266 3.51287 214.234 3.54529 214.199 3.5752C214.295 3.6475 214.383 3.66993 214.451 3.63004C214.494 3.60511 214.518 3.56772 214.55 3.53531C214.454 3.46301 214.369 3.44556 214.298 3.48046ZM179.044 1.20177C179.012 1.23418 178.98 1.26659 178.945 1.29651C179.041 1.36881 179.13 1.39124 179.197 1.35135C179.24 1.32642 179.265 1.28902 179.297 1.25661C179.201 1.18431 179.115 1.16687 179.044 1.20177ZM3.50721 21.4856C3.46102 21.4631 3.41486 21.4407 3.37222 21.4158C3.26917 21.4831 3.2372 21.5454 3.29406 21.5928C3.32959 21.6227 3.38285 21.6402 3.42905 21.6626C3.53565 21.5953 3.56051 21.5354 3.50721 21.4856Z" fill="#FFE492"/>
<path d="M24.1169 12.6824C23.7082 12.7298 23.3031 12.7896 22.8945 12.8195C22.6777 12.8345 22.5996 12.9417 22.5108 13.0414C22.4397 13.1212 22.358 13.1461 22.2265 13.161C21.1178 13.2832 20.0127 13.4129 18.9075 13.54C18.7689 13.5076 18.7014 13.4552 18.7334 13.3929C18.7512 13.3555 18.7938 13.3032 18.8365 13.2982C19.5934 13.2059 20.3467 13.1112 21.1071 13.0389C21.3239 13.0189 21.3843 12.9092 21.4945 12.8195C21.53 12.7896 21.5584 12.7447 21.6046 12.7272C21.6508 12.7073 21.7183 12.7098 21.7788 12.7048C23.0011 12.5627 24.2236 12.4231 25.4459 12.281C25.5845 12.3134 25.652 12.3658 25.6201 12.4281C25.6023 12.4655 25.5596 12.5178 25.517 12.5228C25.0479 12.5752 24.5824 12.6275 24.1169 12.6824Z" fill="#FFE492"/>
<path d="M247.864 25.9581C247.679 25.9881 247.445 26.0304 247.253 25.8858C247.161 25.816 247.061 25.7936 246.94 25.8086C246.766 25.8335 246.589 25.8534 246.411 25.8684C246.365 25.8709 246.304 25.8435 246.258 25.821C246.159 25.7761 246.073 25.7014 245.967 25.6814C245.86 25.6615 245.732 25.7163 245.622 25.7038C245.476 25.6864 245.416 25.6191 245.455 25.5568C245.476 25.5219 245.519 25.472 245.565 25.4645C246.223 25.3723 246.226 25.3723 246.411 25.462C246.553 25.5318 246.684 25.6091 246.887 25.5667C247.058 25.5318 247.239 25.5243 247.413 25.5019C247.655 25.472 247.655 25.4745 248.045 25.6315C248.145 25.6714 248.252 25.6689 248.379 25.6465C248.49 25.6291 248.596 25.6689 248.685 25.7363C248.628 25.821 248.546 25.8759 248.436 25.8908C248.259 25.9158 248.085 25.9332 247.864 25.9581Z" fill="#FFE492"/>
<path d="M241.322 25.19C241.77 25.1377 242.221 25.0928 242.669 25.033C242.854 25.0081 243 25.0355 243.127 25.1203C243.266 25.2125 243.422 25.205 243.593 25.1876C243.7 25.1776 243.803 25.2175 243.874 25.2873C243.902 25.3147 243.895 25.3646 243.906 25.4045C243.515 25.4494 243.12 25.4967 242.726 25.5366C242.68 25.5416 242.623 25.5167 242.58 25.4967C242.484 25.4543 242.403 25.3795 242.299 25.3646C242.079 25.3297 241.859 25.397 241.635 25.4094C241.528 25.4144 241.425 25.3771 241.354 25.3097C241.326 25.2773 241.333 25.2299 241.322 25.19Z" fill="#FFE492"/>
<path d="M79.5163 3.75431C79.9818 3.69946 80.4473 3.64713 80.9128 3.59229C81.0514 3.62719 81.1153 3.67704 81.0869 3.73937C81.0691 3.77677 81.0265 3.82912 80.9838 3.83411C80.0528 3.9463 79.1219 4.05348 78.1944 4.16069C78.0558 4.12578 77.9919 4.07593 78.0203 4.0136C78.0381 3.97621 78.0807 3.92385 78.1234 3.91886C78.5853 3.86152 79.0508 3.80916 79.5163 3.75431Z" fill="#FFE492"/>
<path d="M7.78586 17.6088C7.57621 17.6138 7.35594 17.706 7.12141 17.6362C7.07522 17.6237 7.01124 17.5838 7.01479 17.5614C7.0219 17.524 7.06455 17.4766 7.11074 17.4617C7.31329 17.3993 7.56561 17.3919 7.66866 17.2173C7.71841 17.1276 7.8108 17.0977 7.93517 17.0802C8.06664 17.0603 8.15901 17.0677 8.26206 17.1201C8.39709 17.1874 8.51081 17.3121 8.72402 17.2473C8.73468 17.2871 8.75949 17.332 8.74883 17.3694C8.73817 17.4068 8.69205 17.4417 8.64941 17.4691C8.61033 17.4941 8.55697 17.5165 8.50722 17.524C8.2727 17.5539 8.03816 17.5789 7.78586 17.6088Z" fill="#FFE492"/>
<path d="M192.594 17.1073C192.768 17.0873 192.949 17.0773 193.12 17.0424C193.255 17.015 193.34 17.0324 193.447 17.0923C193.628 17.197 193.638 17.187 194.083 17.202C194.132 17.2045 194.193 17.2419 194.221 17.2743C194.239 17.2917 194.214 17.3391 194.193 17.364C194.161 17.3965 194.115 17.4388 194.072 17.4388C193.791 17.4463 193.507 17.5934 193.233 17.4239C193.095 17.3391 192.942 17.2992 192.754 17.3366C192.64 17.359 192.519 17.369 192.402 17.379C192.288 17.389 192.171 17.3615 192.1 17.2867C191.997 17.1771 192.057 17.1347 192.242 17.1422C192.359 17.1471 192.476 17.1197 192.594 17.1073Z" fill="#FFE492"/>
<path d="M256.996 34.2931C257.22 34.2682 257.444 34.2383 257.671 34.2184C257.717 34.2134 257.774 34.2408 257.817 34.2583C257.988 34.3331 257.963 34.4602 257.97 34.5724C257.973 34.6895 257.579 34.7843 257.412 34.7045C257.227 34.6148 257.06 34.5126 256.804 34.5674C256.705 34.5874 256.588 34.5425 256.524 34.4702C256.428 34.3655 256.481 34.3231 256.662 34.3305C256.769 34.3355 256.882 34.3081 256.996 34.2931Z" fill="#FFE492"/>
<path d="M144.182 0.359444C144.413 0.33202 144.644 0.289658 144.875 0.287165C145.01 0.284672 145.077 0.366928 145.045 0.426762C145.027 0.464159 144.985 0.516515 144.942 0.521501C144.48 0.581335 144.018 0.631206 143.556 0.686054C143.421 0.65115 143.354 0.598804 143.386 0.53897C143.404 0.501573 143.446 0.45171 143.489 0.444231C143.72 0.409328 143.951 0.386868 144.182 0.359444Z" fill="#FFE492"/>
<path d="M252.565 26.1774C252.789 26.1525 253.016 26.1151 253.24 26.1026C253.357 26.0976 253.45 26.1549 253.464 26.2198C253.471 26.2497 253.414 26.302 253.368 26.3145C253.048 26.3993 252.703 26.4093 252.369 26.4516C252.263 26.4641 252.149 26.4242 252.085 26.3544C251.989 26.2472 252.042 26.2073 252.224 26.2148C252.337 26.2173 252.451 26.1899 252.565 26.1774Z" fill="#FFE492"/>
<path d="M198.464 17.4445C198.578 17.432 198.695 17.3996 198.805 17.4096C198.922 17.4221 198.997 17.4944 199.033 17.5667C199.072 17.6489 199.068 17.7262 199.033 17.796C198.976 17.9157 198.919 17.9107 198.787 17.8309C198.585 17.7063 198.571 17.7212 198.169 17.7262C198.123 17.7262 198.066 17.6888 198.03 17.6564C197.977 17.6065 198.006 17.5293 198.13 17.4844C198.222 17.452 198.35 17.457 198.464 17.4445Z" fill="#FFE492"/>
<path d="M244.24 25.3596C244.407 25.3396 244.574 25.3072 244.741 25.3072C244.858 25.3047 244.951 25.362 244.961 25.4244C244.965 25.4543 244.912 25.5042 244.869 25.5191C244.666 25.5864 244.439 25.5914 244.219 25.6139C244.116 25.6238 244.002 25.5839 243.938 25.5141C243.842 25.4094 243.899 25.362 244.073 25.377C244.126 25.382 244.183 25.367 244.24 25.3596Z" fill="#FFE492"/>
<path d="M217.955 22.301C217.706 22.3309 217.471 22.2935 217.489 22.2287C217.514 22.144 217.617 22.0891 217.724 22.0741C217.894 22.0492 218.065 22.0293 218.239 22.0143C218.349 22.0043 218.449 22.0417 218.537 22.1065C218.484 22.1863 218.402 22.2437 218.296 22.2611C218.186 22.2786 218.068 22.2885 217.955 22.301Z" fill="#FFE492"/>
<path d="M216.324 21.9819C216.491 21.9619 216.658 21.9295 216.825 21.9295C216.942 21.927 217.035 21.9844 217.045 22.0467C217.049 22.0766 216.996 22.1265 216.953 22.1414C216.75 22.2087 216.523 22.2137 216.303 22.2362C216.2 22.2461 216.086 22.2062 216.022 22.1364C215.926 22.0317 215.983 21.9844 216.157 21.9993C216.21 22.0043 216.267 21.9893 216.324 21.9819Z" fill="#FFE492"/>
<path d="M196.449 17.4243C196.616 17.4044 196.783 17.372 196.95 17.3695C197.067 17.367 197.16 17.4243 197.17 17.4867C197.174 17.5166 197.121 17.5639 197.078 17.5814C196.875 17.6487 196.648 17.6537 196.428 17.6761C196.325 17.6861 196.211 17.6462 196.147 17.5764C196.051 17.4717 196.108 17.4243 196.282 17.4393C196.335 17.4443 196.392 17.4293 196.449 17.4243Z" fill="#FFE492"/>
<path d="M195.514 17.2773C195.692 17.2573 195.749 17.2449 195.806 17.2449C195.912 17.2449 196.022 17.2748 196.086 17.3471C196.182 17.4518 196.126 17.4817 195.951 17.4867C195.728 17.4917 195.507 17.5441 195.283 17.554C195.166 17.559 195.074 17.4992 195.067 17.4368C195.063 17.4069 195.116 17.3546 195.159 17.3446C195.308 17.3072 195.472 17.2848 195.514 17.2773Z" fill="#FFE492"/>
<path d="M214.877 2.61044C214.763 2.62291 214.643 2.65781 214.536 2.64535C214.394 2.6279 214.337 2.56059 214.373 2.49827C214.394 2.46336 214.433 2.4135 214.476 2.40602C214.703 2.37112 214.934 2.34866 215.161 2.32373C215.296 2.36113 215.357 2.41348 215.321 2.47581C215.3 2.51071 215.261 2.55808 215.218 2.56805C215.108 2.59298 214.991 2.59798 214.877 2.61044Z" fill="#FFE492"/>
<path d="M76.9673 4.04896C77.0774 4.04647 77.1769 4.07888 77.2622 4.14121C77.2089 4.22098 77.1307 4.27334 77.0241 4.29578C76.9708 4.30575 76.9104 4.31322 76.8536 4.31571C76.7434 4.3207 76.6439 4.28579 76.5586 4.22347C76.6119 4.14369 76.6936 4.09133 76.7966 4.0689C76.8499 4.05892 76.9104 4.05644 76.9673 4.04896Z" fill="#FFE492"/>
<path d="M251.351 26.1675C251.347 26.0952 251.564 26.0129 251.759 26.0154C251.862 26.0179 251.969 26.0528 252.029 26.1202C252.122 26.2224 252.068 26.2622 251.894 26.2548C251.788 26.2498 251.674 26.2922 251.567 26.2847C251.447 26.2822 251.376 26.2273 251.351 26.1675Z" fill="#FFE492"/>
<path d="M199.494 17.746C199.49 17.7185 199.472 17.6861 199.483 17.6612C199.55 17.5241 199.959 17.4817 200.066 17.6014C200.083 17.6238 200.091 17.6612 200.076 17.6836C200.055 17.7185 200.016 17.7634 199.973 17.7734C199.863 17.7983 199.749 17.8108 199.636 17.8133C199.586 17.8133 199.54 17.7709 199.494 17.746Z" fill="#FFE492"/>
<path d="M9.05014 17.2097C8.63083 17.2621 8.62373 17.2571 8.69835 17.1324C8.76587 17.0202 8.89026 16.9529 9.07148 16.9529C9.12478 16.9529 9.18162 16.9479 9.22781 16.9579C9.27756 16.9704 9.34867 16.9953 9.35933 17.0252C9.38065 17.0825 9.32019 17.1449 9.21359 17.1872C9.16739 17.2072 9.107 17.2022 9.05014 17.2097Z" fill="#FFE492"/>
<path d="M82.2164 3.69743C82.092 3.73981 81.9855 3.72486 81.9073 3.64508C81.8291 3.5653 81.9535 3.47056 82.1702 3.44812C82.2271 3.44313 82.2875 3.4232 82.3408 3.43318C82.3941 3.44065 82.4474 3.47055 82.4794 3.50046C82.5363 3.55033 82.5007 3.61766 82.387 3.675C82.3408 3.69744 82.2732 3.69244 82.2164 3.69743Z" fill="#FFE492"/>
<path d="M250.61 25.98C250.642 25.9476 250.674 25.9152 250.709 25.8853C250.841 25.9276 250.898 25.9775 250.862 26.0348C250.841 26.0697 250.798 26.0997 250.766 26.1321C250.635 26.0897 250.582 26.0373 250.61 25.98Z" fill="#FFE492"/>
<path d="M14.6797 45.5912C14.6797 45.5613 14.7294 45.5139 14.7685 45.504C14.8431 45.4865 14.9355 45.5214 14.9995 45.5912C15.0883 45.6909 15.035 45.7433 14.8716 45.7159C14.7579 45.6959 14.6797 45.6461 14.6797 45.5912Z" fill="#FFE492"/>
<path d="M200.94 15.425C200.987 15.4474 201.033 15.4699 201.076 15.4948C201.015 15.5871 200.94 15.6269 200.862 15.602C200.813 15.587 200.77 15.5571 200.724 15.5347C200.784 15.4424 200.855 15.4075 200.94 15.425Z" fill="#FFE492"/>
<path d="M199.711 15.3131C199.782 15.2757 199.868 15.2957 199.967 15.368C199.935 15.4004 199.907 15.4378 199.868 15.4628C199.8 15.5026 199.711 15.4827 199.615 15.4079C199.644 15.378 199.676 15.3456 199.711 15.3131Z" fill="#FFE492"/>
<path d="M198.769 15.4227C198.816 15.4451 198.862 15.4676 198.905 15.4925C198.844 15.5848 198.773 15.6246 198.691 15.5997C198.642 15.5847 198.599 15.5548 198.553 15.5324C198.613 15.4401 198.684 15.4028 198.769 15.4227Z" fill="#FFE492"/>
<path d="M198.076 15.2905C198.129 15.3404 198.101 15.4002 197.998 15.4675C197.951 15.4451 197.898 15.4277 197.863 15.3977C197.806 15.3504 197.834 15.288 197.941 15.2207C197.983 15.2456 198.03 15.2681 198.076 15.2905Z" fill="#FFE492"/>
</svg>
